<?xml version="1.0" encoding="utf-8"?>
<!-- Generator: Adobe Illustrator 25.3.1, SVG Export Plug-In . SVG Version: 6.00 Build 0)  -->
<svg version="1.1" id="Capa_1" xmlns="http://www.w3.org/2000/svg" xmlns:xlink="http://www.w3.org/1999/xlink" x="0px" y="0px"
	 viewBox="0 0 500 500" style="enable-background:new 0 0 500 500;" xml:space="preserve">
<style type="text/css">
	.st0{fill:#EBEBEB;}
	.st1{fill:#37474F;}
	.st2{fill:#263238;}
	.st3{fill:#455A64;}
	.st4{fill:#DBDBDB;}
	.st5{fill:#90CAF9;}
	.st6{fill:#FFFFFF;}
	.st7{fill:#A6A6A6;}
	.st8{fill:#C7C7C7;}
	.st9{opacity:0.1;enable-background:new    ;}
	.st10{fill:#688225;}
	.st11{opacity:0.5;fill:#FFFFFF;enable-background:new    ;}
	.st12{fill:#DF5C36;}
	.st13{opacity:0.2;fill:#FFFFFF;enable-background:new    ;}
	.st14{opacity:0.2;enable-background:new    ;}
	.st15{opacity:0.2;fill:#184216;enable-background:new    ;}
	.st16{opacity:0.2;fill:#05BF00;enable-background:new    ;}
	.st17{opacity:0.4;fill:#FFFFFF;enable-background:new    ;}
	.st18{fill:#3C8C67;}
	.st19{opacity:0.3;fill:#FFFFFF;enable-background:new    ;}
	.st20{fill:#EB9481;}
	.st21{fill:#FF97B8;}
	.st22{opacity:0.2;fill:#263238;enable-background:new    ;}
	.st23{fill:#55A19C;}
</style>
<g id="Capa_1_1_">
	<g id="freepik--Shadow--inject-57">
		<ellipse class="st0" cx="250" cy="445.1" rx="188.5" ry="13.7"/>
	</g>
	<g id="freepik--checkout-machine--inject-57">
		<rect x="62.6" y="300.2" class="st1" width="134.3" height="10"/>
		<polygon class="st2" points="196.9,300.2 62.6,300.2 68.9,295.2 184.3,295.2 		"/>
		<polygon class="st3" points="136.4,350 75.3,310.3 136.4,310.3 		"/>
		<polygon class="st1" points="136.4,350 131.9,310.3 136.4,310.3 		"/>
		<rect x="136.4" y="188.1" class="st3" width="109.1" height="253.6"/>
		<rect x="140" y="441.7" class="st1" width="101.9" height="6.7"/>
		<rect x="123.8" y="264.8" class="st1" width="134.3" height="10"/>
		<polygon class="st2" points="258.1,264.8 123.8,264.8 136.4,259.7 245.5,259.7 		"/>
		<polygon class="st4" points="206.1,263.5 139.9,263.5 146.1,261 199.8,261 		"/>
		<rect x="203.4" y="232.4" class="st2" width="30.9" height="17.7"/>
		<rect x="134.1" y="86.9" class="st2" width="4.8" height="101.1"/>
		<rect x="119" y="43.7" class="st5" width="34.8" height="43.3"/>
		<path class="st2" d="M148.2,67.5c1.8,1.8,2.9,4.3,2.9,6.8c0,5.4-4.3,9.7-9.7,9.7c-2.6,0-5.1-1-6.9-2.9c-0.8-0.9-0.8-2.3,0.1-3.1
			c0.9-0.8,2.2-0.8,3.1,0c1,1,2.3,1.5,3.7,1.5s2.7-0.5,3.8-1.5c1-1,1.6-2.3,1.6-3.8c0-1.4-0.6-2.7-1.6-3.7s-2.3-1.6-3.7-1.6
			c-0.6,0-1.2-0.2-1.6-0.7l0,0c-0.9-0.8-0.9-2.2-0.1-3.1l4-4.1h-6.3c-1.2-0.1-2.1-1.1-2.1-2.4c0.1-1.1,1-2,2.1-2.1H149
			c1.2,0,2.2,0.9,2.2,2.1l0,0c0,0.3-0.1,0.7-0.3,1c-0.1,0.2-0.2,0.4-0.4,0.5l-4.9,5.1C146.5,66,147.4,66.7,148.2,67.5z"/>
		<rect x="245.5" y="202.3" class="st3" width="180.1" height="111.2"/>
		<polygon class="st1" points="245.5,313.5 245.5,202.3 249.7,202.3 247.2,313.5 		"/>
		<rect x="245.5" y="213" class="st0" width="184.2" height="4.3"/>
		<rect x="122.1" y="141.2" class="st1" width="101.8" height="82.3"/>
		<rect x="128.7" y="148" class="st6" width="88.5" height="68.7"/>
		<rect x="134" y="152.4" class="st0" width="36.7" height="59.5"/>
		<rect x="175.3" y="152.4" class="st0" width="36.7" height="59.5"/>
		<rect x="181.7" y="201.3" class="st5" width="23.9" height="5.6"/>
		<rect x="140.4" y="158.1" class="st7" width="23.9" height="5.6"/>
		<rect x="140.4" y="167.7" class="st8" width="13.5" height="0.8"/>
		<rect x="140.4" y="170" class="st8" width="13.5" height="0.8"/>
		<rect x="140.4" y="172.4" class="st8" width="13.5" height="0.8"/>
		<rect x="140.4" y="174.7" class="st8" width="13.5" height="0.8"/>
		<rect x="140.4" y="177.1" class="st8" width="13.5" height="0.8"/>
		<rect x="140.4" y="179.4" class="st8" width="13.5" height="0.8"/>
		<rect x="140.4" y="181.8" class="st8" width="13.5" height="0.8"/>
		<rect x="140.4" y="184.2" class="st8" width="13.5" height="0.8"/>
		<rect x="140.4" y="186.5" class="st8" width="13.5" height="0.8"/>
		<rect x="140.4" y="188.9" class="st8" width="13.5" height="0.8"/>
		<rect x="140.4" y="191.2" class="st8" width="13.5" height="0.8"/>
		<rect x="140.4" y="193.6" class="st8" width="13.5" height="0.8"/>
		<rect x="140.4" y="195.9" class="st8" width="13.5" height="0.8"/>
		<rect x="140.4" y="198.3" class="st8" width="13.5" height="0.8"/>
		<rect x="140.4" y="200.6" class="st8" width="13.5" height="0.8"/>
		<rect x="140.4" y="203" class="st8" width="13.5" height="0.8"/>
		<rect x="140.4" y="205.4" class="st8" width="13.5" height="0.8"/>
		<rect x="160" y="167.7" class="st8" width="4.2" height="0.8"/>
		<rect x="160" y="170" class="st8" width="4.2" height="0.8"/>
		<rect x="160" y="172.4" class="st8" width="4.2" height="0.8"/>
		<rect x="160" y="174.7" class="st8" width="4.2" height="0.8"/>
		<rect x="160" y="177.1" class="st8" width="4.2" height="0.8"/>
		<rect x="160" y="179.4" class="st8" width="4.2" height="0.8"/>
		<rect x="160" y="181.8" class="st8" width="4.2" height="0.8"/>
		<rect x="160" y="184.2" class="st8" width="4.2" height="0.8"/>
		<rect x="160" y="186.5" class="st8" width="4.2" height="0.8"/>
		<rect x="160" y="188.9" class="st8" width="4.2" height="0.8"/>
		<rect x="160" y="191.2" class="st8" width="4.2" height="0.8"/>
		<rect x="160" y="193.6" class="st8" width="4.2" height="0.8"/>
		<rect x="160" y="195.9" class="st8" width="4.2" height="0.8"/>
		<rect x="160" y="198.3" class="st8" width="4.2" height="0.8"/>
		<rect x="160" y="200.6" class="st8" width="4.2" height="0.8"/>
		<rect x="160" y="203" class="st8" width="4.2" height="0.8"/>
		<rect x="160" y="205.4" class="st8" width="4.2" height="0.8"/>
		<rect x="181.7" y="158.1" class="st8" width="13.5" height="0.8"/>
		<rect x="181.7" y="160.4" class="st8" width="13.5" height="0.8"/>
		<rect x="181.7" y="162.8" class="st8" width="13.5" height="0.8"/>
		<rect x="181.7" y="165.2" class="st8" width="13.5" height="0.8"/>
		<rect x="181.7" y="167.5" class="st8" width="13.5" height="0.8"/>
		<rect x="181.7" y="169.9" class="st8" width="13.5" height="0.8"/>
		<rect x="181.7" y="172.2" class="st8" width="13.5" height="0.8"/>
		<rect x="181.7" y="174.6" class="st8" width="13.5" height="0.8"/>
		<rect x="181.7" y="176.9" class="st8" width="13.5" height="0.8"/>
		<rect x="181.7" y="179.3" class="st8" width="13.5" height="0.8"/>
		<rect x="201.4" y="158.1" class="st8" width="4.2" height="0.8"/>
		<rect x="201.4" y="160.4" class="st8" width="4.2" height="0.8"/>
		<rect x="201.4" y="162.8" class="st8" width="4.2" height="0.8"/>
		<rect x="201.4" y="165.2" class="st8" width="4.2" height="0.8"/>
		<rect x="201.4" y="167.5" class="st8" width="4.2" height="0.8"/>
		<rect x="201.4" y="169.9" class="st8" width="4.2" height="0.8"/>
		<rect x="201.4" y="172.2" class="st8" width="4.2" height="0.8"/>
		<rect x="201.4" y="174.6" class="st8" width="4.2" height="0.8"/>
		<rect x="201.4" y="176.9" class="st8" width="4.2" height="0.8"/>
		<rect x="201.4" y="179.3" class="st8" width="4.2" height="0.8"/>
		<rect x="245.5" y="321.9" class="st3" width="182.1" height="119.8"/>
		<rect x="249.1" y="441.7" class="st1" width="174.9" height="6.7"/>
		<rect x="245.5" y="318.5" class="st1" width="192.7" height="10"/>
		<polygon class="st2" points="438.2,318.5 245.5,318.5 245.5,313.5 425.6,313.5 		"/>
		<polygon class="st1" points="245.5,441.7 245.5,328.5 249.7,328.5 247.2,441.7 		"/>
		<rect x="230.1" y="151.9" class="st1" width="27.2" height="53.5"/>
		<rect x="257.3" y="155.7" class="st3" width="3.6" height="42.2"/>
		<rect x="257.3" y="155.7" class="st2" width="1" height="42.2"/>
		<rect x="233.6" y="184.6" class="st0" width="5.8" height="2.6"/>
		<rect x="240.8" y="184.6" class="st0" width="5.8" height="2.6"/>
		<rect x="248" y="184.6" class="st0" width="5.8" height="2.6"/>
		<rect x="233.6" y="188.3" class="st0" width="5.8" height="2.6"/>
		<rect x="240.8" y="188.3" class="st0" width="5.8" height="2.6"/>
		<rect x="248" y="188.3" class="st0" width="5.8" height="2.6"/>
		<rect x="233.6" y="192" class="st0" width="5.8" height="2.6"/>
		<rect x="240.8" y="192" class="st0" width="5.8" height="2.6"/>
		<rect x="248" y="192" class="st0" width="5.8" height="2.6"/>
		<rect x="233.6" y="195.6" class="st0" width="5.8" height="2.6"/>
		<rect x="240.8" y="195.6" class="st0" width="5.8" height="2.6"/>
		<rect x="248" y="195.6" class="st0" width="5.8" height="2.6"/>
		<rect x="233.6" y="199.3" class="st2" width="5.8" height="2.6"/>
		<rect x="240.8" y="199.3" class="st5" width="5.8" height="2.6"/>
		<rect x="248" y="199.3" class="st7" width="5.8" height="2.6"/>
		<rect x="231.6" y="148.9" class="st2" width="24.3" height="34.2"/>
		<rect x="233.1" y="159.3" class="st6" width="21.2" height="16.5"/>
		<rect x="235.5" y="142.6" class="st0" width="16.4" height="12.4"/>
		<rect x="240.3" y="144.2" class="st8" width="6.7" height="0.2"/>
		<rect x="242" y="144.9" class="st8" width="3.5" height="0.2"/>
		<rect x="237.1" y="147.1" class="st8" width="6.7" height="0.2"/>
		<rect x="237.1" y="147.8" class="st8" width="8.4" height="0.2"/>
		<rect x="237.1" y="148.5" class="st8" width="4.4" height="0.2"/>
		<rect x="237.1" y="149.2" class="st8" width="7.5" height="0.2"/>
		<rect x="237.1" y="150" class="st8" width="8.2" height="0.2"/>
		<rect x="237.1" y="150.7" class="st8" width="7.5" height="0.2"/>
		<rect x="237.1" y="151.4" class="st8" width="8.4" height="0.2"/>
		<rect x="237.1" y="152.2" class="st8" width="7.7" height="0.2"/>
		<rect x="237.1" y="152.9" class="st8" width="6.3" height="0.2"/>
		<rect x="237.1" y="153.6" class="st8" width="8.3" height="0.2"/>
		<rect x="237.1" y="154.3" class="st8" width="7.8" height="0.2"/>
		<rect x="247.8" y="147.8" class="st8" width="2.5" height="0.2"/>
		<rect x="247.8" y="148.5" class="st8" width="2.5" height="0.2"/>
		<rect x="247.8" y="149.2" class="st8" width="2.5" height="0.2"/>
		<rect x="247.8" y="150" class="st8" width="2.5" height="0.2"/>
		<rect x="247.8" y="150.7" class="st8" width="2.5" height="0.2"/>
		<rect x="247.8" y="151.4" class="st8" width="2.5" height="0.2"/>
		<rect x="247.8" y="152.2" class="st8" width="2.5" height="0.2"/>
		<rect x="247.8" y="152.9" class="st8" width="2.5" height="0.2"/>
		<rect x="247.8" y="153.6" class="st8" width="2.5" height="0.2"/>
		<rect x="247.8" y="154.3" class="st8" width="2.5" height="0.2"/>
		<path class="st7" d="M245.9,179.4c0,1.3-1,2.3-2.3,2.3s-2.3-1-2.3-2.3s1-2.3,2.3-2.3S245.9,178.1,245.9,179.4L245.9,179.4z"/>
		<rect x="233.7" y="177.1" class="st7" width="5.4" height="1.8"/>
		<rect x="233.7" y="179.9" class="st7" width="5.4" height="1.8"/>
		<rect x="248.4" y="177.1" class="st7" width="5.4" height="1.8"/>
		<rect x="248.4" y="179.9" class="st7" width="5.4" height="1.8"/>
		<path class="st5" d="M248.4,167.5c0,2.6-2.1,4.7-4.7,4.7c-2.6,0-4.7-2.1-4.7-4.7c0-2.6,2.1-4.7,4.7-4.7l0,0
			C246.3,162.9,248.4,165,248.4,167.5z"/>
		<polygon class="st2" points="243,170.9 240.6,168.4 241.4,167.6 242.8,169.1 245.8,164.4 246.8,165 		"/>
		<rect x="249.1" y="441.7" class="st1" width="174.9" height="6.7"/>
	</g>
	<g id="freepik--shopping-bags--inject-57">
		<polygon class="st5" points="398.3,217.6 398.3,314.2 335.6,314.2 335.6,217.6 351.5,217.6 351.5,239.6 382.4,239.6 382.4,217.6 
					"/>
		<polygon class="st9" points="398.3,217.6 398.3,314.2 335.6,314.2 335.6,217.6 351.5,217.6 351.5,239.6 382.4,239.6 382.4,217.6 
					"/>
		<path class="st6" d="M360.2,267.2h-2.1l-0.4,1.1c-0.1,0.2-0.3,0.3-0.5,0.3c-0.1,0-0.1,0-0.2,0c-0.3-0.1-0.4-0.4-0.3-0.6l0,0
			l1.9-5.1c0.1-0.3,0.4-0.4,0.7-0.3c0.1,0.1,0.2,0.1,0.3,0.3l1.9,5.1c0.1,0.3,0,0.5-0.3,0.6c-0.1,0-0.1,0-0.2,0
			c-0.2,0-0.4-0.1-0.4-0.3L360.2,267.2z M359.9,266.2l-0.7-1.9l-0.7,1.9H359.9z"/>
		<path class="st6" d="M366.8,267.9c0.1,0.2,0,0.5-0.3,0.6l0,0c-0.1,0-0.1,0-0.2,0l0,0c-0.1,0-0.2,0-0.3-0.1
			c-0.1-0.1-0.2-0.2-0.3-0.3c-0.1-0.3-0.2-0.7-0.2-1c0-0.1,0-0.3-0.1-0.4s-0.2-0.2-0.3-0.2c-0.2-0.1-0.3-0.2-0.5-0.2h-1v1.9
			c0,0.3-0.2,0.5-0.5,0.5s-0.5-0.2-0.5-0.5l0,0V263c0-0.3,0.2-0.5,0.5-0.5l0,0h1.6c1,0,1.9,0.8,1.9,1.9c0,0.6-0.2,1.1-0.7,1.4
			c0.1,0.1,0.2,0.2,0.3,0.3c0.2,0.3,0.3,0.6,0.3,0.9c0,0.2,0,0.3,0,0.5C366.6,267.6,366.7,267.8,366.8,267.9z M365.6,264.4
			c0-0.5-0.4-0.9-0.9-0.9h-1.1v1.8h1.1C365.2,265.3,365.6,264.9,365.6,264.4z"/>
		<path class="st6" d="M368.2,268.1V263c0-0.3,0.2-0.5,0.5-0.5s0.5,0.2,0.5,0.5v2.5l2.8-2.8c0.2-0.2,0.5-0.2,0.7,0l0,0
			c0.2,0.2,0.2,0.5,0,0.7l-1.9,1.9l1.9,2.5c0.2,0.2,0.1,0.5-0.1,0.7l0,0c-0.1,0.1-0.2,0.1-0.3,0.1c-0.1,0-0.3-0.1-0.4-0.2l-1.9-2.5
			l-0.9,0.9v1.2c0,0.3-0.2,0.5-0.5,0.5S368.2,268.4,368.2,268.1L368.2,268.1L368.2,268.1z"/>
		<path class="st6" d="M374.4,268.1V263c0-0.3,0.2-0.5,0.5-0.5l0,0h2.9c0.3,0,0.5,0.2,0.5,0.5s-0.2,0.5-0.5,0.5h-2.4v1.6h2
			c0.3,0,0.5,0.2,0.5,0.5s-0.2,0.5-0.5,0.5h-2v1.6h2.4c0.3,0,0.5,0.2,0.5,0.5s-0.2,0.5-0.5,0.5h-2.9
			C374.6,268.7,374.4,268.5,374.4,268.1C374.4,268.2,374.4,268.2,374.4,268.1z"/>
		<path class="st6" d="M383.3,263.5h-1.4v4.6c0,0.3-0.2,0.5-0.5,0.5l0,0c-0.3,0-0.5-0.2-0.5-0.5l0,0v-4.6h-1.4
			c-0.3,0-0.5-0.2-0.5-0.5s0.2-0.5,0.5-0.5l0,0h3.7c0.3,0,0.5,0.2,0.5,0.5l0,0C383.8,263.3,383.6,263.5,383.3,263.5z"/>
		<path class="st6" d="M360.8,260.4c-1.7,0-3-1.3-3-3c0,0,0,0,0-0.1v-3.8c0-0.3,0.2-0.6,0.6-0.6l0,0c0.3,0,0.6,0.3,0.6,0.6v3.8
			c-0.1,1,0.7,1.9,1.7,2s1.9-0.7,2-1.7c0-0.1,0-0.2,0-0.3v-3.8c0-0.3,0.3-0.6,0.6-0.6c0.3,0,0.6,0.2,0.6,0.6l0,0v3.8
			c0,1.7-1.3,3-2.9,3.1C360.9,260.4,360.8,260.4,360.8,260.4z"/>
		<path class="st6" d="M368.8,257.6h-1.3v2.3c0,0.3-0.3,0.6-0.6,0.6c-0.3,0-0.6-0.3-0.6-0.6v-6.2c0-0.3,0.3-0.6,0.6-0.6h1.9
			c1.2,0,2.3,1,2.3,2.3C371,256.5,370,257.6,368.8,257.6L368.8,257.6z M367.5,256.4h1.3c0.6,0,1.1-0.5,1.1-1.1s-0.5-1.1-1.1-1.1l0,0
			h-1.3V256.4z"/>
		<path class="st6" d="M372.4,259.9v-6.2c0-0.3,0.2-0.6,0.5-0.6l0,0h3.5c0.3,0,0.6,0.3,0.5,0.7c0,0.3-0.2,0.5-0.5,0.5h-2.9v1.9h2.5
			c0.3,0,0.6,0.3,0.6,0.6c0,0.3-0.3,0.6-0.6,0.6h-2.5v1.9h2.9c0.3,0,0.6,0.3,0.5,0.7c0,0.3-0.2,0.5-0.5,0.5H373
			C372.7,260.4,372.5,260.1,372.4,259.9z"/>
		<path class="st6" d="M383.8,259.5c0.1,0.3-0.1,0.6-0.4,0.7c-0.1,0-0.2,0-0.2,0l0,0c-0.1,0-0.3,0-0.4-0.1s-0.3-0.2-0.3-0.4
			c-0.2-0.4-0.2-0.8-0.2-1.3c0-0.2,0-0.3-0.1-0.5c-0.1-0.1-0.2-0.2-0.3-0.3c-0.2-0.1-0.4-0.2-0.6-0.2h-1.2v2.3
			c0,0.3-0.3,0.6-0.6,0.6c-0.3,0-0.6-0.3-0.6-0.6v-6.2c0-0.3,0.2-0.6,0.6-0.6l0,0h1.9c1.2,0,2.3,1,2.2,2.3l0,0
			c0,0.7-0.3,1.3-0.8,1.7c0.1,0.1,0.3,0.2,0.4,0.4c0.2,0.3,0.4,0.7,0.4,1.1c0,0.2,0,0.4,0,0.6C383.6,259.2,383.7,259.4,383.8,259.5z
			 M382.3,255.3c0-0.6-0.5-1.1-1.1-1.1l0,0h-1.3v2.2h1.3C381.8,256.4,382.3,255.9,382.3,255.3L382.3,255.3z"/>
		<path class="st8" d="M387.2,254c0.1,0.1,0.2,0.1,0.3,0.1l0.1,0.1c2.5,0.5,4.9,1.6,6.8,3.3c0.1-0.8,0.1-1.7,0.1-2.5
			c-2.1-1.4-4.7-2-7.2-1.5c0,0,0,0-0.1,0h-0.1c-0.1,0-0.2,0.1-0.2,0.2S387.1,254,387.2,254L387.2,254z"/>
		<path class="st8" d="M386.6,243.5c0.1,0,0.2,0,0.3,0h0.1c2.5-0.3,5.1,0.2,7.3,1.4c0.1,0,0.2,0.1,0.2,0.1c0-0.8,0-1.6-0.1-2.5
			c-2.6-1-5.4-0.9-7.9,0.4l0,0l-0.1,0.1c-0.1,0-0.2,0.1-0.2,0.3C386.4,243.4,386.5,243.5,386.6,243.5z"/>
		<path class="st8" d="M381,257.7c0.1,0,0.2,0,0.3,0c0,0,0.1,0.1,0.1,0c2.5-0.1,5,0.5,7.2,1.7c-0.1-0.8-0.2-1.7-0.3-2.5
			c-2.3-0.9-5-0.8-7.2,0.3c0,0,0,0,0,0.1H381c-0.1,0-0.2,0.1-0.2,0.3C380.8,257.6,380.9,257.7,381,257.7z"/>
		<path class="st8" d="M378.7,247.4c0.1,0,0.2,0,0.3,0h0.1c2.4-0.8,4.9-1,7.4-0.4l0.3,0.1c-0.1-0.8-0.3-1.6-0.5-2.4
			c-2.7-0.4-5.5,0.5-7.6,2.3c0,0,0,0,0,0.1s0,0-0.1,0.1S378.5,247.4,378.7,247.4z"/>
		<path class="st6" d="M404.1,237.3c-3.3,12-6.4,24.4-6.4,24.4c1.1,1.1,2.7,1.5,4.1,1.1c0,0,3.4-12.4,6.7-24.3
			c0.1-0.4,0.2-0.8,0.4-1.2s0.1-0.6,0.2-0.9c0.2-0.8,0.5-1.7,0.7-2.5c0.1-0.3,0.2-0.6,0.2-0.8l1.4-5c0.1-0.3,0.2-0.6,0.2-0.9
			c1.3-4.9,2.4-8.6,2.6-9.7c1.5-5.4,14.2-22.1,14.2-22.1s0.9-1.7-2.2-3c0,0-4.8,6.7-9.1,13.2l9.2-17c-0.5-1-1.5-1.6-2.6-1.7
			l-5.1,9.9l3.3-11.1c0,0-0.8-1-3.3-0.8l-5.3,20l2.3-16.8c-0.9-0.4-2-0.5-3-0.4c0,0-0.8,11.4-2.8,26l0.4-18.3
			c-0.9-0.3-2-0.3-2.8,0.2c0,0,2.1,18.7-0.2,30.3l-0.2,0.9c-0.1,0.4-0.2,0.8-0.3,1.2l0,0l-1.1,3.8l-0.2,0.8
			c-0.2,0.8-0.5,1.7-0.7,2.5c-0.1,0.3-0.2,0.6-0.2,0.8S404.2,236.9,404.1,237.3z"/>
		<path class="st10" d="M407.4,195.7c0,0,2.1,18.7-0.2,30.3l4.4,1.1c1.3-4.9,2.4-8.6,2.6-9.7c1.5-5.4,14.2-22.1,14.2-22.1
			s0.9-1.7-2.2-3c0,0-4.8,6.7-9.1,13.2l9.2-17c-0.5-1-1.5-1.6-2.6-1.7l-5.1,9.9l3.3-11.1c0,0-0.8-1-3.3-0.8l-5.3,20l2.3-16.8
			c-0.9-0.4-2-0.5-3-0.4c0,0-0.8,11.4-2.8,26l0.4-18.3C409.3,195.1,408.2,195.2,407.4,195.7z"/>
		<path class="st1" d="M405.6,231.9l4.4,1.1l1.4-5l-4.4-1.1c-0.1,0.4-0.2,0.8-0.3,1.2l0,0L405.6,231.9z"/>
		<path class="st1" d="M404.7,235.2l4.4,1.1c0.2-0.8,0.5-1.7,0.7-2.5l-4.4-1.1C405.1,233.5,404.9,234.4,404.7,235.2z"/>
		<path class="st1" d="M404.1,237.3l4.4,1.1c0.1-0.4,0.2-0.8,0.4-1.2l-4.4-1.1C404.3,236.5,404.2,236.9,404.1,237.3z"/>
		<path class="st6" d="M399.1,232.3c-1.5,12.3-3.2,25-3.2,25c-1.4,0.6-3,0.4-4.2-0.6c0,0,1.5-12.8,3-25l0.1-1.3
			c0-0.3,0.1-0.6,0.1-0.9c0.1-0.9,0.2-1.7,0.3-2.6c0-0.3,0.1-0.6,0.1-0.9c0.2-1.8,0.4-3.5,0.6-5.1c0-0.3,0.1-0.6,0.1-0.9
			c0.6-5,1-8.8,1.2-9.9c0.7-5.6-4.8-25.8-4.8-25.8s-0.2-1.9,3.2-1.9c0,0,1.9,8,3.5,15.7l-2.1-19.2c0.8-0.7,2-0.9,3-0.6l1,11.1
			l1.1-11.6c0,0,1.1-0.7,3.3,0.5l-2.6,20.5l4.2-16.4c1,0,2.1,0.2,2.9,0.8c0,0-3.5,10.8-7.2,25.1l6.5-17.1c1,0,1.9,0.5,2.5,1.3
			c0,0-9,16.6-11.2,28.2c-0.1,0.3-0.1,0.6-0.1,0.9c-0.1,0.4-0.1,0.8-0.2,1.2l0,0c-0.1,1.3-0.3,2.6-0.4,3.9c0,0.3-0.1,0.6-0.1,0.9
			c-0.1,0.9-0.2,1.7-0.3,2.6c0,0.3-0.1,0.6-0.1,0.9L399.1,232.3z"/>
		<path class="st10" d="M411.7,192.5c0,0-9,16.6-11.2,28.2L396,220c0.6-5,1-8.8,1.2-9.9c0.7-5.6-4.8-25.8-4.8-25.8s-0.2-1.9,3.2-1.9
			c0,0,1.9,8,3.5,15.7l-2.1-19.2c0.8-0.7,2-0.9,3-0.6l1,11.1l1.1-11.5c0,0,1.1-0.7,3.3,0.5l-2.6,20.5l4.2-16.4c1,0,2.1,0.2,2.9,0.8
			c0,0-3.5,10.8-7.2,25.1l6.5-17.1C410.2,191.3,411.1,191.7,411.7,192.5z"/>
		<path class="st10" d="M399.8,226.7l-4.5-0.6c0.2-1.8,0.4-3.5,0.6-5.1l4.5,0.6c-0.1,0.4-0.1,0.8-0.2,1.2l0,0
			C400,224,399.9,225.3,399.8,226.7z"/>
		<path class="st10" d="M399.4,230.1l-4.5-0.6c0.1-0.9,0.2-1.7,0.3-2.6l4.5,0.6C399.6,228.4,399.5,229.2,399.4,230.1z"/>
		<path class="st10" d="M399.1,232.3l-4.5-0.6l0.1-1.3l4.5,0.6L399.1,232.3z"/>
		<polygon class="st5" points="416.3,218.6 416.3,315.2 353.6,315.2 353.6,218.6 369.5,218.6 369.5,240.6 400.4,240.6 400.4,218.6 
					"/>
		<polygon class="st11" points="416.3,218.6 416.3,315.2 353.6,315.2 353.6,218.6 369.5,218.6 369.5,240.6 400.4,240.6 400.4,218.6 
					"/>
	</g>
	<g id="freepik--shopping-basket-2--inject-57">
		<g id="freepik--Tomato--inject-98_3_">
			<path class="st12" d="M106.4,239.6c-0.5,0-0.9,0-1.4,0.1c-0.9,0.1-1.8,0.1-2.6,0c-0.5-0.1-0.9-0.1-1.4-0.1c-4.4,0-8,3.5-8,7.8
				c0,4.3,3.6,7.8,8,7.8c0.3,0,0.6,0,0.9,0c1.2-0.1,2.5-0.1,3.7,0c0.3,0,0.6,0,0.9,0c4.4,0,8-3.5,8-7.8
				C114.4,243,110.8,239.6,106.4,239.6z"/>
			<path class="st13" d="M95.7,243.8c0.6-1.2,1.5-2.1,2.2-1.8c0.5,0.2-0.2,1.3,0.5,1.5c0.7,0.3,1.3-0.9,1.9-1s0.5,1.5,1.4,1.5
				c0.9,0,0.7-1.4,1.3-1.3c0.6,0.1,0.4,3.6-0.3,3.6c-0.5,0-0.4-1.1-1-1.1c-1,0-1.7,1.5-2.6,1.5s-0.3-1.6-0.9-1.7
				c-0.7-0.2-1.7,2.4-2.6,1.7C94.6,246.1,95.3,244.6,95.7,243.8z"/>
			<path class="st14" d="M106.4,255.1c4.4,0,8-3.5,8-7.8c0-2.1-0.9-4.1-2.4-5.5c0.5,0.4,3.8,4,0.8,8.5c-3.2,4.8-6.6,3-10.6,3.6
				c-3.9,0.6-7.7-2-7.8-2.1c1.5,2.1,4,3.3,6.6,3.3c0.3,0,0.6,0,0.9,0c1.2-0.1,2.5-0.1,3.7,0C105.8,255.1,106.1,255.1,106.4,255.1z"
				/>
			<path class="st15" d="M103.2,239.2c-1.1,0.1-2.3-2.7-3.3-2.4c0,0,1.5,1.3,1.9,2.5c0,0-4-0.7-5,0.5c0,0,5.5-0.8,5.4,0.6
				c0,0.5-1.3,0.6-1.3,1.5c0,0,1.5-1,2.5-1s1.7,1.5,1.7,1.5c-0.2-0.5-0.2-1.1,0-1.6c0.3-0.8,3.6-1.2,4.7,0c0,0-1-1.9-3.7-1.3
				c0,0,1.5-1.5,3.3-1.2c0,0-1.9-1-4,0.7c-0.4,0.4-1.1,0.4-1.6,0.1l-0.3-0.2C103.6,238.8,103.4,239.2,103.2,239.2z"/>
			<path class="st2" d="M103.4,239.4c-0.1-1,0.5-2.8-0.3-3.9c0,0,1-0.7,1.5,0.2c0.3,1.3,0.1,2.6-0.6,3.7
				C103.9,239.6,103.5,240,103.4,239.4z"/>
			<path class="st16" d="M103.4,239.4c-0.1-1,0.5-2.8-0.3-3.9c0,0,1-0.7,1.5,0.2c0.3,1.3,0.1,2.6-0.6,3.7
				C103.9,239.6,103.5,240,103.4,239.4z"/>
			<path class="st17" d="M104.6,235.7c-0.6-0.9-1.5-0.2-1.5-0.2S103.8,236.3,104.6,235.7z"/>
		</g>
		<polygon class="st5" points="51.4,259.2 135,259.2 135,248.3 51.4,248.3 51.4,248.3 		"/>
		<g id="freepik--Apple--inject-98_1_">
			<path class="st18" d="M77.2,236.5c0,0,2.3-9.5,8.5-4.5C85.8,232,82.3,236.6,77.2,236.5z"/>
			<path class="st17" d="M77.2,236.5c0,0,2.3-9.5,8.5-4.5C85.8,232,82.3,236.6,77.2,236.5z"/>
			<path class="st19" d="M82.4,232c2.2-0.5,3.1-0.2,3.3,0c-6.2-4.9-8.5,4.5-8.5,4.5S79.6,232.6,82.4,232z"/>
			<path class="st2" d="M76.6,237.7c0,0,0.8-4.2-1.4-5.9c0,0,0.4-0.8,1.7-0.3c0.6,2,0.8,4.2,0.4,6.2H76.6z"/>
			<path class="st17" d="M76.6,237.7c0,0,0.8-4.2-1.4-5.9c0,0,0.4-0.8,1.7-0.3c0.6,2,0.8,4.2,0.4,6.2H76.6z"/>
			<path class="st18" d="M81.5,235.4c-1.4,0-3.1,0.7-4.4,1.8c-1.6-1.1-3.5-1.9-4.9-1.8c-4.5,0.1-5.4,5.6-4.7,9.2
				c0.7,3.1,2.8,8.8,6.2,9.2c0.9,0.1,2.1-0.7,3.3-1.8c0.9,1.1,2.1,1.9,2.9,1.8c3.4-0.4,5.5-6,6.2-9.2C87,241.1,86,235.5,81.5,235.4z
				"/>
			<path class="st9" d="M86.4,242.1c0,3.1-2.8,6.9-5.3,6.9s-2.2-2.5-3.9-2.5s-1.6,3.8-3.5,3.8c-1.8,0-2.4-2.9-3.5-2.8
				c-0.7,0.1-1.1,1-1.3,1.6c1.1,2.4,2.6,4.5,4.7,4.7c0.9,0.1,2.1-0.7,3.3-1.8c0.9,1.1,2.1,1.9,2.9,1.8c3.4-0.4,5.5-6,6.2-9.2
				C86.3,243.8,86.4,242.9,86.4,242.1z"/>
			<path class="st13" d="M68.5,242.8c0,0,0.2-5.8,2.5-5.8C73.4,237.1,69.7,239.1,68.5,242.8z"/>
			<path class="st2" d="M76.9,231.4c-1.3-0.4-1.7,0.3-1.7,0.3S76.7,232.5,76.9,231.4z"/>
		</g>
		<g id="freepik--Apple--inject-98_2_">
			<path class="st18" d="M68.6,241.7c0,0,2.3-9.5,8.5-4.5C77.1,237.2,73.7,241.9,68.6,241.7z"/>
			<path class="st17" d="M68.6,241.7c0,0,2.3-9.5,8.5-4.5C77.1,237.2,73.7,241.9,68.6,241.7z"/>
			<path class="st19" d="M73.7,237.2c2.2-0.5,3.1-0.2,3.3,0c-6.2-4.9-8.5,4.5-8.5,4.5S70.9,237.9,73.7,237.2z"/>
			<path class="st2" d="M67.9,242.9c0,0,0.8-4.2-1.4-5.9c0,0,0.4-0.8,1.7-0.3c0.6,2,0.8,4.2,0.4,6.2H67.9z"/>
			<path class="st17" d="M67.9,242.9c0,0,0.8-4.2-1.4-5.9c0,0,0.4-0.8,1.7-0.3c0.6,2,0.8,4.2,0.4,6.2H67.9z"/>
			<path class="st18" d="M72.9,240.7c-1.4,0-3.1,0.7-4.4,1.8c-1.6-1.1-3.5-1.9-4.9-1.8c-4.5,0.1-5.4,5.6-4.7,9.2
				c0.7,3.1,2.8,8.8,6.2,9.2c0.9,0.1,2.1-0.7,3.3-1.8c0.9,1.1,2.1,1.9,2.9,1.8c3.4-0.4,5.5-6,6.2-9.2
				C78.3,246.3,77.4,240.8,72.9,240.7z"/>
			<path class="st9" d="M77.8,247.3c0,3.1-2.8,6.9-5.3,6.9c-2.5,0-2.2-2.5-3.9-2.5c-1.8,0-1.6,3.8-3.5,3.8s-2.4-2.9-3.5-2.8
				c-0.7,0.1-1.1,1-1.3,1.6c1.1,2.4,2.6,4.5,4.7,4.7c0.9,0.1,2.1-0.7,3.3-1.8c0.9,1.1,2.1,1.9,2.9,1.8c3.4-0.4,5.5-6,6.2-9.2
				C77.7,249,77.8,248.2,77.8,247.3z"/>
			<path class="st13" d="M59.9,248.1c0,0,0.2-5.8,2.5-5.8C64.7,242.4,61.1,244.3,59.9,248.1z"/>
			<path class="st2" d="M68.2,236.7c-1.3-0.4-1.7,0.3-1.7,0.3S68.1,237.7,68.2,236.7z"/>
		</g>
		<g id="freepik--Apple--inject-98_3_">
			<path class="st18" d="M90.4,238.5c0,0,2.3-9.5,8.5-4.5C98.9,234.1,95.5,238.7,90.4,238.5z"/>
			<path class="st17" d="M90.4,238.5c0,0,2.3-9.5,8.5-4.5C98.9,234.1,95.5,238.7,90.4,238.5z"/>
			<path class="st19" d="M95.5,234c2.2-0.5,3.1-0.2,3.3,0c-6.2-4.9-8.5,4.5-8.5,4.5S92.7,234.7,95.5,234z"/>
			<path class="st2" d="M89.7,239.7c0,0,0.8-4.2-1.4-5.9c0,0,0.4-0.8,1.7-0.3c0.6,2,0.8,4.2,0.4,6.2H89.7z"/>
			<path class="st17" d="M89.7,239.7c0,0,0.8-4.2-1.4-5.9c0,0,0.4-0.8,1.7-0.3c0.6,2,0.8,4.2,0.4,6.2H89.7z"/>
			<path class="st18" d="M94.7,237.5c-1.4,0-3.1,0.7-4.4,1.8c-1.6-1.1-3.5-1.9-4.9-1.8c-4.5,0.1-5.4,5.6-4.7,9.2
				c0.7,3.1,2.8,8.8,6.2,9.2c0.9,0.1,2.1-0.7,3.3-1.8c0.9,1.1,2.1,1.9,2.9,1.8c3.4-0.4,5.5-6,6.2-9.2
				C100.1,243.1,99.2,237.6,94.7,237.5z"/>
			<path class="st9" d="M99.6,244.1c0,3.1-2.8,6.9-5.3,6.9s-2.2-2.5-3.9-2.5s-1.6,3.8-3.5,3.8c-1.8,0-2.4-2.9-3.5-2.8
				c-0.7,0.1-1.1,1-1.3,1.6c1.1,2.4,2.6,4.5,4.7,4.7c0.9,0.1,2.1-0.7,3.3-1.8c0.9,1.1,2.1,1.9,2.9,1.8c3.4-0.4,5.5-6,6.2-9.2
				C99.5,245.8,99.6,245,99.6,244.1z"/>
			<path class="st13" d="M81.7,244.9c0,0,0.2-5.8,2.5-5.8C86.5,239.2,82.9,241.1,81.7,244.9z"/>
			<path class="st2" d="M90,233.5c-1.3-0.4-1.7,0.3-1.7,0.3S89.9,234.5,90,233.5z"/>
		</g>
		<g id="freepik--Apple--inject-98_4_">
			<path class="st18" d="M115.7,249.7c0,0,2.3-9.5,8.5-4.5C124.2,245.3,120.8,249.9,115.7,249.7z"/>
			<path class="st17" d="M115.7,249.7c0,0,2.3-9.5,8.5-4.5C124.2,245.3,120.8,249.9,115.7,249.7z"/>
			<path class="st19" d="M120.8,245.2c2.2-0.5,3.1-0.2,3.3,0c-6.2-4.9-8.5,4.5-8.5,4.5S118.1,245.9,120.8,245.2z"/>
			<path class="st2" d="M115,250.9c0,0,0.8-4.2-1.4-5.9c0,0,0.4-0.8,1.7-0.3c0.6,2,0.8,4.2,0.4,6.2H115z"/>
			<path class="st17" d="M115,250.9c0,0,0.8-4.2-1.4-5.9c0,0,0.4-0.8,1.7-0.3c0.6,2,0.8,4.2,0.4,6.2H115z"/>
			<path class="st18" d="M120,248.7c-1.4,0-3.1,0.7-4.4,1.8c-1.6-1.1-3.5-1.9-4.9-1.8c-4.5,0.1-5.4,5.6-4.7,9.2
				c0.7,3.1,2.8,8.8,6.2,9.2c0.9,0.1,2.1-0.7,3.3-1.8c0.9,1.1,2.1,1.9,2.9,1.8c3.4-0.4,5.5-6,6.2-9.2
				C125.5,254.3,124.5,248.8,120,248.7z"/>
			<path class="st9" d="M124.9,255.3c0,3.1-2.8,6.9-5.3,6.9c-2.5,0-2.2-2.5-3.9-2.5s-1.6,3.8-3.5,3.8c-1.8,0-2.4-2.9-3.5-2.8
				c-0.7,0.1-1.1,1-1.3,1.6c1.1,2.4,2.6,4.5,4.7,4.7c0.9,0.1,2.1-0.7,3.3-1.8c0.9,1.1,2.1,1.9,2.9,1.8c3.4-0.4,5.5-6,6.2-9.2
				C124.8,257,124.9,256.2,124.9,255.3z"/>
			<path class="st13" d="M107,256.1c0,0,0.2-5.8,2.5-5.8C111.9,250.4,108.2,252.3,107,256.1z"/>
			<path class="st2" d="M115.3,244.7c-1.3-0.4-1.7,0.3-1.7,0.3S115.2,245.7,115.3,244.7z"/>
		</g>
		<path class="st5" d="M130.7,256.9H55.6l2.5,40.2h70L130.7,256.9z M120,263c0-0.6,0.4-1,1-1h0.4c0.6,0,1,0.4,1,1v25.4
			c0,0.6-0.4,1-1,1h-0.2c-0.7,0-1.2-0.5-1.2-1.2l0,0L120,263z M113.8,263c0-0.6,0.4-1,1-1h0.4c0.6,0,1,0.4,1,1v25.2
			c0,0.7-0.5,1.2-1.2,1.2l0,0h-0.2c-0.6,0-1-0.4-1-1L113.8,263z M107.5,263.2c0-0.7,0.5-1.2,1.2-1.2l0,0c0.7,0,1.2,0.5,1.2,1.2l0,0
			v25.2c0,0.6-0.4,1-1,1h-0.4c-0.6,0-1-0.4-1-1L107.5,263.2z M101.3,263c0-0.6,0.4-1,1-1h0.4c0.6,0,1,0.4,1,1v25.4c0,0.6-0.4,1-1,1
			h-0.2c-0.7,0-1.2-0.5-1.2-1.2l0,0C101.3,288.2,101.3,263,101.3,263z M95.1,263c0-0.6,0.4-1,1-1h0.4c0.6,0,1,0.4,1,1v25.2
			c0,0.7-0.5,1.2-1.2,1.2l0,0h-0.2c-0.6,0-1-0.4-1-1L95.1,263z M88.9,263.2c0-0.7,0.5-1.2,1.2-1.2l0,0l0,0c0.7,0,1.2,0.5,1.2,1.2
			v25.2c0,0.6-0.4,1-1,1h-0.4c-0.6,0-1-0.4-1-1L88.9,263.2z M82.7,263c0-0.6,0.4-1,1-1h0.4c0.6,0,1,0.4,1,1v25.4c0,0.6-0.4,1-1,1
			h-0.2c-0.7,0-1.2-0.5-1.2-1.2l0,0L82.7,263z M76.4,263c0-0.6,0.4-1,1-1h0.4c0.6,0,1,0.4,1,1v25.2c0,0.7-0.5,1.2-1.2,1.2l0,0h-0.2
			c-0.6,0-1-0.4-1-1L76.4,263z M70.2,263.2c0-0.7,0.5-1.2,1.2-1.2l0,0l0,0c0.6,0,1.2,0.5,1.2,1.2v25.2c0,0.6-0.4,1-1,1h-0.4
			c-0.6,0-1-0.4-1-1L70.2,263.2z M64,263c0-0.6,0.4-1,1-1h0.4c0.6,0,1,0.4,1,1v25.4c0,0.6-0.4,1-1,1h-0.2c-0.7,0-1.2-0.5-1.2-1.2
			c0,0,0,0,0-0.1C64,288.1,64,263,64,263z"/>
		<circle class="st5" cx="93.2" cy="252.5" r="8.1"/>
		<polygon class="st7" points="121.3,271.9 65,271.9 56.2,249.2 58.1,248.5 66.4,269.9 120,269.9 128.3,248.5 130.2,249.2 		"/>
	</g>
	<g id="freepik--shopping-basket-1--inject-57">
		<polygon class="st5" points="179.4,403.1 96,403.1 96,392.2 179.4,392.2 179.4,392.2 		"/>
		<polygon class="st9" points="179.4,403.1 96,403.1 96,392.2 179.4,392.2 179.4,392.2 		"/>
		<path class="st5" d="M102.8,440.9h69.9l2.5-40.1h-74.9L102.8,440.9z M111,432c0,0.7-0.5,1.2-1.2,1.2l0,0h-0.2c-0.6,0-1-0.4-1-1
			v-25.4c0-0.6,0.4-1,1-1h0.4c0.6,0,1,0.4,1,1C111,406.8,111,432,111,432z M117.2,432.2c0,0.6-0.4,1-1,1H116c-0.7,0-1.2-0.5-1.2-1.2
			l0,0v-25.2c0-0.6,0.4-1,1-1h0.4c0.6,0,1,0.4,1,1C117.2,406.8,117.2,432.2,117.2,432.2z M123.4,432.2c0,0.6-0.4,1-1,1H122
			c-0.6,0-1-0.4-1-1V407c0-0.7,0.5-1.2,1.2-1.2l0,0l0,0c0.7,0,1.2,0.5,1.2,1.2L123.4,432.2z M129.6,432c0,0.7-0.5,1.2-1.2,1.2l0,0
			h-0.2c-0.6,0-1-0.4-1-1v-25.4c0-0.6,0.4-1,1-1h0.4c0.6,0,1,0.4,1,1V432z M135.8,432.2c0,0.6-0.4,1-1,1h-0.2
			c-0.7,0-1.2-0.5-1.2-1.2l0,0v-25.2c0-0.6,0.4-1,1-1h0.4c0.6,0,1,0.4,1,1V432.2z M142,432.2c0,0.6-0.4,1-1,1h-0.4c-0.6,0-1-0.4-1-1
			V407c0-0.6,0.5-1.2,1.2-1.2l0,0c0.6,0,1.2,0.5,1.2,1.2V432.2z M148.3,432c0,0.7-0.5,1.2-1.2,1.2l0,0h-0.2c-0.6,0-1-0.4-1-1v-25.4
			c0-0.6,0.4-1,1-1h0.4c0.6,0,1,0.4,1,1V432z M154.5,432.2c0,0.6-0.4,1-1,1h-0.2c-0.7,0-1.2-0.5-1.2-1.2l0,0v-25.2c0-0.6,0.4-1,1-1
			h0.4c0.6,0,1,0.4,1,1V432.2z M160.7,432.2c0,0.6-0.4,1-1,1h-0.4c-0.6,0-1-0.4-1-1V407c0-0.7,0.5-1.2,1.2-1.2l0,0
			c0.7,0,1.2,0.5,1.2,1.2l0,0V432.2z M166.9,432c0,0.7-0.5,1.2-1.2,1.2l0,0h-0.2c-0.6,0-1-0.4-1-1v-25.4c0-0.6,0.4-1,1-1h0.4
			c0.6,0,1,0.4,1,1V432z"/>
		<path class="st9" d="M102.8,440.9h69.9l2.5-40.1h-74.9L102.8,440.9z M111,432c0,0.7-0.5,1.2-1.2,1.2l0,0h-0.2c-0.6,0-1-0.4-1-1
			v-25.4c0-0.6,0.4-1,1-1h0.4c0.6,0,1,0.4,1,1C111,406.8,111,432,111,432z M117.2,432.2c0,0.6-0.4,1-1,1H116c-0.7,0-1.2-0.5-1.2-1.2
			l0,0v-25.2c0-0.6,0.4-1,1-1h0.4c0.6,0,1,0.4,1,1C117.2,406.8,117.2,432.2,117.2,432.2z M123.4,432.2c0,0.6-0.4,1-1,1H122
			c-0.6,0-1-0.4-1-1V407c0-0.7,0.5-1.2,1.2-1.2l0,0l0,0c0.7,0,1.2,0.5,1.2,1.2L123.4,432.2z M129.6,432c0,0.7-0.5,1.2-1.2,1.2l0,0
			h-0.2c-0.6,0-1-0.4-1-1v-25.4c0-0.6,0.4-1,1-1h0.4c0.6,0,1,0.4,1,1V432z M135.8,432.2c0,0.6-0.4,1-1,1h-0.2
			c-0.7,0-1.2-0.5-1.2-1.2l0,0v-25.2c0-0.6,0.4-1,1-1h0.4c0.6,0,1,0.4,1,1V432.2z M142,432.2c0,0.6-0.4,1-1,1h-0.4c-0.6,0-1-0.4-1-1
			V407c0-0.6,0.5-1.2,1.2-1.2l0,0c0.6,0,1.2,0.5,1.2,1.2V432.2z M148.3,432c0,0.7-0.5,1.2-1.2,1.2l0,0h-0.2c-0.6,0-1-0.4-1-1v-25.4
			c0-0.6,0.4-1,1-1h0.4c0.6,0,1,0.4,1,1V432z M154.5,432.2c0,0.6-0.4,1-1,1h-0.2c-0.7,0-1.2-0.5-1.2-1.2l0,0v-25.2c0-0.6,0.4-1,1-1
			h0.4c0.6,0,1,0.4,1,1V432.2z M160.7,432.2c0,0.6-0.4,1-1,1h-0.4c-0.6,0-1-0.4-1-1V407c0-0.7,0.5-1.2,1.2-1.2l0,0
			c0.7,0,1.2,0.5,1.2,1.2l0,0V432.2z M166.9,432c0,0.7-0.5,1.2-1.2,1.2l0,0h-0.2c-0.6,0-1-0.4-1-1v-25.4c0-0.6,0.4-1,1-1h0.4
			c0.6,0,1,0.4,1,1V432z"/>
		<ellipse class="st5" cx="137.7" cy="396.4" rx="8.1" ry="8.1"/>
		<ellipse class="st9" cx="137.7" cy="396.4" rx="8.1" ry="8.1"/>
		<polygon class="st7" points="165.8,415.8 109.6,415.8 100.8,393.1 102.7,392.4 111,413.8 164.5,413.8 172.8,392.4 174.6,393.1 		
			"/>
		<g id="freepik--Tomato--inject-98_2_">
			<path class="st12" d="M129.3,390.8c-0.5,0-0.9,0-1.4,0.1c-0.9,0.1-1.8,0.1-2.6,0c-0.5-0.1-0.9-0.1-1.4-0.1c-4.4,0-8,3.5-8,7.8
				c0,4.3,3.6,7.8,8,7.8c0.3,0,0.6,0,0.9,0c1.2-0.1,2.5-0.1,3.7,0c0.3,0,0.6,0,0.9,0c4.4,0,8-3.5,8-7.8S133.8,390.8,129.3,390.8z"/>
			<path class="st13" d="M118.6,395c0.6-1.2,1.5-2.1,2.2-1.8c0.5,0.2-0.2,1.3,0.5,1.5s1.3-0.9,1.9-1c0.7-0.1,0.5,1.5,1.4,1.5
				c0.9,0,0.7-1.4,1.3-1.3c0.6,0.1,0.4,3.6-0.3,3.6c-0.5,0-0.4-1.1-1-1.1c-1,0-1.7,1.5-2.6,1.5c-0.9,0-0.3-1.6-0.9-1.7
				c-0.7-0.2-1.7,2.4-2.6,1.7C117.5,397.3,118.2,395.8,118.6,395z"/>
			<path class="st14" d="M129.3,406.3c4.4,0,8-3.5,8-7.8c0-2.1-0.9-4.1-2.4-5.5c0.5,0.4,3.8,4,0.8,8.5c-3.2,4.8-6.6,3-10.6,3.6
				c-3.9,0.6-7.7-2-7.8-2.1c1.5,2.1,4,3.3,6.6,3.3c0.3,0,0.6,0,0.9,0c1.2-0.1,2.5-0.1,3.7,0C128.8,406.3,129.1,406.3,129.3,406.3z"
				/>
			<path class="st15" d="M126.1,390.4c-1.1,0.1-2.3-2.7-3.3-2.4c0,0,1.5,1.3,1.9,2.5c0,0-4-0.7-5,0.5c0,0,5.5-0.8,5.4,0.6
				c0,0.5-1.3,0.6-1.3,1.5c0,0,1.5-1,2.5-1c1,0,1.7,1.5,1.7,1.5c-0.2-0.5-0.2-1.1,0-1.6c0.3-0.8,3.6-1.2,4.7,0c0,0-1-1.9-3.7-1.3
				c0,0,1.5-1.5,3.3-1.2c0,0-1.9-1-4,0.7c-0.4,0.4-1.1,0.4-1.6,0.1l-0.3-0.2C126.5,390,126.3,390.4,126.1,390.4z"/>
			<path class="st2" d="M126.3,390.7c-0.1-1,0.5-2.8-0.3-3.9c0,0,1-0.7,1.5,0.2c0.3,1.3,0.1,2.6-0.6,3.7
				C126.9,390.8,126.4,391.2,126.3,390.7z"/>
			<path class="st16" d="M126.3,390.7c-0.1-1,0.5-2.8-0.3-3.9c0,0,1-0.7,1.5,0.2c0.3,1.3,0.1,2.6-0.6,3.7
				C126.9,390.8,126.4,391.2,126.3,390.7z"/>
			<path class="st17" d="M127.5,386.9c-0.6-0.9-1.5-0.2-1.5-0.2S126.8,387.5,127.5,386.9z"/>
		</g>
		<g id="freepik--Apple--inject-98">
			<path class="st18" d="M138.3,423.1c0,0,2.3-9.5,8.5-4.5C146.8,418.6,143.4,423.3,138.3,423.1z"/>
			<path class="st17" d="M138.3,423.1c0,0,2.3-9.5,8.5-4.5C146.8,418.6,143.4,423.3,138.3,423.1z"/>
			<path class="st19" d="M143.4,418.6c2.2-0.5,3.1-0.2,3.3,0c-6.2-4.9-8.5,4.5-8.5,4.5S140.7,419.3,143.4,418.6z"/>
			<path class="st2" d="M137.7,424.3c0,0,0.8-4.2-1.4-5.9c0,0,0.4-0.8,1.7-0.3c0.6,2,0.8,4.2,0.4,6.2H137.7z"/>
			<path class="st17" d="M137.7,424.3c0,0,0.8-4.2-1.4-5.9c0,0,0.4-0.8,1.7-0.3c0.6,2,0.8,4.2,0.4,6.2H137.7z"/>
			<path class="st18" d="M142.6,422.1c-1.4,0-3.1,0.7-4.4,1.8c-1.6-1.1-3.5-1.9-4.9-1.8c-4.5,0.1-5.4,5.6-4.7,9.2
				c0.7,3.1,2.8,8.8,6.2,9.2c0.9,0.1,2.1-0.7,3.3-1.8c0.9,1.1,2.1,1.9,2.9,1.8c3.4-0.4,5.5-6,6.2-9.2
				C148.1,427.7,147.1,422.2,142.6,422.1z"/>
			<path class="st9" d="M147.5,428.7c0,3.1-2.8,6.9-5.3,6.9c-2.5,0-2.2-2.5-3.9-2.5c-1.8,0-1.6,3.8-3.5,3.8s-2.4-2.9-3.5-2.8
				c-0.7,0.1-1.1,1-1.3,1.6c1.1,2.4,2.6,4.5,4.7,4.7c0.9,0.1,2.1-0.7,3.3-1.8c0.9,1.1,2.1,1.9,2.9,1.8c3.4-0.4,5.5-6,6.2-9.2
				C147.4,430.4,147.5,429.6,147.5,428.7z"/>
			<path class="st13" d="M129.6,429.5c0,0,0.2-5.8,2.5-5.8C134.5,423.8,130.8,425.7,129.6,429.5z"/>
			<path class="st2" d="M137.9,418.1c-1.3-0.4-1.7,0.3-1.7,0.3S137.8,419.1,137.9,418.1z"/>
		</g>
		<g id="freepik--Apple--inject-98_5_">
			<path class="st18" d="M147.4,403.4c0,0,2.3-9.5,8.5-4.5C155.9,398.9,152.5,403.6,147.4,403.4z"/>
			<path class="st17" d="M147.4,403.4c0,0,2.3-9.5,8.5-4.5C155.9,398.9,152.5,403.6,147.4,403.4z"/>
			<path class="st19" d="M152.5,398.9c2.2-0.5,3.1-0.2,3.3,0c-6.2-4.9-8.5,4.5-8.5,4.5S149.8,399.6,152.5,398.9z"/>
			<path class="st2" d="M146.7,404.6c0,0,0.8-4.2-1.4-5.9c0,0,0.4-0.8,1.7-0.3c0.6,2,0.8,4.2,0.4,6.2H146.7z"/>
			<path class="st17" d="M146.7,404.6c0,0,0.8-4.2-1.4-5.9c0,0,0.4-0.8,1.7-0.3c0.6,2,0.8,4.2,0.4,6.2H146.7z"/>
			<path class="st18" d="M151.7,402.4c-1.4,0-3.1,0.7-4.4,1.8c-1.6-1.1-3.5-1.9-4.9-1.8c-4.5,0.1-5.4,5.6-4.7,9.2
				c0.7,3.1,2.8,8.8,6.2,9.2c0.9,0.1,2.1-0.7,3.3-1.8c0.9,1.1,2.1,1.9,2.9,1.8c3.4-0.4,5.5-6,6.2-9.2
				C157.1,408,156.2,402.5,151.7,402.4z"/>
			<path class="st9" d="M156.6,409c0,3.1-2.8,6.9-5.3,6.9c-2.5,0-2.2-2.5-3.9-2.5s-1.6,3.8-3.5,3.8s-2.4-2.9-3.5-2.8
				c-0.7,0.1-1.1,1-1.3,1.6c1.1,2.4,2.6,4.5,4.7,4.7c0.9,0.1,2.1-0.7,3.3-1.8c0.9,1.1,2.1,1.9,2.9,1.8c3.4-0.4,5.5-6,6.2-9.2
				C156.5,410.7,156.6,409.9,156.6,409z"/>
			<path class="st13" d="M138.7,409.8c0,0,0.2-5.8,2.5-5.8C143.5,404.1,139.9,406,138.7,409.8z"/>
			<path class="st2" d="M147,398.4c-1.3-0.4-1.7,0.3-1.7,0.3S146.9,399.4,147,398.4z"/>
		</g>
		<g id="freepik--Broccoli--inject-98_1_">
			<path class="st18" d="M183,395.8c1.4-1.3,1.6-3.4,0.3-4.9c0,0,0,0,0,0c-0.2-0.3-0.5-0.5-0.8-0.7l0.1-0.1c2-1.8,2.3-4.9,0.5-6.9
				c-1.2-1.3-2.9-1.9-4.6-1.6c-0.2-0.8-0.5-1.6-1.1-2.3c-1.8-2-4.9-2.2-6.9-0.5c-0.5,0.4-0.8,0.9-1.1,1.5c-1.3-0.8-2.9-0.6-4.1,0.4
				c-0.8,0.7-1.2,1.7-1.2,2.8c-1.9-0.4-3.7,0.9-4.1,2.7c-0.2,0.8,0,1.6,0.4,2.4c-0.7,2.7,0.9,5.5,3.6,6.2c0.9,0.2,1.8,0.2,2.7,0
				c0,1.9,1.6,3.4,3.5,3.4c0.6,0,1.1-0.1,1.6-0.4c0.2,0.4,0.4,0.8,0.7,1.1c1.6,1.9,4.4,2,6.3,0.4c0.8-0.7,1.3-1.7,1.5-2.7
				C181.3,396.7,182.2,396.4,183,395.8z"/>
			<path class="st9" d="M178,399.9c3.8-4.2-0.9-7.6-0.9-7.6c0.1-5.8-4.4-4.6-4.4-4.6c-2.5-4-5.3,0.1-5.3,0.1l-4,1l-2.3,4
				c0.1,0.1,0.2,0.3,0.3,0.4c1.3,1.5,3.4,2.1,5.3,1.5c0,1.9,1.6,3.4,3.5,3.4c0.6,0,1.1-0.1,1.6-0.4c0.2,0.4,0.4,0.8,0.7,1.1
				C173.9,400.5,176.2,400.9,178,399.9z"/>
			<path class="st18" d="M174.6,392.9c1.4-1.9,1-4.6-0.9-6.1c-0.7-0.5-1.5-0.8-2.4-0.9c0.1-3.2-2.3-5.9-5.4-6.2
				c0.3-3.4-2.1-6.4-5.4-6.7c-2.1-0.2-4.2,0.7-5.5,2.4c-0.5,0.6-0.8,1.3-1,2.1c-2.3-0.8-4.7,0.4-5.5,2.7c-0.3,0.8-0.3,1.7-0.1,2.5
				c-2.4,0.1-4.3,2-4.2,4.4c0,1.3,0.7,2.5,1.7,3.3c0.5,0.3,1,0.6,1.5,0.7c0.1,3.5,3.1,6.2,6.6,6.1c1.3,0,2.5-0.5,3.5-1.2l0.2,0.2
				c1.4,1,3.2,1.2,4.7,0.3c0.1,0.1,0.2,0.2,0.3,0.2c1.9,1.4,4.6,1.1,6.1-0.8c0.4-0.5,0.7-1.1,0.8-1.8
				C171.3,395.1,173.4,394.5,174.6,392.9z"/>
			<path class="st13" d="M174.6,392.9c1.4-1.9,1-4.6-0.9-6.1c-0.7-0.5-1.5-0.8-2.4-0.9c0.1-3.2-2.3-5.9-5.4-6.2
				c0.3-3.4-2.1-6.4-5.4-6.7c-2.1-0.2-4.2,0.7-5.5,2.4c-0.5,0.6-0.8,1.3-1,2.1c-2.3-0.8-4.7,0.4-5.5,2.7c-0.3,0.8-0.3,1.7-0.1,2.5
				c-2.4,0.1-4.3,2-4.2,4.4c0,1.3,0.7,2.5,1.7,3.3c0.5,0.3,1,0.6,1.5,0.7c0.1,3.5,3.1,6.2,6.6,6.1c1.3,0,2.5-0.5,3.5-1.2l0.2,0.2
				c1.4,1,3.2,1.2,4.7,0.3c0.1,0.1,0.2,0.2,0.3,0.2c1.9,1.4,4.6,1.1,6.1-0.8c0.4-0.5,0.7-1.1,0.8-1.8
				C171.3,395.1,173.4,394.5,174.6,392.9z"/>
			<path class="st9" d="M167.8,389c0,0-0.7-3.9-3.7-4.3c-4.1-0.6-6.5,5.1-6.5,5.1s-5.7-2.4-8,0.4s0.2,5.9,0.2,5.9
				c2.2,1.7,5.3,1.7,7.6,0.1l0.2,0.2c1.4,1,3.2,1.2,4.7,0.3c0.1,0.1,0.2,0.2,0.3,0.2c1.9,1.4,4.6,1.1,6.1-0.8
				c0.4-0.5,0.7-1.1,0.8-1.8c1.8,0.8,4,0.2,5.2-1.4C176.6,386.9,167.8,389,167.8,389z"/>
			<path class="st18" d="M150.3,392.1c0,0,7.6,7.5,1.6,24.1c0,0,3.9,9.3,14.2,3c0,0-2-16.7,12-22.9c-0.1-1.1-0.9-2.1-1.9-2.5
				c0,0-5.8,6.1-8,5.2s4.3-6.9,4.3-6.9s-2.1-2.4-4-1.9c0,0-2.4,5.9-5.1,5.6c-2.8-0.3-1.6-6.5-1.6-6.5c-1.3-0.6-2.7-0.4-3.8,0.5
				c0,0,1,6.2-0.3,6.3c-1.4,0.1-3.7-5.7-3.7-5.7S152.1,389.9,150.3,392.1z"/>
			<path class="st11" d="M150.3,392.1c0,0,7.6,7.5,1.6,24.1c0,0,3.9,9.3,14.2,3c0,0-2-16.7,12-22.9c-0.1-1.1-0.9-2.1-1.9-2.5
				c0,0-5.8,6.1-8,5.2s4.3-6.9,4.3-6.9s-2.1-2.4-4-1.9c0,0-2.4,5.9-5.1,5.6c-2.8-0.3-1.6-6.5-1.6-6.5c-1.3-0.6-2.7-0.4-3.8,0.5
				c0,0,1,6.2-0.3,6.3c-1.4,0.1-3.7-5.7-3.7-5.7S152.1,389.9,150.3,392.1z"/>
			<path class="st19" d="M166,419.2c-7-8.8-14.2-3-14.2-3S155.8,425.6,166,419.2z"/>
			<path class="st9" d="M157.9,411.9c0,0,3.2-10.3,1.2-13.7C157.1,394.7,159,405.1,157.9,411.9z"/>
			<path class="st9" d="M162,409.5c0,0,3-10.1,4.8-9.5C168.6,400.7,165,403,162,409.5z"/>
			<path class="st9" d="M161.3,403.5c0,0,0.6-6.5,1.7-6.3S161.3,403.5,161.3,403.5z"/>
			<path class="st9" d="M161.3,412.4c-0.5-3.8-3.7,2.9-4.7-0.2c-0.6-1.8-2.4-0.6-3.7,0.8c-0.3,1-0.6,2.1-1,3.2c0,0,3.9,9.3,14.2,3
				c0,0-1.2-9.7,4.5-17.1l0,0C166.1,406.3,161.8,416.2,161.3,412.4z"/>
		</g>
		<g id="freepik--Tomato--inject-98">
			<path class="st12" d="M121.2,424.8c-0.5,0-0.9,0-1.4,0.1c-0.9,0.1-1.8,0.1-2.6,0c-0.5-0.1-0.9-0.1-1.4-0.1c-4.4,0-8,3.5-8,7.8
				s3.6,7.8,8,7.8c0.3,0,0.6,0,0.9,0c1.2-0.1,2.5-0.1,3.7,0c0.3,0,0.6,0,0.9,0c4.4,0,8-3.5,8-7.8S125.6,424.8,121.2,424.8z"/>
			<path class="st13" d="M110.4,429c0.6-1.2,1.5-2.1,2.2-1.8c0.5,0.2-0.2,1.3,0.5,1.5s1.3-0.9,1.9-1c0.7-0.1,0.5,1.5,1.4,1.5
				c0.9,0,0.7-1.4,1.3-1.3c0.6,0.1,0.4,3.6-0.3,3.6c-0.5,0-0.4-1.1-1-1.1c-1,0-1.7,1.5-2.6,1.5s-0.3-1.6-0.9-1.7
				c-0.7-0.2-1.7,2.4-2.6,1.7S110,429.8,110.4,429z"/>
			<path class="st14" d="M121.2,440.3c4.4,0,8-3.5,8-7.8c0-2.1-0.9-4.1-2.4-5.5c0.5,0.4,3.8,4,0.8,8.5c-3.2,4.8-6.6,3-10.6,3.6
				c-3.9,0.6-7.7-2-7.8-2.1c1.5,2.1,4,3.3,6.6,3.3c0.3,0,0.6,0,0.9,0c1.2-0.1,2.5-0.1,3.7,0C120.6,440.3,120.9,440.3,121.2,440.3z"
				/>
			<path class="st15" d="M117.9,424.4c-1.1,0.1-2.3-2.7-3.3-2.4c0,0,1.5,1.3,1.9,2.5c0,0-4-0.7-5,0.5c0,0,5.5-0.8,5.4,0.6
				c0,0.5-1.3,0.6-1.3,1.5c0,0,1.5-1,2.5-1c1,0,1.7,1.5,1.7,1.5c-0.2-0.5-0.2-1.1,0-1.6c0.3-0.8,3.6-1.2,4.7,0c0,0-1-1.9-3.7-1.3
				c0,0,1.5-1.5,3.3-1.2c0,0-1.9-1-4,0.7c-0.4,0.4-1.1,0.4-1.6,0.1l-0.3-0.2C118.3,424.1,118.2,424.4,117.9,424.4z"/>
			<path class="st2" d="M118.1,424.7c-0.1-1,0.5-2.8-0.3-3.9c0,0,1-0.7,1.5,0.2c0.3,1.3,0.1,2.6-0.6,3.7
				C118.7,424.9,118.2,425.3,118.1,424.7z"/>
			<path class="st16" d="M118.1,424.7c-0.1-1,0.5-2.8-0.3-3.9c0,0,1-0.7,1.5,0.2c0.3,1.3,0.1,2.6-0.6,3.7
				C118.7,424.9,118.2,425.3,118.1,424.7z"/>
			<path class="st17" d="M119.4,421c-0.6-0.9-1.5-0.2-1.5-0.2S118.6,421.6,119.4,421z"/>
		</g>
		<g id="freepik--Tomato--inject-98_1_">
			<path class="st12" d="M154.2,390.5c-0.5,0-0.9,0-1.4,0.1c-0.9,0.1-1.8,0.1-2.6,0c-0.5-0.1-0.9-0.1-1.4-0.1c-4.4,0-8,3.5-8,7.8
				s3.6,7.8,8,7.8c0.3,0,0.6,0,0.9,0c1.2-0.1,2.5-0.1,3.7,0c0.3,0,0.6,0,0.9,0c4.4,0,8-3.5,8-7.8S158.6,390.5,154.2,390.5z"/>
			<path class="st13" d="M143.5,394.7c0.6-1.2,1.5-2.1,2.2-1.8c0.5,0.2-0.2,1.3,0.5,1.5s1.3-0.9,1.9-1c0.7-0.1,0.5,1.5,1.4,1.5
				c0.9,0,0.7-1.4,1.3-1.3c0.6,0.1,0.4,3.6-0.3,3.6c-0.5,0-0.4-1.1-1-1.1c-1,0-1.7,1.5-2.6,1.5s-0.3-1.6-0.9-1.7
				c-0.7-0.2-1.7,2.4-2.6,1.7C142.4,397,143.1,395.5,143.5,394.7z"/>
			<path class="st14" d="M154.2,406c4.4,0,8-3.5,8-7.8c0-2.1-0.9-4.1-2.4-5.5c0.5,0.4,3.8,4,0.8,8.5c-3.2,4.8-6.6,3-10.6,3.6
				c-3.9,0.6-7.7-2-7.8-2.1c1.5,2.1,4,3.3,6.6,3.3c0.3,0,0.6,0,0.9,0c1.2-0.1,2.5-0.1,3.7,0C153.6,406,153.9,406,154.2,406z"/>
			<path class="st15" d="M150.9,390.1c-1.1,0.1-2.3-2.7-3.3-2.4c0,0,1.5,1.3,1.9,2.5c0,0-4-0.7-5,0.5c0,0,5.5-0.8,5.4,0.6
				c0,0.5-1.3,0.6-1.3,1.5c0,0,1.5-1,2.5-1c1,0,1.7,1.5,1.7,1.5c-0.2-0.5-0.2-1.1,0-1.6c0.3-0.8,3.6-1.2,4.7,0c0,0-1-1.9-3.7-1.3
				c0,0,1.5-1.5,3.3-1.2c0,0-1.9-1-4,0.7c-0.4,0.4-1.1,0.4-1.6,0.1l-0.3-0.2C151.3,389.7,151.2,390.1,150.9,390.1z"/>
			<path class="st2" d="M151.2,390.4c-0.1-1,0.5-2.8-0.3-3.9c0,0,1-0.7,1.5,0.2c0.3,1.3,0.1,2.6-0.6,3.7
				C151.7,390.5,151.2,390.9,151.2,390.4z"/>
			<path class="st16" d="M151.2,390.4c-0.1-1,0.5-2.8-0.3-3.9c0,0,1-0.7,1.5,0.2c0.3,1.3,0.1,2.6-0.6,3.7
				C151.7,390.5,151.2,390.9,151.2,390.4z"/>
			<path class="st17" d="M152.4,386.6c-0.6-0.9-1.5-0.2-1.5-0.2S151.6,387.2,152.4,386.6z"/>
		</g>
		<g id="freepik--Broccoli--inject-98">
			<path class="st18" d="M131.3,386.6c0.7-1.8-0.1-3.8-1.9-4.5c0,0,0,0,0,0c-0.3-0.1-0.7-0.2-1-0.2l0.1-0.1c1-2.5-0.2-5.4-2.7-6.4
				c-1.6-0.7-3.5-0.4-4.9,0.7c-0.5-0.7-1.2-1.2-2-1.5c-2.5-1-5.4,0.2-6.4,2.7c-0.2,0.6-0.3,1.2-0.3,1.8c-1.5-0.1-2.9,0.8-3.5,2.1
				c-0.4,1-0.3,2.1,0.2,3c-1.8,0.5-2.9,2.4-2.4,4.3c0.2,0.8,0.7,1.5,1.4,1.9c0.6,2.7,3.3,4.5,6,3.9c0.9-0.2,1.7-0.6,2.4-1.3
				c0.9,1.7,3,2.4,4.7,1.5c0.5-0.3,0.9-0.6,1.3-1.1c0.3,0.3,0.7,0.5,1.2,0.7c2.3,0.9,4.9-0.2,5.8-2.4c0.4-1,0.4-2.1,0.1-3.1
				C130.2,388.2,130.9,387.5,131.3,386.6z"/>
			<path class="st9" d="M128.7,392.6c1.5-5.5-4.3-6.4-4.3-6.4c-2.5-5.2-6-2.2-6-2.2c-4.1-2.5-4.6,2.5-4.6,2.5l-3.1,2.7l-0.2,4.6
				c0.2,0.1,0.3,0.2,0.5,0.2c1.8,0.8,3.9,0.4,5.4-1c0.9,1.7,3,2.4,4.7,1.5c0.5-0.3,0.9-0.6,1.3-1.1c0.3,0.3,0.7,0.5,1.2,0.7
				C125.3,394.9,127.5,394.2,128.7,392.6z"/>
			<path class="st18" d="M122.5,387.8c0.4-2.4-1.1-4.6-3.5-5c-0.9-0.2-1.7,0-2.5,0.3c-1.4-2.9-4.7-4.2-7.6-3.1
				c-1.2-3.2-4.7-4.7-7.9-3.6c-2,0.8-3.5,2.5-3.9,4.6c-0.1,0.8-0.1,1.6,0,2.3c-2.4,0.3-4,2.5-3.7,4.9c0.1,0.8,0.5,1.6,1,2.3
				c-2.1,1.1-2.9,3.8-1.8,5.9c0.6,1.2,1.7,2,3,2.2c0.6,0.1,1.1,0.1,1.7,0c1.7,3.1,5.5,4.2,8.6,2.5c1.1-0.6,2-1.5,2.6-2.7l0.3,0.1
				c1.7,0.3,3.4-0.4,4.4-1.8c0.1,0,0.2,0.1,0.4,0.1c2.4,0.4,4.6-1.1,5-3.5c0.1-0.7,0.1-1.3-0.1-2
				C120.5,391.2,122.2,389.8,122.5,387.8z"/>
			<path class="st13" d="M122.5,387.8c0.4-2.4-1.1-4.6-3.5-5c-0.9-0.2-1.7,0-2.5,0.3c-1.4-2.9-4.7-4.2-7.6-3.1
				c-1.2-3.2-4.7-4.7-7.9-3.6c-2,0.8-3.5,2.5-3.9,4.6c-0.1,0.8-0.1,1.6,0,2.3c-2.4,0.3-4,2.5-3.7,4.9c0.1,0.8,0.5,1.6,1,2.3
				c-2.1,1.1-2.9,3.8-1.8,5.9c0.6,1.2,1.7,2,3,2.2c0.6,0.1,1.1,0.1,1.7,0c1.7,3.1,5.5,4.2,8.6,2.5c1.1-0.6,2-1.5,2.6-2.7l0.3,0.1
				c1.7,0.3,3.4-0.4,4.4-1.8c0.1,0,0.2,0.1,0.4,0.1c2.4,0.4,4.6-1.1,5-3.5c0.1-0.7,0.1-1.3-0.1-2
				C120.5,391.2,122.2,389.8,122.5,387.8z"/>
			<path class="st9" d="M114.7,387.4c0,0-2.3-3.2-5.3-2.2c-4,1.3-3.5,7.5-3.5,7.5s-6.2,0.4-6.9,4c-0.8,3.5,2.8,5.2,2.8,5.2
				c2.8,0.5,5.5-0.9,6.8-3.4l0.3,0.1c1.7,0.3,3.4-0.4,4.4-1.8c0.1,0,0.2,0.1,0.4,0.1c2.4,0.4,4.6-1.1,5-3.5c0.1-0.7,0.1-1.3-0.1-2
				c2-0.1,3.6-1.6,4-3.5C121.7,381.6,114.7,387.4,114.7,387.4z"/>
			<path class="st18" d="M100.5,398c0,0,10.1,3.3,12.2,20.9c0,0,7.7,6.6,14-3.7c0,0-9.3-14.1,0.4-25.9c-0.6-1-1.7-1.5-2.9-1.4
				c0,0-2.5,8.1-4.8,8.2s0.8-8.1,0.8-8.1s-3-1.2-4.4,0.1c0,0,0.5,6.3-2.1,7.3c-2.6,1-4.3-5.1-4.3-5.1c-1.4,0-2.6,0.9-3.2,2.1
				c0,0,3.7,5.1,2.5,5.8s-5.8-3.4-5.8-3.4S101,395.2,100.5,398z"/>
			<path class="st11" d="M100.5,398c0,0,10.1,3.3,12.2,20.9c0,0,7.7,6.6,14-3.7c0,0-9.3-14.1,0.4-25.9c-0.6-1-1.7-1.5-2.9-1.4
				c0,0-2.5,8.1-4.8,8.2s0.8-8.1,0.8-8.1s-3-1.2-4.4,0.1c0,0,0.5,6.3-2.1,7.3c-2.6,1-4.3-5.1-4.3-5.1c-1.4,0-2.6,0.9-3.2,2.1
				c0,0,3.7,5.1,2.5,5.8s-5.8-3.4-5.8-3.4S101,395.2,100.5,398z"/>
			<path class="st19" d="M126.6,415.1c-10.2-4.7-14,3.7-14,3.7S120.4,425.4,126.6,415.1z"/>
			<path class="st9" d="M116.1,412.3c0,0-1.8-10.6-5.1-12.8C107.7,397.3,114,405.8,116.1,412.3z"/>
			<path class="st9" d="M118.7,408.3c0,0-1.9-10.4,0-10.6C120.6,397.5,118.5,401.1,118.7,408.3z"/>
			<path class="st9" d="M115.3,403.2c0,0-2.4-6.1-1.3-6.4C115.2,396.6,115.3,403.2,115.3,403.2z"/>
			<path class="st9" d="M119.4,411.2c-2.1-3.2-2,4.2-4.3,1.9c-1.3-1.3-2.4,0.6-3,2.3c0.2,1.1,0.4,2.2,0.5,3.4c0,0,7.7,6.6,14-3.7
				c0,0-5.4-8.1-3.7-17.3l0,0C120.9,403.6,121.5,414.4,119.4,411.2z"/>
		</g>
		<polygon class="st5" points="179.6,410.6 96.2,410.6 96.2,399.8 179.6,399.8 179.6,399.8 		"/>
		<path class="st5" d="M103,448.4h69.9l2.5-40.1h-74.9L103,448.4z M111.2,439.5c0,0.7-0.5,1.2-1.2,1.2l0,0h-0.2c-0.6,0-1-0.4-1-1
			v-25.3c0-0.6,0.4-1,1-1h0.4c0.6,0,1,0.4,1,1L111.2,439.5z M117.4,439.7c0,0.6-0.4,1-1,1h-0.2c-0.7,0-1.2-0.5-1.2-1.2l0,0v-25.2
			c0-0.6,0.4-1,1-1h0.4c0.6,0,1,0.4,1,1L117.4,439.7z M123.6,439.7c0,0.6-0.4,1-1,1h-0.4c-0.6,0-1-0.4-1-1v-25.1
			c0-0.7,0.5-1.2,1.2-1.2l0,0c0.7,0,1.2,0.5,1.2,1.2L123.6,439.7z M129.8,439.5c0,0.7-0.5,1.2-1.2,1.2h-0.2c-0.6,0-1-0.4-1-1v-25.3
			c0-0.6,0.4-1,1-1h0.4c0.6,0,1,0.4,1,1V439.5z M136,439.7c0,0.6-0.4,1-1,1h-0.2c-0.7,0-1.2-0.5-1.2-1.2l0,0v-25.2c0-0.6,0.4-1,1-1
			h0.4c0.6,0,1,0.4,1,1V439.7z M142.2,439.7c0,0.6-0.4,1-1,1h-0.4c-0.6,0-1-0.4-1-1v-25.1c0-0.7,0.5-1.2,1.2-1.2l0,0
			c0.7,0,1.2,0.5,1.2,1.2V439.7z M148.4,439.5c0,0.7-0.5,1.2-1.2,1.2l0,0H147c-0.6,0-1-0.4-1-1v-25.3c0-0.6,0.4-1,1-1h0.4
			c0.6,0,1,0.4,1,1V439.5z M154.6,439.7c0,0.6-0.4,1-1,1h-0.2c-0.7,0-1.2-0.5-1.2-1.2l0,0v-25.2c0-0.6,0.4-1,1-1h0.4
			c0.6,0,1,0.4,1,1V439.7z M160.8,439.7c0,0.6-0.4,1-1,1h-0.4c-0.6,0-1-0.4-1-1v-25.1c0-0.7,0.5-1.2,1.2-1.2l0,0
			c0.7,0,1.2,0.5,1.2,1.2V439.7z M167,439.5c0,0.7-0.5,1.2-1.2,1.2l0,0h-0.2c-0.6,0-1-0.4-1-1v-25.3c0-0.6,0.4-1,1-1h0.3
			c0.6,0,1,0.4,1,1L167,439.5z"/>
		<ellipse class="st5" cx="136.9" cy="402.2" rx="8.1" ry="8.1"/>
		<polygon class="st7" points="166,423.3 109.8,423.3 101,400.6 102.8,399.9 111.2,421.3 164.6,421.3 172.9,399.9 174.8,400.6 		"/>
		<g id="freepik--Tomato--inject-98_4_">
			<path class="st12" d="M182.3,244.6c-0.5,0-0.9,0-1.4,0.1c-0.9,0.1-1.8,0.1-2.6,0c-0.5-0.1-0.9-0.1-1.4-0.1c-4.4,0-8,3.5-8,7.8
				c0,4.3,3.6,7.8,8,7.8c0.3,0,0.6,0,0.9,0c1.2-0.1,2.5-0.1,3.7,0c0.3,0,0.6,0,0.9,0c4.4,0,8-3.5,8-7.8
				C190.3,248,186.7,244.6,182.3,244.6z"/>
			<path class="st13" d="M171.6,248.8c0.6-1.2,1.5-2.1,2.2-1.8c0.5,0.2-0.2,1.3,0.5,1.5c0.7,0.3,1.3-0.9,1.9-1s0.5,1.5,1.4,1.5
				c0.9,0,0.7-1.4,1.3-1.3c0.6,0.1,0.4,3.6-0.3,3.6c-0.5,0-0.4-1.1-1-1.1c-1,0-1.7,1.5-2.6,1.5s-0.3-1.6-0.9-1.7
				c-0.7-0.2-1.7,2.4-2.6,1.7C170.5,251.1,171.2,249.6,171.6,248.8z"/>
			<path class="st14" d="M182.3,260.1c4.4,0,8-3.5,8-7.8c0-2.1-0.9-4.1-2.4-5.5c0.5,0.4,3.8,4,0.8,8.5c-3.2,4.8-6.6,3-10.6,3.6
				c-3.9,0.6-7.7-2-7.8-2.1c1.5,2.1,4,3.3,6.6,3.3c0.3,0,0.6,0,0.9,0c1.2-0.1,2.5-0.1,3.7,0C181.7,260.1,182,260.1,182.3,260.1z"/>
			<path class="st15" d="M179.1,244.2c-1.1,0.1-2.3-2.7-3.3-2.4c0,0,1.5,1.3,1.9,2.5c0,0-4-0.7-5,0.5c0,0,5.5-0.8,5.4,0.6
				c0,0.5-1.3,0.6-1.3,1.5c0,0,1.5-1,2.5-1c1,0,1.7,1.5,1.7,1.5c-0.2-0.5-0.2-1.1,0-1.6c0.3-0.8,3.6-1.2,4.7,0c0,0-1-1.9-3.7-1.3
				c0,0,1.5-1.5,3.3-1.2c0,0-1.9-1-4,0.7c-0.4,0.4-1.1,0.4-1.6,0.1l-0.3-0.2C179.5,243.8,179.3,244.1,179.1,244.2z"/>
			<path class="st2" d="M179.3,244.4c-0.1-1,0.5-2.8-0.3-3.9c0,0,1-0.7,1.5,0.2c0.3,1.3,0.1,2.6-0.6,3.7
				C179.8,244.6,179.4,245,179.3,244.4z"/>
			<path class="st16" d="M179.3,244.4c-0.1-1,0.5-2.8-0.3-3.9c0,0,1-0.7,1.5,0.2c0.3,1.3,0.1,2.6-0.6,3.7
				C179.8,244.6,179.4,245,179.3,244.4z"/>
			<path class="st17" d="M180.5,240.7c-0.6-0.9-1.5-0.2-1.5-0.2S179.7,241.3,180.5,240.7z"/>
		</g>
	</g>
	<g id="freepik--Character--inject-57">
		<path class="st20" d="M316.2,392.1l0.5,39.6c0,7.3-0.1,13.7-0.3,17c0,0,0,0,0,0.1c0,0.8-0.1,1.6-0.3,2.3l0,0
			c-1.2,1.5-32.5,3-33.6,2.4s-0.2-6.5,1-8.4s13.1-12.5,13.1-12.5l-0.3-39.5L316.2,392.1z"/>
		<path class="st6" d="M316.7,423.9c0,0,0,7.8,0,7.9c0,7.3-0.1,13.7-0.3,17c0,0,0,0,0,0.1c0,0.8-0.1,1.5-0.3,2.3l0,0
			c-1.2,1.5-32.5,3-33.6,2.4s-0.2-6.5,1-8.4s13.1-12.5,13.1-12.5v-8L316.7,423.9z"/>
		<path class="st2" d="M294.6,432.6c2.1-0.6,4.6,0.1,6.2,2.9c0.1,0.1,0,0.3-0.1,0.2c-2-1.3-4-2.2-6.1-2.6c-0.1,0-0.1-0.2-0.1-0.3
			C294.5,432.7,294.5,432.6,294.6,432.6z"/>
		<path class="st2" d="M293.1,434.2c2.1-0.6,4.6,0.1,6.2,2.9c0.1,0.1,0,0.3-0.1,0.2c-2-1.3-4-2.2-6.1-2.6c-0.1,0-0.1-0.2-0.1-0.3
			C293,434.4,293,434.3,293.1,434.2z"/>
		<path class="st2" d="M291.5,435.9c2.1-0.6,4.6,0.1,6.2,2.9c0.1,0.1,0,0.3-0.1,0.2c-2-1.3-4-2.2-6.1-2.6c-0.1,0-0.1-0.2-0.1-0.3
			C291.4,436,291.5,435.9,291.5,435.9z"/>
		<path class="st1" d="M282.5,453.5c1.1,0.6,32.4-0.9,33.6-2.4c0.5-0.5,0.6-9.1,0.6-19.4v-0.3l-20.2,0.6v0.6
			c0,0-11.9,10.6-13.1,12.5C282.2,447,281.4,452.9,282.5,453.5z"/>
		<path class="st5" d="M316.7,431.4v0.3c0,10.3-0.2,18.9-0.6,19.4c-0.5,0.5-7.3,1.4-14.7,1.9c-8.8,0.6-18.3,0.9-18.9,0.5
			c-1.1-0.6-0.2-6.6,1-8.4c1.2-1.9,13.1-12.5,13.1-12.5V432l6.7-0.2L316.7,431.4z"/>
		<path class="st2" d="M282.8,451.2c5.3-0.5,26.6-1.6,31.8-1.3v0.1c-5.2,0.7-26.5,1.5-31.8,1.4C282.7,451.4,282.7,451.2,282.8,451.2
			z"/>
		<path class="st9" d="M303.2,431.8c-0.5,6.3-1.2,15.6-1.8,21.2c-8.8,0.6-18.3,0.9-18.9,0.5c-1.1-0.6-0.2-6.6,1-8.4
			c1.2-1.9,13.1-12.5,13.1-12.5V432L303.2,431.8z"/>
		<path class="st2" d="M318.5,432l-22.7,0.4c0,0-1.3-69-1.4-91.9c-0.1-26.3,0.7-105,0.7-105h17c0,0,4.6,17.4,1.9,36.9l-0.7,70.3
			L318.5,432z"/>
		<path class="st1" d="M316.8,424.5c-0.6-0.1-1.2-0.2-1.8-0.3c-0.7-0.1-1.3-0.2-2-0.2c-1.3-0.1-2.6-0.2-3.9-0.2
			c-2.6,0-5.2,0-7.8,0.2c-1.5,0.1-3,0.2-4.4,0.4v0.1c0,0,0,0,0,0.1c2.6,0.2,5.2,0.2,7.7,0.4s5.2,0.2,7.7,0.1c0.7,0,1.5,0,2.2-0.1
			s1.5,0,2.2-0.2C316.9,424.7,316.9,424.5,316.8,424.5z"/>
		<path class="st1" d="M297.5,386.5c-0.3-11.4-0.5-22.8-0.6-34.2c-0.3-22.8-0.4-45.6-0.3-68.5c0.1-12.8,0.3-25.6,0.5-38.4
			c0-0.1-0.1-0.1-0.1,0c-0.6,22.9-0.9,45.9-0.9,68.8c0,22.9,0.2,45.6,0.8,68.5c0.3,12.8,0.8,25.6,1.4,38.4c0,0.1,0.1,0.1,0.1,0
			C298.1,409.5,297.8,398,297.5,386.5z"/>
		<path class="st20" d="M291.9,398.4l-0.2,38.3c0,7.3-0.1,13.7-0.3,17c0,0,0,0,0,0.1c0,0.8-0.1,1.6-0.3,2.3l0,0
			c-1.2,1.5-32.5,3-33.6,2.4s-0.2-6.6,1-8.4s13.1-12.5,13.1-12.5l0.4-38.3L291.9,398.4z"/>
		<path class="st6" d="M291.8,428.8c0,0,0,7.8,0,7.9c0,7.3-0.1,13.7-0.3,17c0,0,0,0,0,0.1c-0.1,0.8-0.2,1.5-0.3,2.3l0,0
			c-1.2,1.5-32.5,3-33.6,2.4s-0.2-6.6,1-8.4s13.1-12.5,13.1-12.5v-8L291.8,428.8z"/>
		<path class="st2" d="M269.6,437.6c2.1-0.6,4.6,0.1,6.2,2.9c0.1,0.1,0,0.3-0.1,0.2c-2-1.3-4-2.2-6.1-2.6c-0.1,0-0.1-0.2-0.1-0.3
			C269.5,437.7,269.6,437.6,269.6,437.6z"/>
		<path class="st2" d="M268.1,439.2c2.1-0.6,4.6,0.1,6.2,2.9c0.1,0.1,0,0.3-0.1,0.2c-2-1.3-4-2.2-6.1-2.6c-0.1,0-0.1-0.2-0.1-0.3
			C268,439.3,268,439.2,268.1,439.2z"/>
		<path class="st2" d="M266.6,440.9c2.1-0.6,4.6,0,6.2,2.9c0.1,0.1,0,0.3-0.1,0.2c-2-1.3-4-2.2-6.1-2.6c-0.1,0-0.1-0.2-0.1-0.3
			C266.5,441,266.5,440.9,266.6,440.9z"/>
		<path class="st5" d="M257.5,458.5c1.1,0.6,32.4-0.9,33.6-2.4c0.4-0.5,0.6-9.1,0.6-19.4v-0.3l-20.2,0.6v0.6
			c0,0-11.9,10.6-13.1,12.5S256.4,457.8,257.5,458.5z"/>
		<path class="st2" d="M257.8,456.2c5.3-0.5,26.6-1.6,31.8-1.3v0.1c-5.2,0.7-26.5,1.5-31.8,1.4C257.7,456.3,257.7,456.2,257.8,456.2
			z"/>
		<path class="st2" d="M302.3,275.9c0,0-9.3,54.8-9.5,64.8c-0.1,8.6,0.4,96.6,0.4,96.6l-23.6,0.3c0,0,2-89.8,2.4-98.7
			c0.7-16.7,8.5-62.6,14.1-103.5h25.4c0,0-0.2,21.4-5.4,36.9C306.1,272.3,303.8,274.3,302.3,275.9z"/>
		<path class="st1" d="M292,429.2c-2.7-0.1-5.5-0.3-8.3-0.2s-5.4,0.2-8.1,0.5c-1.5,0.2-3.1,0.3-4.6,0.5c0,0,0,0,0,0.1v0.1
			c2.7,0.3,5.5,0.2,8.2,0.2s5.4-0.1,8.1-0.3c1.5-0.1,3.1-0.3,4.6-0.5C292.1,429.6,292.2,429.2,292,429.2z"/>
		<path class="st1" d="M286.8,261.2c-0.8,5.2-1.5,10.5-2.3,15.8s-1.5,10.6-2.3,16c-1.5,10.3-2.9,20.6-4,31.1s-1.7,21.2-1.9,31.9
			c-0.1,10.9,0,21.8,0,32.7s0.1,21.9,0.2,32.9c0,1.4,0,2.7,0.1,4.1c0,0.1,0.1,0.1,0.1,0c0.2-10.9,0.1-21.8,0.1-32.7
			s-0.1-21.8,0-32.7c0-10.8,0.5-21.6,1.5-32.3c1-10.5,2.4-20.8,3.8-31.1c0.8-5.9,1.6-11.8,2.5-17.6c0.8-5.9,1.7-11.8,2.4-17.8
			c0-0.1,0-0.2-0.1-0.2C286.9,261,286.9,261.1,286.8,261.2z"/>
		<path class="st1" d="M296.5,277c1.2,0,2.3-0.2,3.5-0.6s2.3-1.1,3.4-1.8c1.1-0.5,2.2-0.8,3.3-1c1.1-0.3,2.2-0.9,3.3-1.8
			c0,0,0.1,0.1,0,0.1c-1,1-2,1.8-3.1,2.5s-2.3,0.8-3.4,1.3c-1.1,0.6-2.3,1.1-3.5,1.5c-1.2,0.3-2.3,0.2-3.5-0.1
			C296.4,277.1,296.4,277,296.5,277z"/>
		<path class="st1" d="M295,320.5c0.2-1.6,0.4-3.2,0.7-4.9c0.5-3.3,1-6.5,1.5-9.8c1.1-6.4,2-12.9,3.2-19.3c0.6-3.6,1.2-7.3,1.9-10.9
			v-0.1c0,0,0,0,0,0.1c-0.4,3.3-0.9,6.6-1.4,9.8s-1,6.5-1.5,9.8c-1,6.5-2,13-3.1,19.4c-0.3,1.8-0.6,3.6-1,5.4s-0.6,3.7-1,5.5
			c0,0,0,0.1-0.1,0v-0.1C294.5,323.8,294.7,322.2,295,320.5z"/>
		<path class="st20" d="M285.9,186.6c2.4,0.1,6.1-6.3,7-10.5c0.1-0.3-0.7-2.9-1.5-6.2c-0.5-2-1-4.2-1.3-6.3l-9.3,6
			c1,2.4,1.8,5,2.3,7.7c0,0.3,0.1,0.6,0.1,0.9v0.1C283.2,180,283.5,186.6,285.9,186.6z"/>
		<path class="st2" d="M283.1,178.2v0.1c0.3,0,0.7-0.1,1-0.2c5.8-2,5.9-11,5.7-14.3l-9.1,5.8c1,2.4,1.8,5,2.3,7.7
			C283.1,177.6,283.1,177.9,283.1,178.2z"/>
		<path class="st20" d="M290.2,148c1.6,4.4,1.3,18.3-0.9,21.8c-3.1,5.1-9.1,6.7-12.5,1.4s-2.7-23.1-0.2-26.4
			C280.3,140,287.8,141.4,290.2,148z"/>
		<path class="st2" d="M280.8,158.1C280.8,158.1,280.8,158.2,280.8,158.1c0.1,1,0.1,2.1,0.7,2.4l0,0
			C280.8,160.4,280.7,159,280.8,158.1z"/>
		<path class="st2" d="M281.4,157.2c1.1-0.1,1.2,2.9,0.1,3C280.5,160.2,280.5,157.2,281.4,157.2z"/>
		<path class="st2" d="M276.8,158.2C276.8,158.2,276.8,158.3,276.8,158.2c0,1-0.1,2.1-0.7,2.4v0.1
			C276.9,160.6,277,159.1,276.8,158.2z"/>
		<path class="st2" d="M276.2,157.3c-1.1-0.1-1.2,2.9-0.1,3C277.1,160.4,277.1,157.4,276.2,157.3z"/>
		<path class="st2" d="M282.3,155.8c-0.3-0.1-0.6-0.2-0.9-0.4c-0.3-0.1-0.6-0.3-0.8-0.6c-0.1-0.2-0.1-0.6,0.1-0.8
			c0.3-0.4,0.8-0.4,1.2-0.2c0.4,0.2,0.8,0.5,1,1c0.1,0.3,0,0.7-0.2,0.9C282.5,155.8,282.4,155.8,282.3,155.8z"/>
		<path class="st2" d="M275.3,155.8c0.3-0.1,0.6-0.2,0.9-0.3s0.6-0.3,0.9-0.6c0.1-0.2,0.1-0.6,0-0.8c-0.3-0.4-0.8-0.5-1.2-0.3
			c-0.4,0.1-0.8,0.5-1.1,0.9c-0.2,0.3-0.1,0.7,0.2,0.9C275,155.8,275.1,155.8,275.3,155.8z"/>
		<path class="st2" d="M281.7,166.6c-0.2,0.2-0.3,0.5-0.6,0.6c-0.3,0-0.5-0.1-0.8-0.2 M280.4,167c0.2,0.4,0.6,0.5,0.9,0.5
			c0.3-0.1,0.5-0.4,0.5-0.9c0,0-0.1-0.1-0.1,0L280.4,167z"/>
		<path class="st2" d="M280.9,163.8c-0.3,0.8-0.9,1.3-1.6,1.5c-0.3,0.1-0.6,0.1-0.9,0.1h-0.2H278c-0.1,0-0.1-0.1-0.1-0.2l0,0v-0.1
			l0,0V165c0-0.7,0-1.8,0-1.8c-0.2,0.1-1.2,0.8-1.2,0.4c0-3.2,0.3-6.5,0.8-9.6c0-0.1,0.1-0.1,0.1,0c0,3-0.4,6-0.4,9
			c0.4-0.2,0.7-0.4,1.1-0.5c0.1,0-0.1,2.1-0.1,2.4l0,0C279.3,165,280.2,164.6,280.9,163.8C280.9,163.7,280.9,163.7,280.9,163.8z"/>
		<path class="st2" d="M278.8,165c0.3,0.5,0.7,0.9,1.2,1.1c0.2,0.1,0.5,0.1,0.8,0c0.6-0.2,0.6-0.9,0.4-1.5c-0.1-0.3-0.2-0.6-0.3-0.9
			C280.3,164.5,279.6,164.9,278.8,165z"/>
		<path class="st21" d="M279.9,166.1c0.2,0.1,0.5,0.1,0.8,0c0.6-0.2,0.6-0.9,0.4-1.5C280.5,164.7,280,165.3,279.9,166.1z"/>
		<path class="st22" d="M287.7,144.1c0,1.9,0.2,7.6,0.8,8.8s2,4,2.7,4.4c0-3.8-0.3-7.4-1-9.4C289.7,146.4,288.8,145.1,287.7,144.1z"
			/>
		<path class="st2" d="M279.2,149c0.8,1.2,2,1.8,3.2,1.6s2.2-1.3,2.7-2.8h0.1c-0.4,1.6-1.4,2.8-2.7,3.1
			C281.1,151.1,279.9,150.4,279.2,149C279.1,149,279.1,148.9,279.2,149z"/>
		<path class="st2" d="M282.8,137.7c1.8,0,3.6,1.3,4.5,3.3c0.4,1,0.5,2.2,0.4,3.3h-0.1c0.1-2-0.7-4-2-5.1c-1.4-1.2-3.2-1.5-4.8-0.8
			c-0.8,0.4-1.4,1.1-1.9,2c0,0.1-0.2,0-0.2-0.1C279.3,138.8,280.9,137.7,282.8,137.7z"/>
		<path class="st2" d="M271.2,143.4c0.3-1.3,1-2.4,1.9-3.1c1.2-1,2.6-0.9,4-0.7v0.1c-1.2-0.3-2.4-0.1-3.5,0.5
			c-0.9,0.6-1.6,1.6-2,2.8c-0.8,2.6-0.1,5.5,1.7,6.9c1,0.8,2.3,0.9,3.4,0.5c0,0,0.1,0.1,0,0.1c-2.3,1-4.7-0.5-5.5-3.5
			C270.9,145.9,270.9,144.6,271.2,143.4L271.2,143.4z"/>
		<path class="st2" d="M291,150.6c0,0,1.9-4.7,0.3-7.5c-0.9-1.6-3.9-1.3-3.9-1.3c-0.8-1.6-2-2.6-3.4-3c-2.5-0.8-5.5,1.2-5.5,1.2
			s-2.4-1.8-4.6-0.1c-3.1,2.4-2.7,8.6,0.4,10.6c2.2,1.4,5.2-1.2,5.2-1.2c0.3,0,3.2,2.4,5.4-1.1c0,0,1.8,2.1,3.4,0.6
			C288.8,150.1,289.9,150.8,291,150.6z"/>
		<path class="st20" d="M289.3,159.4c0,0,1.9-4.8,3.5-3.9s0.5,7.5-1.2,8.6c-0.9,0.7-2,0.3-2.5-0.8c0,0,0,0,0-0.1L289.3,159.4z"/>
		<path class="st2" d="M292.4,157.3L292.4,157.3c-1.1,1-1.8,2.5-2,4.2c0.2-0.7,0.8-1,1.3-0.7c0.1,0,0.1,0.1,0.2,0.1v0.1
			c-0.5-0.1-0.9,0.2-1.2,0.7c-0.2,0.4-0.3,0.9-0.5,1.4c0,0.2-0.2,0.1-0.2-0.1l0,0C289.8,161,290.7,157.8,292.4,157.3z"/>
		<path class="st23" d="M315.7,245.2c-0.1,0.2-32.1,12.5-32.5,12c-0.5-0.7-2.2-61.7,2.8-75.2c1.2-3.3,6-8,7.8-6.5
			c4.6,4,7.9,14.6,10,20.8c1.5,4.5,3.7,12.5,5.7,20.7C312.8,230.3,315.9,244.5,315.7,245.2z"/>
		<path class="st9" d="M292.6,196.8c0.1,0.9,0.2,1.7,0.4,2.5c0.2,0.8,0.4,1.6,0.7,2.2C293.6,199.8,293.2,198.2,292.6,196.8z
			 M306.6,209.7c0.1,0.9,0.2,1.7,0.4,2.5c0.2,0.8,0.4,1.6,0.7,2.2c-0.1-0.9-0.2-1.7-0.4-2.5C307.2,211.2,306.9,210.4,306.6,209.7z
			 M289.8,249.3c0.1,0.9,0.2,1.7,0.4,2.5c0.2,0.8,0.4,1.6,0.8,2.2C290.8,252.3,290.4,250.6,289.8,249.3z M306,246.3
			c0.1,0.9,0.2,1.7,0.4,2.5l0.4-0.1v-0.1C306.6,247.7,306.3,247,306,246.3L306,246.3z M314.2,239.6c0.1,0.9,0.2,1.7,0.4,2.5
			c0.2,0.8,0.4,1.6,0.8,2.2c-0.1-0.9-0.2-1.7-0.4-2.5C314.7,241,314.5,240.3,314.2,239.6L314.2,239.6z M296.7,227.8
			c0.1,0.9,0.2,1.7,0.4,2.5c0.2,0.8,0.4,1.6,0.8,2.2c-0.1-0.9-0.2-1.7-0.4-2.5C297.2,229.2,297,228.5,296.7,227.8L296.7,227.8z
			 M299,184.5c0.1,0.9,0.2,1.7,0.4,2.5c0.2,0.8,0.4,1.6,0.7,2.2c-0.1-0.9-0.2-1.7-0.4-2.5C299.6,186,299.3,185.2,299,184.5
			L299,184.5z M283.2,202l0.2-0.2c0.4-0.4,0.8-0.8,1.2-1.4c-0.5,0.1-0.9,0.4-1.3,0.8l0,0C283.2,201.5,283.2,201.7,283.2,202z
			 M305.3,232.2c0.5-0.1,0.9-0.4,1.3-0.8c0.4-0.4,0.8-0.8,1.2-1.4c-0.5,0.1-0.9,0.4-1.4,0.8C306.1,231.1,305.7,231.6,305.3,232.2
			L305.3,232.2z M283,254.3c0,0.2,0,0.5,0,0.7l0.2-0.2c0.4-0.4,0.8-0.8,1.2-1.4C283.9,253.6,283.5,253.8,283,254.3L283,254.3z
			 M293.3,244.2c0.5-0.1,0.9-0.4,1.4-0.8c0.4-0.4,0.8-0.8,1.2-1.4c-0.5,0.1-0.9,0.4-1.4,0.8C294.1,243.2,293.7,243.6,293.3,244.2
			L293.3,244.2z M283.4,227.8c0.5-0.1,0.9-0.4,1.4-0.8c0.4-0.4,0.8-0.8,1.2-1.4c-0.5,0.1-0.9,0.4-1.3,0.8
			C284.2,226.7,283.8,227.2,283.4,227.8L283.4,227.8z M295.7,211.4c0.5-0.1,0.9-0.4,1.4-0.8c0.4-0.4,0.8-0.8,1.2-1.4
			c-0.5,0.1-0.9,0.4-1.4,0.8C296.5,210.3,296.1,210.8,295.7,211.4L295.7,211.4z M309.6,243.5c0.3-0.7,0.5-1.5,0.7-2.3
			s0.3-1.7,0.3-2.6c-0.3,0.7-0.5,1.5-0.7,2.3C309.8,241.8,309.6,242.6,309.6,243.5L309.6,243.5z M292.1,183.4
			c0.3-0.7,0.5-1.5,0.7-2.4c0.2-0.8,0.3-1.7,0.3-2.6C292.6,180,292.2,181.7,292.1,183.4L292.1,183.4z M287,213.3
			c0.3-0.7,0.5-1.5,0.7-2.3s0.3-1.7,0.3-2.6C287.5,209.8,287.1,211.5,287,213.3z M298.7,251.7l0.3-0.1c0.1-0.3,0.2-0.7,0.2-1
			c0.2-0.8,0.3-1.7,0.3-2.6c-0.3,0.7-0.5,1.5-0.7,2.3C298.8,250.8,298.8,251.3,298.7,251.7L298.7,251.7z M289.7,236.5
			c0.3-0.7,0.5-1.5,0.7-2.4c0.2-0.8,0.3-1.7,0.3-2.6c-0.3,0.7-0.5,1.5-0.7,2.3C289.8,234.7,289.7,235.6,289.7,236.5z M301.5,223
			c0.3-0.7,0.5-1.5,0.7-2.3s0.3-1.7,0.3-2.6c-0.3,0.7-0.5,1.5-0.7,2.4C301.7,221.2,301.6,222.1,301.5,223z M309.9,223
			c0.4,0.5,0.8,0.9,1.3,1.2l0.1,0.1l-0.2-0.8C310.7,223.2,310.3,223.1,309.9,223L309.9,223z M300.7,238.2c0.4,0.5,0.8,0.9,1.2,1.2
			c0.4,0.3,0.9,0.5,1.4,0.6c-0.4-0.5-0.8-0.9-1.3-1.2C301.6,238.5,301.2,238.3,300.7,238.2L300.7,238.2z M301,200.5
			c0.4,0.5,0.8,0.9,1.3,1.2c0.4,0.3,0.9,0.5,1.4,0.6c-0.4-0.5-0.8-0.9-1.2-1.2C301.9,200.8,301.4,200.6,301,200.5L301,200.5z
			 M284.6,243.2c0.4,0.5,0.8,0.9,1.3,1.2c0.4,0.3,0.9,0.5,1.4,0.6c-0.4-0.5-0.8-0.9-1.3-1.2C285.6,243.5,285.1,243.3,284.6,243.2
			L284.6,243.2z M290.1,219.7c0.4,0.5,0.8,0.9,1.3,1.2c0.4,0.3,0.9,0.5,1.4,0.6c-0.4-0.5-0.8-0.9-1.3-1.2
			C291.1,220,290.6,219.8,290.1,219.7L290.1,219.7z M284.9,188.1c0.8,1,1.7,1.7,2.6,1.8c-0.4-0.5-0.8-0.9-1.3-1.2
			C285.9,188.4,285.4,188.2,284.9,188.1L284.9,188.1z"/>
		<path class="st20" d="M289,193.3c-4,14.2-12.2,40-18.2,42c-6.4,2.1-12.7-8-16.5-11.3c-1.6-1.4,3.8-16.6,5.7-15.9s7.2,2.3,8.7,2.3
			s9.6-16.5,15.4-25.5C290.8,174.3,292.3,181.8,289,193.3z"/>
		<path class="st20" d="M240.8,193.9c-1.7,3.6,5.1,7,5.1,7c-0.7,0.1-1.4,0.5-1.9,1.2c-0.9,1.3,0.2,3.8,0.2,3.8
			c-0.7,0.3-1.4,0.9-1.8,1.7c-0.7,1.3,0.1,4.1,0.1,4.1c-0.6,0.8-0.9,1.8-1,3c-0.1,3,2.6,5.6,4.2,7.2c1.7,1.7,8.9,3.6,9.8,3.1
			l5.6-16.3c0,0-3-6-7.4-9.3C251.8,197.9,241.7,192,240.8,193.9z"/>
		<path class="st2" d="M245.5,200.6c2.1,1,4.1,3.1,6,5c0,0,0,0.2,0,0.1c-1.9-1.9-4-3.1-6-4.9C245.4,200.9,245.4,200.8,245.5,200.6
			C245.4,200.7,245.4,200.6,245.5,200.6z"/>
		<path class="st2" d="M244,205.4c0.5,0.3,0.9,0.7,1.4,1.2s0.9,1,1.4,1.6c0.9,1.1,1.8,2.2,2.7,3.3c0,0.1,0,0.2,0,0.1
			c-0.9-1.1-1.8-2.1-2.8-3.1c-0.5-0.5-0.9-1-1.4-1.5c-0.5-0.4-0.9-0.9-1.3-1.5C244,205.5,244,205.4,244,205.4
			C244,205.2,243.9,205.4,244,205.4L244,205.4z"/>
		<path class="st2" d="M242.4,211.6c0.4,0.3,0.8,0.7,1.2,1.2s0.8,1,1.2,1.5c0.8,1,1.6,2,2.5,2.9c0,0,0,0.2,0,0.1
			c-0.9-1-1.7-1.9-2.6-2.8c-0.4-0.5-0.8-0.9-1.3-1.4C243.1,212.8,242.7,212.3,242.4,211.6C242.4,211.7,242.4,211.6,242.4,211.6z"/>
		<path class="st5" d="M261.1,207.6l-5.3,18.9c0,0,11.2,14.2,17.2,8.8s14.4-32.1,17-44.1s-0.3-15.9-5.7-7.4
			c-5.4,8.5-14.8,24.9-15.2,25.2S261.1,207.6,261.1,207.6z"/>
		<path class="st9" d="M284.9,188.2c0.8,1,1.7,1.7,2.6,1.8c-0.4-0.5-0.8-0.9-1.3-1.2C285.9,188.4,285.4,188.2,284.9,188.2z
			 M267.8,225.3c0.8,1,1.7,1.7,2.6,1.8C269.6,226.2,268.7,225.5,267.8,225.3z M261.4,206.6c0.2,0.2,0.4,0.3,0.6,0.5
			c0.4,0.3,0.9,0.5,1.4,0.6c-0.4-0.5-0.8-0.9-1.3-1.2c-0.2-0.1-0.4-0.2-0.5-0.3L261.4,206.6z M275.5,209.6c0.5-1.5,0.9-3.2,1-4.9
			c-0.3,0.7-0.5,1.5-0.7,2.4C275.6,207.9,275.5,208.7,275.5,209.6z M273.3,235c0.1-0.1,0.3-0.3,0.4-0.5l0.1-0.4
			c0.2-0.8,0.3-1.7,0.3-2.6c-0.3,0.7-0.5,1.5-0.7,2.3C273.4,234.3,273.4,234.6,273.3,235L273.3,235z M263,221.1
			c0.3-0.7,0.5-1.5,0.7-2.3s0.3-1.7,0.3-2.6c-0.3,0.7-0.5,1.5-0.7,2.3C263.2,219.3,263.1,220.2,263,221.1L263,221.1z M275,222.7
			c0.5-0.1,0.9-0.4,1.4-0.8c0.4-0.4,0.8-0.8,1.2-1.4c-0.5,0.1-0.9,0.4-1.4,0.8C275.8,221.7,275.4,222.2,275,222.7z M255.7,226.5
			c0.3-0.2,0.6-0.4,0.9-0.6c0.4-0.4,0.8-0.8,1.2-1.4c-0.5,0.1-0.9,0.4-1.4,0.8c-0.2,0.2-0.4,0.4-0.6,0.6L255.7,226.5z M282.1,202.6
			c0.5-0.1,0.9-0.4,1.4-0.8c0.4-0.4,0.8-0.8,1.2-1.4c-0.5,0.1-0.9,0.4-1.3,0.8C282.8,201.5,282.4,202,282.1,202.6L282.1,202.6z
			 M280.6,213.1c0.1,0.9,0.2,1.7,0.4,2.5c0.2,0.8,0.4,1.6,0.8,2.2C281.7,216.1,281.3,214.4,280.6,213.1z M268.5,212.1
			c0.2,1.8,0.6,3.4,1.2,4.8C269.5,215.1,269.1,213.5,268.5,212.1z M263.4,229.5c0.1,0.9,0.2,1.7,0.4,2.5c0.2,0.8,0.4,1.6,0.8,2.2
			C264.5,232.6,264,230.9,263.4,229.5z"/>
		<path class="st2" d="M261.7,218.4c0.5-1.9,1-3.7,1.5-5.6c0.2-0.9,0.5-1.8,0.8-2.7s0.5-1.9,0.9-2.9l0,0l0,0c-0.2,1-0.5,2-0.7,3
			s-0.4,1.8-0.7,2.7c-0.5,1.9-1,3.8-1.5,5.7c-1,3.8-2.1,7.4-3.1,11.1c0,0,0,0-0.1,0c0,0,0,0,0-0.1
			C259.7,226,260.7,222.2,261.7,218.4z"/>
		<path class="st2" d="M282.6,216c0.7-2.2,3.3-10.9,3.8-12.5c1-3.3,1.9-6.6,2.8-9.9l0,0c-0.4,2.1-0.9,4.1-1.4,6.2
			c0-0.1,0.1-0.3,0.1-0.4c0.3-0.8,0.6-1.5,0.9-2.3c0,0,0.1,0,0,0.1c-0.3,0.8-0.6,1.6-0.9,2.4c-0.2,0.5-0.4,1-0.6,1.5
			c-0.2,0.9-0.5,1.7-0.7,2.6C286.3,205.4,283.7,214.1,282.6,216C282.7,216.2,282.6,216.1,282.6,216z"/>
	</g>
</g>
</svg>
