<?xml version="1.0" encoding="utf-8"?>
<!-- Generator: Adobe Illustrator 25.3.1, SVG Export Plug-In . SVG Version: 6.00 Build 0)  -->
<svg version="1.1" id="Capa_1" xmlns="http://www.w3.org/2000/svg" xmlns:xlink="http://www.w3.org/1999/xlink" x="0px" y="0px"
	 viewBox="0 0 500 500" style="enable-background:new 0 0 500 500;" xml:space="preserve">
<style type="text/css">
	.st0{opacity:0.44;enable-background:new    ;}
	.st1{fill:#6FC9B8;}
	.st2{opacity:0.7;fill:#6FC9B8;enable-background:new    ;}
	.st3{fill:#86D6DE;stroke:#242552;stroke-width:1.1063;stroke-miterlimit:10;}
	.st4{opacity:0.44;fill:#6FC9B8;enable-background:new    ;}
	.st5{fill:#263238;stroke:#263238;stroke-width:1.1063;stroke-miterlimit:10;}
	.st6{fill:#FFFFFF;stroke:#263238;stroke-width:1.1063;stroke-linecap:round;stroke-linejoin:round;}
	.st7{fill:#FFFFFF;stroke:#263238;stroke-width:0.8297;stroke-linecap:round;stroke-linejoin:round;}
	.st8{fill:#0097A3;stroke:#000000;stroke-miterlimit:10;}
	.st9{fill:#85CFB9;}
	.st10{fill:#263238;stroke:#263238;stroke-width:1.1063;stroke-linecap:round;stroke-linejoin:round;}
	.st11{fill:none;stroke:#263238;stroke-width:0.8297;stroke-linecap:round;stroke-linejoin:round;}
	.st12{fill:#263238;stroke:#263238;stroke-width:1.0079;stroke-linecap:round;stroke-linejoin:round;}
	.st13{fill:none;stroke:#263238;stroke-width:2.2125;stroke-linecap:round;stroke-linejoin:round;}
	.st14{fill:#00875F;stroke:#263238;stroke-width:1.1063;stroke-linecap:round;stroke-linejoin:round;}
	.st15{fill:none;stroke:#263238;stroke-width:0.5531;stroke-linecap:round;stroke-linejoin:round;}
	.st16{fill:#86D6DE;}
	.st17{fill:#263238;}
	.st18{opacity:0.5;fill:#85CFB9;enable-background:new    ;}
	.st19{fill:#FFFFFF;}
	.st20{opacity:0.5;clip-path:url(#SVGID_2_);enable-background:new    ;}
	.st21{clip-path:url(#SVGID_4_);}
	.st22{clip-path:url(#SVGID_6_);}
	.st23{fill:none;stroke:#FFFFFF;stroke-width:0.5531;stroke-linecap:round;stroke-linejoin:round;}
</style>
<g id="Capa_1_1_">
	<g id="freepik--Shadow--inject-70" class="st0">
		<g id="freepik--shadow--inject-70">
			<ellipse class="st1" cx="234.6" cy="420.4" rx="156.3" ry="7.8"/>
			<ellipse class="st2" cx="234.6" cy="420.4" rx="156.3" ry="7.8"/>
			<ellipse class="st1" cx="418.6" cy="431.4" rx="30.4" ry="6.9"/>
			<ellipse class="st2" cx="418.6" cy="431.4" rx="30.4" ry="6.9"/>
		</g>
	</g>
	<g id="freepik--character-2--inject-70_1_">
		<g id="freepik--character-2--inject-70">
			<path class="st3" d="M258.3,387.5v-35.9h-57.7v35.9c0,6.1-2.4,12-6.8,16.4l-13.2,13.3h97.6L265,403.9
				C260.7,399.5,258.3,393.6,258.3,387.5z"/>
			<path class="st4" d="M200.6,351.6v35.9c0,2.8-0.5,5.5-1.5,8.1h60.7c-1-2.6-1.5-5.4-1.5-8.1v-35.9H200.6z"/>
			<rect x="200.6" y="353.2" class="st5" width="57.7" height="26.6"/>
			<rect x="180.6" y="417.2" class="st6" width="97.6" height="1.9"/>
			<path class="st5" d="M89.4,132h280.1c7.5,0,13.5,6,13.5,13.5l0,0l0,0v209.1c0,8.1-6.6,14.7-14.7,14.6H90.6
				c-8.1,0-14.7-6.6-14.7-14.7l0,0v-209C75.9,138.1,81.9,132,89.4,132z"/>
			<path class="st3" d="M75.9,341.8H383v12.8c0,8.1-6.6,14.7-14.7,14.7H90.6c-8.1,0-14.7-6.6-14.7-14.7V341.8L75.9,341.8z"/>
			<rect x="120.5" y="147" class="st7" width="274.6" height="183.1"/>
			<rect x="120.5" y="147" class="st8" width="274.6" height="59.3"/>
			<path class="st9" d="M349.3,235.9v-14.5H131.5v14.5H349.3z M349.4,265.2v-14.6H131.5v14.6H349.4z M349.3,294.4v-14.6H131.5v14.6
				H349.3z M349.4,317.8v-8.7H131.5v8.7H349.4z"/>
			<path class="st7" d="M206.1,169.2h-72.7c-1.3,0-2.4-1.1-2.4-2.4l0,0c0-1.3,1.1-2.4,2.4-2.4h72.7c1.3,0,2.4,1.1,2.4,2.4l0,0
				C208.6,168.1,207.5,169.2,206.1,169.2L206.1,169.2L206.1,169.2z"/>
			<path class="st10" d="M184.1,169.2h-50.7c-1.3,0-2.4-1.1-2.4-2.4l0,0c0-1.3,1.1-2.4,2.4-2.4h50.7V169.2z"/>
			<path class="st7" d="M206.1,178.7h-72.7c-1.3,0-2.4-1.1-2.4-2.4l0,0l0,0c0-1.3,1.1-2.4,2.4-2.4l0,0h72.7c1.3,0,2.4,1.1,2.4,2.4
				l0,0C208.6,177.6,207.5,178.7,206.1,178.7L206.1,178.7z"/>
			<path class="st10" d="M164.2,178.7h-31.9c-0.7,0-1.3-1.1-1.3-2.4l0,0l0,0c0-1.3,0.6-2.4,1.3-2.4l0,0h31.9V178.7z"/>
			<line class="st11" x1="131.5" y1="317.7" x2="349.4" y2="317.7"/>
			<line class="st11" x1="153.3" y1="317.7" x2="153.3" y2="315.5"/>
			<line class="st11" x1="175.1" y1="317.7" x2="175.1" y2="315.5"/>
			<line class="st11" x1="196.9" y1="317.7" x2="196.9" y2="315.5"/>
			<line class="st11" x1="218.7" y1="317.7" x2="218.7" y2="315.5"/>
			<line class="st11" x1="240.5" y1="317.7" x2="240.5" y2="315.5"/>
			<line class="st11" x1="262.3" y1="317.7" x2="262.3" y2="315.5"/>
			<line class="st11" x1="284.1" y1="317.7" x2="284.1" y2="315.5"/>
			<line class="st11" x1="305.9" y1="317.7" x2="305.9" y2="315.5"/>
			<line class="st11" x1="327.6" y1="317.7" x2="327.6" y2="315.5"/>
			<line class="st11" x1="349.4" y1="317.7" x2="349.4" y2="315.5"/>
			<polyline class="st11" points="131.5,317.7 131.5,309.1 131.5,221.3 			"/>
			<line class="st11" x1="131.5" y1="309.1" x2="137" y2="309.1"/>
			<line class="st11" x1="131.5" y1="294.5" x2="137" y2="294.5"/>
			<line class="st11" x1="131.5" y1="279.8" x2="137" y2="279.8"/>
			<line class="st11" x1="131.5" y1="265.2" x2="137" y2="265.2"/>
			<line class="st11" x1="131.5" y1="250.5" x2="137" y2="250.5"/>
			<line class="st11" x1="131.5" y1="235.9" x2="137" y2="235.9"/>
			<line class="st11" x1="131.5" y1="221.3" x2="137" y2="221.3"/>
			<rect x="353.4" y="162.5" class="st7" width="35.5" height="36.6"/>
			<rect x="353.4" y="162.5" class="st12" width="35.5" height="6.3"/>
			<line class="st11" x1="356.7" y1="173.9" x2="356.7" y2="194.7"/>
			<line class="st11" x1="361.5" y1="173.9" x2="361.5" y2="194.7"/>
			<line class="st11" x1="366.3" y1="173.9" x2="366.3" y2="194.7"/>
			<line class="st11" x1="371.1" y1="173.9" x2="371.1" y2="194.7"/>
			<line class="st11" x1="375.9" y1="173.9" x2="375.9" y2="194.7"/>
			<line class="st11" x1="380.7" y1="173.9" x2="380.7" y2="194.7"/>
			<line class="st11" x1="385.5" y1="173.9" x2="385.5" y2="194.7"/>
			<line class="st11" x1="385.2" y1="176.6" x2="356.8" y2="176.6"/>
			<line class="st11" x1="385.2" y1="180.5" x2="356.8" y2="180.5"/>
			<line class="st11" x1="385.2" y1="184.3" x2="356.8" y2="184.3"/>
			<line class="st11" x1="385.2" y1="188.2" x2="356.8" y2="188.2"/>
			<line class="st11" x1="385.2" y1="192" x2="356.8" y2="192"/>
			<line class="st13" x1="164.2" y1="273.8" x2="142.4" y2="317.7"/>
			<line class="st13" x1="186" y1="303.1" x2="164.2" y2="273.8"/>
			<line class="st13" x1="207.8" y1="279.7" x2="186" y2="303.1"/>
			<line class="st13" x1="229.4" y1="265.2" x2="207.8" y2="279.7"/>
			<line class="st13" x1="251.4" y1="244.6" x2="229.4" y2="265.2"/>
			<line class="st13" x1="273.2" y1="295.8" x2="251.4" y2="244.6"/>
			<line class="st13" x1="294.7" y1="264.6" x2="273.2" y2="295.8"/>
			<line class="st13" x1="316.8" y1="285.5" x2="294.7" y2="264.6"/>
			<line class="st13" x1="338.5" y1="259.2" x2="316.8" y2="285.5"/>
			<path class="st7" d="M142.4,315.5L142.4,315.5c1.3,0,2.3,1,2.3,2.3l0,0c0,1.3-1,2.3-2.3,2.3l0,0c-1.3,0-2.3-1-2.3-2.3l0,0
				C140.1,316.5,141.2,315.5,142.4,315.5z"/>
			<path class="st7" d="M164.2,271.5L164.2,271.5c1.3,0,2.3,1,2.3,2.3l0,0c0,1.3-1,2.3-2.3,2.3l0,0c-1.3,0-2.3-1-2.3-2.3l0,0
				C161.9,272.6,163,271.5,164.2,271.5z"/>
			<path class="st7" d="M186,300.8L186,300.8c1.3,0,2.3,1,2.3,2.3l0,0c0,1.3-1,2.3-2.3,2.3l0,0c-1.3,0-2.3-1-2.3-2.3l0,0
				C183.7,301.8,184.7,300.8,186,300.8z"/>
			<path class="st7" d="M207.9,277.4L207.9,277.4c1.3,0,2.3,1,2.3,2.3l0,0c0,1.3-1,2.3-2.3,2.3l0,0c-1.3,0-2.3-1-2.3-2.3l0,0
				C205.6,278.4,206.6,277.4,207.9,277.4z"/>
			<path class="st7" d="M229.5,262.9L229.5,262.9c1.3,0,2.3,1,2.3,2.3l0,0c0,1.3-1,2.3-2.3,2.3l0,0c-1.3,0-2.3-1-2.3-2.3l0,0
				C227.2,263.9,228.2,262.9,229.5,262.9z"/>
			<path class="st7" d="M251.4,242.3L251.4,242.3c1.3,0,2.3,1,2.3,2.3l0,0c0,1.3-1,2.3-2.3,2.3l0,0c-1.3,0-2.3-1-2.3-2.3l0,0
				C249.1,243.3,250.1,242.3,251.4,242.3z"/>
			<path class="st7" d="M273.1,293.5L273.1,293.5c1.3,0,2.3,1,2.3,2.3l0,0c0,1.3-1,2.3-2.3,2.3l0,0c-1.3,0-2.3-1-2.3-2.3l0,0
				C270.9,294.5,271.9,293.5,273.1,293.5z"/>
			<path class="st7" d="M294.7,262.3L294.7,262.3c1.3,0,2.3,1,2.3,2.3l0,0c0,1.3-1,2.3-2.3,2.3l0,0c-1.3,0-2.3-1-2.3-2.3l0,0
				C292.4,263.3,293.4,262.3,294.7,262.3z"/>
			<path class="st7" d="M316.8,283.2L316.8,283.2c1.3,0,2.3,1,2.3,2.3l0,0c0,1.3-1,2.3-2.3,2.3l0,0c-1.3,0-2.3-1-2.3-2.3l0,0
				C314.5,284.3,315.5,283.2,316.8,283.2z"/>
			<path class="st7" d="M338.5,256.9L338.5,256.9c1.3,0,2.3,1,2.3,2.3l0,0c0,1.3-1,2.3-2.3,2.3l0,0c-1.3,0-2.3-1-2.3-2.3l0,0
				C336.2,257.9,337.3,256.9,338.5,256.9z"/>
			<path class="st7" d="M238.7,162.5c-9.5,0-17.2,7.7-17.2,17.2s7.7,17.2,17.2,17.2s17.2-7.7,17.2-17.2l0,0
				C255.9,170.2,248.2,162.5,238.7,162.5z M238.7,191.8c-6.7,0-12.2-5.4-12.2-12.2c0-6.7,5.4-12.2,12.2-12.2
				c6.7,0,12.2,5.4,12.2,12.2l0,0C250.9,186.4,245.4,191.8,238.7,191.8L238.7,191.8z"/>
			<path class="st12" d="M238.7,162.5c-4.7,0-9.2,1.9-12.4,5.3l3.6,3.5c2.3-2.4,5.4-3.8,8.8-3.8c6.7,0,12.2,5.4,12.2,12.2
				c0,6.7-5.4,12.2-12.2,12.2l0,0l0,0v5c9.5,0.2,17.4-7.3,17.6-16.8s-7.3-17.4-16.8-17.6L238.7,162.5L238.7,162.5z"/>
			<line class="st11" x1="233.9" y1="178.8" x2="243.5" y2="178.8"/>
			<line class="st11" x1="233.9" y1="180.6" x2="243.5" y2="180.6"/>
			<line class="st11" x1="132.4" y1="212.2" x2="141.9" y2="212.2"/>
			<line class="st11" x1="132.4" y1="214" x2="141.9" y2="214"/>
			<line class="st11" x1="144.2" y1="212.2" x2="153.8" y2="212.2"/>
			<line class="st11" x1="144.2" y1="214" x2="153.8" y2="214"/>
			<line class="st11" x1="156" y1="212.2" x2="165.6" y2="212.2"/>
			<line class="st11" x1="156" y1="214" x2="165.6" y2="214"/>
			<path class="st7" d="M334.7,169.3c-5.7-7.5-16.5-9-24.1-3.3c-7.5,5.7-9,16.5-3.3,24.1c5.7,7.5,16.5,9,24.1,3.3
				C339,187.7,340.5,176.9,334.7,169.3L334.7,169.3z M311.4,187.1c-4.1-5.3-3.1-13,2.3-17.1c5.3-4.1,13-3.1,17.1,2.3
				c4.1,5.3,3.1,13-2.3,17.1l0,0C323.1,193.4,315.5,192.4,311.4,187.1z"/>
			<path class="st12" d="M330.5,187.3l4.3,2.7c5.7-7.6,4.2-18.4-3.4-24.1c-2.4-1.8-5.3-3-8.4-3.3l-0.6,5c6.7,0.8,11.4,6.9,10.6,13.5
				C332.8,183.4,331.9,185.6,330.5,187.3L330.5,187.3z"/>
			<line class="st11" x1="316" y1="178.8" x2="325.6" y2="178.8"/>
			<line class="st11" x1="316" y1="180.6" x2="325.6" y2="180.6"/>
			<path class="st14" d="M385.6,289.5c-5.7-7.5-16.5-9-24.1-3.3c-7.5,5.7-9,16.5-3.3,24.1c5.7,7.5,16.5,9,24.1,3.3
				C389.9,307.9,391.4,297.1,385.6,289.5L385.6,289.5z M362.3,307.3c-4.1-5.3-3-13,2.3-17.1s13-3,17.1,2.3s3,13-2.3,17.1l0,0
				C374,313.7,366.4,312.6,362.3,307.3L362.3,307.3z"/>
			<path class="st12" d="M381.4,307.6l4.3,2.7c5.7-7.6,4.2-18.4-3.4-24.1c-2.4-1.8-5.3-3-8.4-3.3l-0.6,5c6.7,0.8,11.4,6.8,10.6,13.5
				C383.7,303.6,382.8,305.8,381.4,307.6L381.4,307.6z"/>
			<line class="st11" x1="366.9" y1="299" x2="376.5" y2="299"/>
			<line class="st11" x1="366.9" y1="300.8" x2="376.5" y2="300.8"/>
			<line class="st15" x1="215.4" y1="149.2" x2="210.6" y2="140.8"/>
			<line class="st15" x1="215.3" y1="146.2" x2="213.1" y2="141.5"/>
			<path class="st3" d="M383,146.2H75.9v-6.9c0-4.4,6.6-8,14.7-8h277.7c8.1,0,14.7,3.6,14.7,8L383,146.2L383,146.2z"/>
			<path class="st16" d="M94.4,135.3v220.2h-8.3c-5.3,0-9.5-4.7-9.5-10.5V145.9c-0.6-4.8,9.5-10.5,9.5-10.5L94.4,135.3L94.4,135.3z"
				/>
		</g>
	</g>
	<g id="freepik--Character--inject-70">
		<g id="freepik--character--inject-70">
			<polygon class="st7" points="410.1,250.9 398.5,234.8 395.8,236 403.4,254.4 			"/>
			<path class="st7" d="M388.2,231.2l2.7,1.6l0.7-1l-3.4-5.6c-0.5-1.5,0.8-0.5,0.8-0.5l2.7,3.7l-2.5-6.6c0.5-1.4,1.4-0.4,1.4-0.4
				l2.8,5.6l-0.6-6.1c0.5-1.2,1.1,0,1.1,0l1.8,6.5c0.1-1.2,0.2-2,0.4-3.1c0.1-0.7-0.1-1,0.5-1.1c1.1-0.2,0.8,1.4,0.9,2.1
				c0.1,1.4,0.2,2.7,0.3,4.1l1,4.9l-2.8,1.2l-4.3-1.4l-3.8-2.9C387.1,230.9,388.2,231.2,388.2,231.2z"/>
			<path class="st7" d="M408.7,251.3c0,0-3.3,0.2-4.7,1.4s-2.2,2.2-3.3,2c-0.7-0.3-1.6,0.1-1.9,0.8c-0.1,0.2-0.1,0.4-0.1,0.6
				c-0.2,1.2,0.4,2,0.4,2.5s-1.1,4.7-1.1,6.4s0.6,2.2,2.1,3c1.1,0.5,2.3,0.9,3.5,1c0.2,1.9,0.3,3.8,0.2,5.7c-0.1,1-0.4,1.9-1,2.7
				c2.1,0.2,4.2,0.4,6.3,0.4c1.4,0.1,2.9-0.1,4.3-0.4c0,0-5.1-5.3-5.1-11.8s1.4-10.6,2.2-12S410.9,251.9,408.7,251.3z"/>
			<path class="st17" d="M400.3,263.1L400.3,263.1c-0.9-0.1-1.7-0.6-2.3-1.3c-0.1-0.1,0-0.3,0.1-0.4s0.3,0,0.4,0.1l0,0
				c0.4,0.6,1.1,0.9,1.8,1c0.2,0,0.3,0.2,0.3,0.4C400.6,263,400.5,263.1,400.3,263.1L400.3,263.1L400.3,263.1z"/>
			<path class="st17" d="M402.3,256.4c-0.3,0-0.5-0.2-0.5-0.5c0-0.2,0.1-0.3,0.2-0.4l0,0l1.3-0.8c0.2-0.1,0.5-0.1,0.6,0.1l0,0
				c0.1,0.2,0.1,0.5-0.2,0.6l-1.3,0.8C402.5,256.3,402.4,256.3,402.3,256.4z"/>
			<path class="st7" d="M394.4,363.4c0,0,0.4,9.1,1.3,14.5s9.1,42.4,9.1,44.6S397,431,397,431s-2.2,2.8,0.5,2.1
				c2.2-0.6,11.6-3,15-5.9c1.5-1.2-1.8-6.4-1.8-6.4s-2.2-34.6-3.6-40.1c-0.8-3.1-1.7-6.1-2.7-9.1l4.5-9.6L394.4,363.4z"/>
			<path class="st18" d="M407,380.7c-0.8-3.1-1.7-6.1-2.7-9.1l4.5-9.5l-14.5,1.4c0,0,0.1,3.3,0.5,7.2c1.1,0.5,2.3,0.9,3.5,1.2
				c1.1,0.3,2.3,0.4,3.4,0.5c1.4,3.6,2.3,7.4,2.5,11.2c0.5,6.4,4.8,38.5,4.8,38.5l0.7,6.6c1-0.4,1.9-1,2.7-1.6
				c1.5-1.2-1.8-6.4-1.8-6.4S408.4,386.1,407,380.7z"/>
			<path class="st17" d="M410.9,421.1c-1.5,0.3-2.9,0.9-4.1,1.8l-2-0.3c0,2.2-7.8,8.4-7.8,8.4s-2.2,2.8,0.5,2.1
				c2.2-0.6,11.6-3,15-5.9C413.7,426.1,411.6,422.3,410.9,421.1z"/>
			<path class="st7" d="M397.5,433c2.2-0.6,11.6-3,15-5.9c0.4-0.4,0.5-1,0.3-1.5l-16.6,6.5C395.9,432.8,395.9,433.4,397.5,433z"/>
			<path class="st19" d="M424.1,357l-6.5,11.2c2.4,3,4.2,6.4,5.5,10c1.5,4.4,8,29.3,11.9,40.7c0.5,1.4,1.1,2.8,2,4
				c0.6,0.8,1,1.7,1,2.7c0.1,1.2-0.8,2.3-2,2.4l0,0c-2.3,0.3-15.4,1.5-16.1,0.9c-0.4-0.4,6.1-3.1,8.9-4.9c0.9-0.5,1.6-1.3,2.2-2.1
				c0,0-18.7-40.4-20.7-45.2c-1.6-3.9-2.3-8.1-2.1-12.4c0.1-3.6,0.5-7.2,1-10.8L424.1,357z"/>
			<g>
				<g>
					<g>
						<defs>
							<path id="SVGID_1_" d="M424.1,357l-6.5,11.2c2.4,3,4.2,6.4,5.5,10c1.5,4.4,8,29.3,11.9,40.7c0.5,1.4,1.1,2.8,2,4
								c0.6,0.8,1,1.7,1,2.7c0.1,1.2-0.8,2.3-2,2.4l0,0c-2.3,0.3-15.4,1.5-16.1,0.9c-0.4-0.4,6.1-3.1,8.9-4.9
								c0.9-0.5,1.6-1.3,2.2-2.1c0,0-18.7-40.4-20.7-45.2c-1.6-3.9-2.3-8.1-2.1-12.4c0.1-3.6,0.5-7.2,1-10.8L424.1,357z"/>
						</defs>
						<clipPath id="SVGID_2_">
							<use xlink:href="#SVGID_1_"  style="overflow:visible;"/>
						</clipPath>
						<g class="st20">
							<path class="st18" d="M435,418.9c-3.9-11.4-10.4-36.3-11.9-40.7c-1.3-3.6-3.2-7-5.5-10L424,357l-12.4-2.9l-2.7,0.8
								c-0.4,3.1-0.7,6.2-0.8,9.4c0,1.4,0,2.8,0.1,4.1c1.1,0.5,2.3,0.9,3.5,1.1c1.1,0.2,2.1,0.4,3.2,0.5c1.1,2.2,2,4.5,2.5,6.9
								c1.1,4.6,15.4,43.6,15.8,44.7s2.3,1.4,0,5.5l-0.7,1.2c1.5-0.1,2.6-0.3,3.2-0.3c1.2-0.1,2.1-1.2,2-2.4l0,0c0-1-0.4-1.9-1-2.7
								C436,421.7,435.4,420.3,435,418.9z"/>
						</g>
					</g>
				</g>
			</g>
			<path class="st11" d="M424.1,357l-6.5,11.2c2.4,3,4.2,6.4,5.5,10c1.5,4.4,8,29.3,11.9,40.7c0.5,1.4,1.1,2.8,2,4
				c0.6,0.8,1,1.7,1,2.7c0.1,1.2-0.8,2.3-2,2.4l0,0c-2.3,0.3-15.4,1.5-16.1,0.9c-0.4-0.4,6.1-3.1,8.9-4.9c0.9-0.5,1.6-1.3,2.2-2.1
				c0,0-18.7-40.4-20.7-45.2c-1.6-3.9-2.3-8.1-2.1-12.4c0.1-3.6,0.5-7.2,1-10.8L424.1,357z"/>
			<path class="st17" d="M438,425.6c0-1-0.4-1.9-1-2.7l-0.1-0.2c-1.4,1-3,1.4-4.6,1.3v-1.6c0-1.6-1.2-0.5-1.2-0.5
				c-0.6,0.8-1.4,1.6-2.3,2.1c-2.8,1.8-9.3,4.5-8.9,4.9c0.7,0.5,13.7-0.6,16.1-0.9C437.1,427.8,438,426.8,438,425.6L438,425.6z"/>
			<path class="st7" d="M438,426.1c-4.4,0.5-11.7,1-15.5,1.2c-1.6,0.8-2.8,1.4-2.6,1.6c0.7,0.5,13.7-0.6,16.1-0.9
				C437.1,427.9,437.9,427.1,438,426.1z"/>
			<path class="st11" d="M401.9,313.7c0,0-3.3,8.4-8,21.4s-0.4,32.7-0.4,32.7s3.4,2.1,12.7-0.4s17.1-5.2,17.1-5.2s6-14.5,6.4-23.8
				s-5.9-20.6-5.9-20.6S411.2,302.2,401.9,313.7z"/>
			<path class="st15" d="M409.2,357.2c0,0,12.2-8.5,15.7-17.9"/>
			<path class="st15" d="M404.8,356.3c0,0,7.2-3.5,11-7.2"/>
			<line class="st15" x1="403.5" y1="356.9" x2="400.4" y2="357.5"/>
			<path class="st7" d="M400.5,276.1c3.4-1.9,7.4-2.3,11.1-1.1c6.6,1.7,3.6,4.2,0.8,4.6S400.5,276.1,400.5,276.1z"/>
			<path class="st19" d="M411.3,276.8c-3-0.6-6.1-0.9-9.2-1c-3.9,0-11.2,0.4-14.9-1.4s-8.7-6.4-8.7-6.4l-8.4-25l-3.7,0.3
				c0,0,3.5,21,3.5,24.7c0,3.1,1.1,6.1,3.1,8.4c1.8,2.4,14.1,9.3,18.6,11.7l2,1c0,0-3.5,5.3-2.9,7.6s5.3,5.3,6.3,7.1
				s4.4,11.4,4.4,11.4c2.8-5,5.3-10.2,7.6-15.5C413.6,289.1,417.4,281.3,411.3,276.8z"/>
			<g>
				<g>
					<g>
						<defs>
							<path id="SVGID_3_" d="M411.3,276.8c-3-0.6-6.1-0.9-9.2-1c-3.9,0-11.2,0.4-14.9-1.4s-8.7-6.4-8.7-6.4l-8.4-25l-3.7,0.3
								c0,0,3.5,21,3.5,24.7c0,3.1,1.1,6.1,3.1,8.4c1.8,2.4,14.1,9.3,18.6,11.7l2,1c0,0-3.5,5.3-2.9,7.6s5.3,5.3,6.3,7.1
								s4.4,11.4,4.4,11.4c2.8-5,20.1,7.9,22.4,2.6C428.4,307.2,417.4,281.3,411.3,276.8z"/>
						</defs>
						<clipPath id="SVGID_4_">
							<use xlink:href="#SVGID_3_"  style="overflow:visible;"/>
						</clipPath>
						<g class="st21">
							<path class="st18" d="M423.8,317.8c4.7-10.6-6.4-36.5-12.5-41c-3-0.6-6.1-0.9-9.2-1h-2.7c1.4,0.7,4.9,2.9,4.7,6.6
								c-0.2,4.6-4.3,2.8-11.2,2.5s-4.8,0.2-2.3,2.5l0.4,0.3l0.8,0.4l2,1l-0.2,0.3c3.4,2,8,4.3,8.1,5.4c0.2,1.4-5.5,6-4.6,9
								c0.6,1.8,2.9,7.1,4.4,11.4C404,311.4,422,322,423.8,317.8z"/>
						</g>
					</g>
				</g>
			</g>
			<path class="st11" d="M411.3,276.8c-3-0.6-6.1-0.9-9.2-1c-3.9,0-11.2,0.4-14.9-1.4s-8.7-6.4-8.7-6.4l-8.4-25l-3.7,0.3
				c0,0,3.5,21,3.5,24.7c0,3.1,1.1,6.1,3.1,8.4c1.8,2.4,14.1,9.3,18.6,11.7l2,1c0,0-3.5,5.3-2.9,7.6s5.3,5.3,6.3,7.1
				s4.4,11.4,4.4,11.4c2.8-5,20.1,7.9,22.4,2.6C428.4,307.2,417.4,281.3,411.3,276.8z"/>
			<path class="st19" d="M401.9,313.7c0,0-3.3,8.4-8,21.4s-0.4,32.7-0.4,32.7s3.4,2.1,12.7-0.4s17.1-5.2,17.1-5.2s6-14.5,6.4-23.8
				s-5.9-20.6-5.9-20.6S411.2,302.2,401.9,313.7z"/>
			<g>
				<g>
					<g>
						<defs>
							<path id="SVGID_5_" d="M401.9,313.7c0,0-3.3,8.4-8,21.4s-0.4,32.7-0.4,32.7s3.4,2.1,12.7-0.4s17.1-5.2,17.1-5.2
								s6-14.5,6.4-23.8s-5.9-20.6-5.9-20.6S411.2,302.2,401.9,313.7z"/>
						</defs>
						<clipPath id="SVGID_6_">
							<use xlink:href="#SVGID_5_"  style="overflow:visible;"/>
						</clipPath>
						<g class="st22">
							<path class="st14" d="M407,310l-2.9,11.5c0,0,6.6,12.6,7.3,15.6s2.1,3.2-2.3,8.7s-9,10.8-7.1,10.1s8.9-8.2,8-5.3
								s-6.2,6.2-8,9.4c-1.5,2.8-2.5,5.7-3.2,8.7c2.5-0.1,5-0.5,7.5-1.3c9.3-2.6,17.1-5.3,17.1-5.3s6-14.5,6.4-23.8
								s-5.9-20.6-5.9-20.6S415.2,307.2,407,310z"/>
						</g>
					</g>
				</g>
			</g>
			<path class="st7" d="M372.4,233.4l-1,3.2l-1.3-0.3l-1.2-7c-0.7-1.6-0.9,0.1-0.9,0.1l0.5,4.9l-2.7-7.2c-1.4-0.8-1.4,0.7-1.4,0.7
				l1.8,6.6l-3.8-5.4c-1.2-0.7-0.9,0.8-0.9,0.8l3.2,6.6c-0.8-0.8-1.7-1.5-2.6-2.2c-0.6-0.5-0.6-0.9-1.1-0.5c-1,0.6,0.3,1.7,0.8,2.3
				l2.7,3.5l2.1,3.9l3.7-0.2l2.5-4.2l1-5C373,232.4,372.4,233.4,372.4,233.4z"/>
			<line class="st15" x1="393.6" y1="289.1" x2="399.1" y2="293.1"/>
			<line class="st15" x1="395.4" y1="290.9" x2="397.9" y2="295.6"/>
			<path class="st17" d="M412.2,279.5c0,0-6.1-5.5-8.6-12.4s0.2-15,3.5-18.1s14.7,1,17.7,8.9s-2,15.5-3.5,17.3s-6.5,4.3-6.5,4.3"/>
			<path class="st23" d="M412.6,271.1c-9.7-5-7.2-17.6-7.2-17.6s4.4,10.7,10.1,11.3"/>
		</g>
	</g>
</g>
</svg>
