<?xml version="1.0" encoding="utf-8"?>
<!-- Generator: Adobe Illustrator 25.3.1, SVG Export Plug-In . SVG Version: 6.00 Build 0)  -->
<svg version="1.1" id="Capa_1" xmlns="http://www.w3.org/2000/svg" xmlns:xlink="http://www.w3.org/1999/xlink" x="0px" y="0px"
	 viewBox="0 0 64 80" style="enable-background:new 0 0 64 80;" xml:space="preserve">
<style type="text/css">
	.st0{fill:#D99B54;}
	.st1{fill:#B46000;}
</style>
<g id="Capa_2_1_">
	<path class="st0" d="M60.1,63H3.9C2.3,63,1,61.7,1,60.1V3.9C0.9,2.3,2.2,1,3.9,1h56.2C61.7,1,63,2.3,63,3.9v56.2
		C63,61.7,61.7,63,60.1,63z"/>
</g>
<g id="Capa_1_1_">
	<g>
		<path class="st1" d="M30.2,35.8h-3.8V15.1h32.9c0.5,0,0.9-0.4,0.9-0.9V4.8c0-0.5-0.4-0.9-0.9-0.9H4.8c-0.5,0-0.9,0.4-0.9,0.9v54.5
			c0,0.5,0.4,0.9,0.9,0.9h54.5c0.5,0,0.9-0.4,0.9-0.9V36.7c0-0.5-0.4-0.9-0.9-0.9h-4.7V32h4.7c0.5,0,0.9-0.4,0.9-0.9v-7.5
			c0-0.5-0.4-0.9-0.9-0.9H48c-0.5,0-0.9,0.4-0.9,0.9v7.5c0,0.5,0.4,0.9,0.9,0.9h4.7v3.8h-9.4 M48.9,24.5h9.5v5.6h-9.5V24.5z
			 M37.7,37.6v4.7c0,1.6-1.3,2.8-2.8,2.8s-2.8-1.3-2.8-2.8v-4.7H37.7z M47.1,37.6h5.6v4.7c0,1.6-1.3,2.8-2.8,2.8
			c-1.6,0-2.8-1.3-2.8-2.8V37.6z M39.6,37.6h5.6v4.7c0,1.6-1.3,2.8-2.8,2.8s-2.8-1.3-2.8-2.8V37.6z M26.4,37.6h3.8v4.7
			c0,1.6-1.3,2.8-2.8,2.8c-0.3,0-0.6-0.1-0.9-0.2v-7.3H26.4z M24.5,26.4h-1.9v-8.5c0-0.5-0.4-0.9-0.9-0.9H8.6
			c-0.5,0-0.9,0.4-0.9,0.9v8.5H5.8V15.1h18.8L24.5,26.4L24.5,26.4z M14.2,26.4H9.5v-7.5h4.7V26.4z M20.8,26.4h-4.7v-7.5h4.7V26.4z
			 M20.8,13.2H9.5V9.5h11.3V13.2z M24.5,5.7v7.5h-1.9V8.5c0-0.5-0.4-0.9-0.9-0.9H8.6c-0.5,0-1,0.4-1,0.9v4.7H5.8V5.7H24.5z
			 M5.8,28.2h18.8v30.1h-1.9V31.1c0-0.5-0.4-0.9-0.9-0.9H8.6c-0.5,0-0.9,0.4-0.9,0.9v27.2H5.8V28.2z M20.8,45.2v13.2H9.5V45.2H20.8z
			 M26.4,58.3V46.9c0.3,0.1,0.6,0.1,1,0.1c1.5,0,2.9-0.7,3.8-1.9c1.5,2.1,4.4,2.5,6.5,1c0.4-0.3,0.7-0.6,1-1c1.5,2.1,4.4,2.5,6.5,1
			c0.4-0.3,0.7-0.6,1-1c1.5,2.1,4.4,2.5,6.5,1c0.4-0.3,0.7-0.6,1-1c0.1,0.2,0.3,0.4,0.4,0.5c0.9,0.9,2.1,1.4,3.3,1.4
			c0.3,0,0.6,0,0.9-0.1v11.4C58.3,58.3,26.4,58.3,26.4,58.3z M58.4,45c-1.5,0.5-3.1-0.2-3.6-1.7c-0.1-0.3-0.2-0.6-0.2-1v-4.7h3.8V45
			z M39.6,13.2h-9.4V9.5h9.4V13.2z M54.6,13.2h-9.4V9.5h9.4V13.2z"/>
	</g>
	<rect x="9.5" y="32.4" class="st0" width="11.3" height="11.3"/>
</g>
<rect x="14.3" y="32.4" class="st1" width="1.6" height="11.3"/>
<rect x="14.2" y="36.7" transform="matrix(6.123234e-17 -1 1 6.123234e-17 -27.9081 57.9101)" class="st1" width="1.6" height="12.4"/>
<rect x="14.3" y="45.2" class="st1" width="1.6" height="13.6"/>
<rect x="13.4" y="50.9" transform="matrix(6.123234e-17 -1 1 6.123234e-17 -42.1409 72.143)" class="st1" width="3.3" height="12.4"/>
<rect x="58.4" y="3.9" class="st1" width="2.2" height="56.3"/>
</svg>
