<?xml version="1.0" encoding="utf-8"?>
<!-- Generator: Adobe Illustrator 25.3.1, SVG Export Plug-In . SVG Version: 6.00 Build 0)  -->
<svg version="1.1" id="Capa_1" xmlns="http://www.w3.org/2000/svg" xmlns:xlink="http://www.w3.org/1999/xlink" x="0px" y="0px"
	 viewBox="0 0 500 500" style="enable-background:new 0 0 500 500;" xml:space="preserve">
<style type="text/css">
	.st0{fill:#F0F0F0;}
	.st1{fill:#E0E0E0;}
	.st2{fill:#455A64;}
	.st3{fill:#37474F;}
	.st4{fill:#263238;}
	.st5{fill:#6CBAAF;}
	.st6{opacity:0.2;enable-background:new    ;}
	.st7{opacity:0.4;fill:#FFFFFF;enable-background:new    ;}
	.st8{fill:#FAFAFA;}
	.st9{opacity:0.15;enable-background:new    ;}
	.st10{fill:#90CAF9;}
	.st11{opacity:0.35;enable-background:new    ;}
	.st12{opacity:0.8;fill:#82A8A5;enable-background:new    ;}
	.st13{opacity:0.8;fill:#A5D6D2;enable-background:new    ;}
	.st14{opacity:0.5;fill:#FFFFFF;enable-background:new    ;}
	.st15{opacity:0.6;fill:#FFFFFF;enable-background:new    ;}
	.st16{opacity:0.8;fill:#8ABDB9;enable-background:new    ;}
	.st17{opacity:0.8;fill:#FFFFFF;enable-background:new    ;}
	.st18{opacity:0.5;fill:#37474F;enable-background:new    ;}
	.st19{fill:#FFFFFF;}
	.st20{opacity:0.3;enable-background:new    ;}
	.st21{opacity:0.4;enable-background:new    ;}
	.st22{display:none;opacity:0.3;enable-background:new    ;}
	.st23{opacity:0.25;enable-background:new    ;}
	.st24{fill:#FFE60A;}
	.st25{opacity:0.1;enable-background:new    ;}
	.st26{opacity:0.2;}
	.st27{fill:#189039;}
	.st28{fill:#FFBDA7;}
	.st29{fill:#F0997A;}
	.st30{opacity:0.6;fill:#FFEF2C;enable-background:new    ;}
	.st31{fill:#F9B445;}
	.st32{fill:#A6C721;}
	.st33{opacity:0.45;fill:#FFFFFF;enable-background:new    ;}
	.st34{fill:#F28F8F;}
	.st35{fill:#B16668;}
	.st36{fill:#443273;}
	.st37{fill:#9A4A4D;}
	.st38{fill:#B6A6DE;}
</style>
<g id="freepik--Floor--inject-3">
	<ellipse id="freepik--floor--inject-3" class="st0" cx="250" cy="364.7" rx="231.5" ry="122.1"/>
</g>
<g id="freepik--Shadows--inject-3">
	<path id="freepik--Shadow--inject-3" class="st1" d="M467.2,346.3l-63.6-36.7c-1.4-0.7-3-0.7-4.4,0l-43,24.8
		c-0.7,0.2-1.1,1-0.9,1.7c0.1,0.4,0.4,0.7,0.9,0.9l63.6,36.7c1.4,0.7,3,0.7,4.4,0l43-24.8c0.5-0.2,0.9-0.7,0.9-1.3
		C468.2,347,467.5,346.5,467.2,346.3z"/>
	<polygon id="freepik--shadow--inject-3" class="st1" points="136.2,446.2 298.6,352.5 225.3,310.2 211.9,318 63,404 	"/>
	<ellipse id="freepik--shadow--inject-3_1_" class="st1" cx="310.1" cy="383" rx="70.5" ry="40.7"/>
</g>
<g id="freepik--self-checkout-machine--inject-3">
	<g id="freepik--Checkout--inject-3">
		<g id="freepik--Number--inject-3">
			<g id="freepik--Stick--inject-3">
				<path class="st2" d="M87.1,69v195.9c0,0.4,0.3,0.8,0.7,0.9c1,0.5,2.3,0.5,3.3,0c0.4-0.2,0.6-0.5,0.7-0.9V69H87.1z"/>
				<polygon class="st3" points="91.7,80.9 91.7,69 87.1,69 87.1,83.6 				"/>
				<path class="st4" d="M87.8,68c-0.5,0.2-0.8,0.7-0.6,1.3c0.1,0.3,0.3,0.5,0.6,0.6c1,0.5,2.2,0.5,3.3,0c0.5-0.2,0.8-0.8,0.6-1.3
					c-0.1-0.3-0.3-0.5-0.7-0.6C90,67.5,88.8,67.5,87.8,68z"/>
			</g>
			<g id="freepik--number--inject-3">
				<path class="st5" d="M104.5,35.2c-0.1-1.4-0.8-2.7-2-3.5l-1.7-1c-1.3-0.6-2.7-0.6-4,0L72.4,44.8c-1.2,0.8-1.9,2.1-2,3.5V81
					c0.1,1.4,0.8,2.7,2,3.5l1.6,1c1.3,0.6,2.7,0.6,4,0l24.4-14.1c1.2-0.8,1.9-2.1,2-3.5L104.5,35.2z"/>
				<path class="st6" d="M70.4,81c0.1,1.4,0.8,2.7,2,3.5l1.6,1c1.2,0.6,2.5,0.6,3.7,0.2c-1,0.4-1.7-0.2-1.7-1.3V51.6
					c0-0.7,0.2-1.4,0.6-2L71,46.3c-0.4,0.6-0.6,1.3-0.6,2V81z"/>
				<path class="st7" d="M104.4,34.6c-0.2-0.9-1-1.1-2-0.6L78.1,48.1c-0.6,0.4-1.1,0.9-1.4,1.5L71,46.3c0.3-0.6,0.8-1.1,1.4-1.5
					l24.3-14.1c1.3-0.6,2.7-0.6,4,0l1.7,1C103.4,32.4,104.2,33.4,104.4,34.6z"/>
			</g>
			<g id="freepik--5--inject-3">
				<path class="st8" d="M84.9,51.8c0-0.3,0.1-0.5,0.2-0.8c0.1-0.2,0.2-0.4,0.4-0.5l8.6-5c0.1-0.1,0.3-0.1,0.4,0
					c0.1,0.2,0.2,0.4,0.2,0.6v2.5c0,0.3-0.1,0.5-0.2,0.8c-0.1,0.2-0.2,0.4-0.4,0.5l-6.4,3.7l-0.2,4.6c0.4-0.4,0.8-0.8,1.2-1.2
					c0.4-0.3,0.7-0.5,1-0.6c0.7-0.4,1.5-0.7,2.3-0.8c0.7-0.1,1.3,0.1,1.9,0.5c0.6,0.5,1.1,1.1,1.3,1.8c0.3,1,0.5,2.1,0.4,3.2
					c0,1.4-0.1,2.8-0.5,4.1c-0.3,1.2-0.7,2.3-1.3,3.4c-0.5,0.9-1.1,1.8-1.9,2.6c-0.7,0.7-1.5,1.3-2.3,1.8s-1.7,0.9-2.7,1
					c-0.7,0.1-1.3-0.1-1.9-0.4c-0.5-0.4-0.9-0.9-1.1-1.6c-0.3-0.8-0.4-1.6-0.4-2.4c0-0.3,0-0.5,0.2-0.8c0.1-0.2,0.2-0.4,0.4-0.5
					l1.8-1.1c0.1-0.1,0.3-0.1,0.4,0s0.2,0.3,0.2,0.5c0,0.4,0.2,0.8,0.4,1.1c0.2,0.2,0.4,0.4,0.7,0.4c0.3,0,0.6,0,0.9-0.1
					s0.7-0.3,1-0.5c0.9-0.5,1.6-1.3,2.1-2.3c0.5-1.1,0.8-2.3,0.8-3.5c0.1-0.8-0.2-1.6-0.8-2.2c-0.7-0.4-1.5-0.3-2.1,0.1
					c-0.4,0.2-0.8,0.5-1.1,0.8c-0.2,0.2-0.5,0.5-0.7,0.7l-0.4,0.6c-0.1,0.2-0.3,0.3-0.5,0.5l-2.1,1.2c-0.1,0.1-0.3,0.1-0.4,0
					c-0.1-0.2-0.2-0.4-0.2-0.6L84.9,51.8z"/>
			</g>
		</g>
		<g id="freepik--Monitor--inject-3">
			<polygon class="st5" points="137.5,165.8 137.5,223.4 169.2,205 169.2,147.4 			"/>
			<polygon class="st9" points="169.2,147.4 137.5,165.8 137.5,192.3 169.2,174 			"/>
			<polygon class="st10" points="137.5,223.4 135.2,224.7 135.2,164.5 137.5,165.8 			"/>
			<polygon class="st11" points="137.5,223.4 135.2,224.7 135.2,164.5 137.5,165.8 			"/>
			<g id="freepik--monitor--inject-3">
				<path class="st3" d="M113.3,201.4c1,0.5,2.2,0.5,3.1-0.1l73.9-42.6c1-0.6,1.6-1.7,1.6-2.8V93.5c0-1.1-0.6-2.1-1.4-2.7l-2-1.2
					c-1-0.5-2.2-0.5-3.1,0.1l-73.9,42.6c-1,0.6-1.5,1.7-1.6,2.8v62.4c0,1,0.5,2,1.4,2.6L113.3,201.4z"/>
				<path class="st2" d="M116.4,201.3l73.9-42.6c1-0.6,1.6-1.7,1.6-2.8V93.5c0-1-0.7-1.4-1.6-0.9l-73.9,42.6c-1,0.6-1.5,1.7-1.6,2.8
					v62.4C114.8,201.4,115.5,201.9,116.4,201.3z"/>
				<path class="st8" d="M117.2,189.8v-50.9c0-0.7,0.4-1.3,1-1.7l69.4-40c0.6-0.3,1-0.1,1,0.6v51c0,0.7-0.4,1.3-1,1.7l-69.4,40
					C117.6,190.7,117.2,190.5,117.2,189.8z"/>
				<path class="st1" d="M122.6,142.3l43-24.8c0.5-0.3,0.9-0.1,0.9,0.4c-0.1,0.6-0.4,1.1-0.9,1.4l-42.9,24.8
					c-0.5,0.3-0.9,0.1-0.9-0.4C121.8,143.1,122.1,142.6,122.6,142.3z"/>
				<path class="st1" d="M122.6,148.7l43-24.8c0.5-0.3,0.9-0.1,0.9,0.4c-0.1,0.6-0.4,1.1-0.9,1.4l-42.9,24.8
					c-0.5,0.3-0.9,0.1-0.9-0.4C121.8,149.5,122.1,149,122.6,148.7z"/>
				<path class="st1" d="M122.6,155l43-24.8c0.5-0.3,0.9-0.1,0.9,0.4c-0.1,0.6-0.4,1.1-0.9,1.4l-42.9,24.8c-0.5,0.3-0.9,0.1-0.9-0.4
					C121.8,155.8,122.1,155.3,122.6,155z"/>
				<path class="st10" d="M122.6,161.4l43-24.8c0.5-0.3,0.9-0.1,0.9,0.4c-0.1,0.6-0.4,1.1-0.9,1.4l-42.9,24.8
					c-0.5,0.3-0.9,0.1-0.9-0.4C121.8,162.2,122.1,161.7,122.6,161.4z"/>
				<path class="st1" d="M174.5,112.3l8.1-4.7c0.5-0.3,0.9-0.1,0.9,0.4c0,0.6-0.4,1.1-0.9,1.4l-8.1,4.7c-0.5,0.3-0.9,0.1-0.9-0.4
					C173.7,113.1,174,112.6,174.5,112.3z"/>
				<path class="st1" d="M174.5,118.7l8.1-4.7c0.5-0.3,0.9-0.1,0.9,0.4c0,0.6-0.4,1.1-0.9,1.4l-8.1,4.7c-0.5,0.3-0.9,0.1-0.9-0.4
					C173.7,119.5,174,119,174.5,118.7z"/>
				<path class="st1" d="M174.5,125l8.1-4.7c0.5-0.3,0.9-0.1,0.9,0.4c0,0.6-0.4,1.1-0.9,1.4l-8.1,4.7c-0.5,0.3-0.9,0.1-0.9-0.4
					C173.7,125.8,174,125.3,174.5,125z"/>
				<path class="st10" d="M174.5,131.4l8.1-4.7c0.5-0.3,0.9-0.1,0.9,0.4c0,0.6-0.4,1.1-0.9,1.4l-8.1,4.7c-0.5,0.3-0.9,0.1-0.9-0.4
					C173.7,132.2,174,131.7,174.5,131.4z"/>
				<path class="st2" d="M136,165.9c0.2-0.1,0.5-0.2,0.8-0.3c0.2,0,0.4,0,0.6,0.1c0.2,0.1,0.3,0.2,0.3,0.4c0.1,0.2,0.1,0.4,0.1,0.6
					c0,0.1,0,0.2-0.1,0.2c0,0.1-0.1,0.1-0.1,0.1l-0.5,0.3c-0.1,0-0.1,0-0.2,0l-0.1-0.1c-0.1-0.1-0.2-0.2-0.3-0.3
					c-0.1,0-0.3,0-0.6,0.2c-0.1,0.1-0.2,0.1-0.3,0.2c-0.1,0.1-0.2,0.2-0.3,0.3s-0.1,0.2-0.2,0.4c0,0.1-0.1,0.3-0.1,0.4
					c0,0.1,0,0.2,0.1,0.3c0,0.1,0.1,0.1,0.2,0.1c0.1,0,0.3,0,0.4,0l0.6-0.1c0.2-0.1,0.5-0.1,0.7-0.1s0.3,0.1,0.5,0.2
					c0.1,0.1,0.2,0.2,0.3,0.4s0.1,0.5,0.1,0.7c0,0.3,0,0.6-0.1,0.9c-0.1,0.3-0.2,0.6-0.4,0.9c-0.2,0.3-0.4,0.5-0.6,0.8
					c-0.2,0.2-0.5,0.4-0.8,0.6c-0.2,0.1-0.5,0.2-0.7,0.3c-0.2,0-0.4,0-0.6-0.1c-0.2-0.1-0.3-0.2-0.4-0.4c-0.1-0.2-0.2-0.5-0.2-0.7
					c0-0.1,0-0.2,0.1-0.2c0-0.1,0.1-0.1,0.1-0.1l0.5-0.3c0.1,0,0.1,0,0.2,0l0.1,0.1c0,0.1,0.1,0.1,0.1,0.2c0,0.1,0.1,0.1,0.2,0.1
					c0.1,0,0.2,0,0.3,0s0.3-0.1,0.4-0.2c0.1-0.1,0.3-0.2,0.4-0.3c0.1-0.1,0.2-0.2,0.3-0.3s0.2-0.3,0.2-0.4c0.1-0.1,0.1-0.3,0.1-0.4
					c0-0.1,0-0.2-0.1-0.3s-0.2-0.1-0.3-0.1c-0.2,0-0.3,0-0.5,0.1l-0.6,0.1c-0.2,0-0.4,0-0.6,0c-0.2,0-0.3-0.1-0.4-0.2
					c-0.1-0.1-0.2-0.3-0.2-0.4c-0.1-0.2-0.1-0.5-0.1-0.7c0-0.3,0-0.6,0.1-0.9c0.1-0.3,0.2-0.6,0.4-0.9c0.2-0.3,0.3-0.5,0.5-0.7
					C135.5,166.2,135.7,166,136,165.9z"/>
				<path class="st2" d="M142.2,162.4h0.1c0,0,0.1,0.1,0.1,0.2v4.1c0,0.4,0,0.8-0.1,1.2s-0.2,0.7-0.4,1.1c-0.1,0.3-0.3,0.6-0.6,0.9
					c-0.2,0.3-0.5,0.5-0.8,0.7c-0.2,0.2-0.5,0.3-0.8,0.3c-0.2,0-0.4-0.1-0.6-0.2c-0.2-0.2-0.3-0.4-0.4-0.7c-0.1-0.3-0.1-0.7-0.1-1.1
					v-4.1c0-0.1,0-0.2,0.1-0.2c0-0.1,0.1-0.1,0.1-0.2l0.5-0.3h0.1l0,0c0,0.1,0,0.1,0,0.2v4.1c0,0.2,0,0.4,0.1,0.7
					c0,0.1,0.1,0.3,0.2,0.4c0.1,0.1,0.2,0.1,0.3,0.1s0.3-0.1,0.4-0.1c0.1-0.1,0.3-0.2,0.4-0.3c0.1-0.1,0.2-0.3,0.3-0.4
					c0.1-0.2,0.2-0.4,0.2-0.6c0.1-0.2,0.1-0.5,0.1-0.8V163c0-0.1,0-0.2,0.1-0.2c0-0.1,0.1-0.1,0.1-0.2L142.2,162.4z"/>
				<path class="st2" d="M143.5,168.7h-0.1c0,0,0-0.1,0-0.2V162c0-0.1,0-0.1,0-0.2c0-0.1,0.1-0.1,0.1-0.1l1.9-1.1
					c0.2-0.1,0.5-0.2,0.7-0.2s0.3,0.1,0.4,0.2c0.1,0.1,0.2,0.3,0.2,0.5c0.1,0.2,0.1,0.4,0.1,0.6c0,0.2,0,0.4-0.1,0.6
					c0,0.2-0.1,0.3-0.1,0.5c-0.1,0.1-0.1,0.3-0.1,0.4l-0.1,0.2c0.2,0.1,0.3,0.2,0.4,0.4c0.1,0.3,0.2,0.6,0.2,0.9
					c0,0.3,0,0.5-0.1,0.8s-0.2,0.6-0.3,0.8c-0.1,0.3-0.3,0.5-0.4,0.7c-0.2,0.2-0.4,0.4-0.6,0.5L143.5,168.7z M146.1,162.2
					c0-0.3-0.1-0.4-0.1-0.5s-0.3,0-0.5,0.1l-1.2,0.7v1.5l1.2-0.7c0.2-0.1,0.4-0.3,0.5-0.5C146,162.6,146.1,162.4,146.1,162.2z
					 M144.2,167l1.2-0.7c0.2-0.1,0.4-0.3,0.5-0.6c0.1-0.2,0.2-0.5,0.2-0.7s0-0.4-0.2-0.5c-0.1-0.1-0.3-0.1-0.5,0.1l-1.2,0.7V167z"/>
				<path class="st2" d="M150.8,157.4h0.1c0,0,0.1,0.1,0.1,0.2v0.7c0,0.1,0,0.2-0.1,0.2c0,0.1-0.1,0.1-0.1,0.1l-1.2,0.7v5.5
					c0,0.1,0,0.1,0,0.2c0,0.1-0.1,0.1-0.1,0.1l-0.5,0.3h-0.1c0,0-0.1-0.1-0.1-0.2v-5.5l-1.2,0.7h-0.1c0,0,0-0.1,0-0.2v-0.7
					c0-0.1,0-0.2,0-0.2c0-0.1,0.1-0.1,0.1-0.1L150.8,157.4z"/>
				<path class="st2" d="M151.4,159.7c0-0.4,0.1-0.8,0.1-1.1c0.1-0.4,0.2-0.7,0.4-1.1c0.2-0.3,0.4-0.6,0.6-0.9
					c0.2-0.3,0.5-0.5,0.8-0.7c0.2-0.2,0.5-0.3,0.8-0.3c0.2,0,0.4,0.1,0.6,0.2c0.2,0.2,0.3,0.4,0.4,0.7c0.1,0.3,0.1,0.7,0.1,1
					c0,0.1,0,0.3,0,0.4v1c0,0.1,0,0.3,0,0.4c0,0.4-0.1,0.8-0.1,1.1c-0.1,0.4-0.2,0.7-0.4,1.1c-0.2,0.3-0.4,0.6-0.6,0.9
					c-0.2,0.3-0.5,0.5-0.8,0.7c-0.2,0.2-0.5,0.3-0.8,0.3c-0.2,0-0.4-0.1-0.6-0.2c-0.2-0.2-0.3-0.4-0.4-0.7c-0.1-0.3-0.1-0.7-0.1-1
					c0-0.1,0-0.3,0-0.4s0-0.3,0-0.5s0-0.3,0-0.5S151.4,159.8,151.4,159.7z M154.4,158c0-0.3-0.1-0.7-0.3-0.9s-0.5-0.2-0.7,0
					c-0.3,0.2-0.6,0.5-0.7,0.8c-0.2,0.4-0.3,0.9-0.3,1.3c0,0.3,0,0.5,0,0.9s0,0.6,0,0.9c0,0.3,0.1,0.7,0.3,0.9s0.5,0.2,0.7,0
					c0.3-0.2,0.6-0.5,0.7-0.8c0.2-0.4,0.3-0.8,0.3-1.3c0-0.3,0-0.6,0-0.9S154.4,158.3,154.4,158L154.4,158z"/>
				<path class="st2" d="M159.1,152.6h0.1c0,0,0.1,0.1,0.1,0.2v0.7c0,0.1,0,0.2-0.1,0.2c0,0.1-0.1,0.1-0.1,0.1l-1.2,0.7v5.5
					c0,0.1,0,0.1,0,0.2c0,0.1-0.1,0.1-0.1,0.1l-0.5,0.3h-0.1c0,0-0.1-0.1-0.1-0.2v-5.5l-1.2,0.7h-0.1c0-0.1,0-0.1,0-0.2v-0.7
					c0-0.1,0-0.1,0-0.2c0-0.1,0.1-0.1,0.1-0.1L159.1,152.6z"/>
				<path class="st2" d="M161.6,151.2c0.1,0,0.1,0,0.2,0c0,0.1,0.1,0.1,0.1,0.2l1.6,5.4c0,0,0,0,0,0.1s0,0.1,0,0.2
					c0,0.1-0.1,0.1-0.1,0.1l-0.5,0.3c-0.1,0.1-0.1,0.1-0.2,0l-0.1-0.1l-0.3-1l-2.1,1.2l-0.3,1.3c0,0.1,0,0.1-0.1,0.2
					c0,0.1-0.1,0.2-0.2,0.2l-0.5,0.3H159l0,0c0,0-0.1-0.1-0.1-0.2c0,0,0,0,0-0.1l1.6-7.3c0-0.1,0.1-0.2,0.1-0.3s0.1-0.1,0.2-0.2
					L161.6,151.2z M162,155.4l-0.7-2.5l-0.7,3.3L162,155.4z"/>
				<path class="st2" d="M167.1,153.8h0.1l0,0c0,0,0.1,0.1,0.1,0.2v0.7c0,0.1,0,0.2-0.1,0.2c0,0.1-0.1,0.1-0.1,0.1l-2.9,1.6h-0.1
					c0-0.1,0-0.1,0-0.2V150c0-0.1,0-0.1,0-0.2c0-0.1,0.1-0.1,0.1-0.1l0.5-0.3h0.1c0,0,0.1,0.1,0.1,0.2v5.5L167.1,153.8z"/>
				<path class="st2" d="M174.4,143.9c0.2,0,0.4,0,0.6,0c0.2,0,0.3,0.1,0.4,0.2c0.1,0.1,0.2,0.2,0.2,0.4c0.1,0.2,0.1,0.3,0.1,0.5
					c0,0.1,0,0.2-0.1,0.2c0,0.1-0.1,0.1-0.1,0.1l-0.5,0.3c-0.1,0-0.1,0.1-0.2,0l-0.1-0.1c-0.1-0.1-0.2-0.2-0.3-0.3
					c-0.1,0-0.3,0-0.6,0.2c-0.1,0.1-0.2,0.1-0.3,0.2c-0.1,0.1-0.2,0.2-0.3,0.3s-0.1,0.2-0.2,0.4c0,0.1-0.1,0.2-0.1,0.4
					c0,0.1,0,0.2,0.1,0.3s0.1,0.1,0.2,0.1c0.1,0,0.3,0,0.4,0l0.6-0.1c0.2-0.1,0.4-0.1,0.7-0.1c0.2,0,0.3,0.1,0.4,0.2
					c0.1,0.1,0.2,0.3,0.2,0.4c0.1,0.2,0.1,0.5,0.1,0.7c0,0.5-0.1,1.1-0.4,1.6c-0.1,0.3-0.3,0.5-0.4,0.7c-0.2,0.2-0.4,0.4-0.6,0.6
					v0.7c0,0.1,0,0.1,0,0.2c0,0.1-0.1,0.1-0.1,0.1l-0.5,0.3h-0.1c0,0-0.1-0.1-0.1-0.2v-0.7c-0.2,0.1-0.4,0.1-0.6,0.1
					c-0.2,0-0.3-0.1-0.4-0.1c-0.1-0.1-0.2-0.2-0.3-0.4s-0.1-0.4-0.1-0.6c0-0.1,0-0.1,0-0.2c0-0.1,0.1-0.1,0.1-0.1l0.5-0.3
					c0.1,0,0.1,0,0.2,0l0.1,0.1c0,0.1,0.1,0.1,0.1,0.2c0,0.1,0.1,0.1,0.2,0.1c0.1,0,0.2,0,0.3,0s0.3-0.1,0.4-0.2
					c0.1-0.1,0.3-0.2,0.4-0.3c0.1-0.1,0.2-0.2,0.3-0.3s0.2-0.3,0.2-0.4c0.1-0.1,0.1-0.3,0.1-0.4c0-0.1,0-0.2-0.1-0.3
					s-0.2-0.1-0.3-0.1c-0.2,0-0.3,0-0.5,0.1c-0.2,0-0.4,0.1-0.6,0.1c-0.2,0-0.4,0-0.6,0c-0.1,0-0.3-0.1-0.4-0.2
					c-0.1-0.1-0.2-0.3-0.2-0.4c-0.1-0.2-0.1-0.5-0.1-0.7c0-0.3,0-0.5,0.1-0.8s0.2-0.5,0.3-0.8c0.1-0.2,0.3-0.5,0.4-0.7
					c0.2-0.2,0.3-0.4,0.5-0.6v-0.7c0-0.1,0-0.2,0.1-0.2c0-0.1,0.1-0.1,0.1-0.2l0.5-0.3h0.1l0,0c0,0.1,0,0.1,0,0.2L174.4,143.9z"/>
				<path class="st2" d="M178.9,141.3c0.2-0.1,0.4-0.1,0.6,0c0.2,0,0.3,0.1,0.4,0.2c0.1,0.1,0.2,0.2,0.2,0.4
					c0.1,0.1,0.1,0.3,0.1,0.5c0,0.1,0,0.2-0.1,0.2c0,0.1-0.1,0.1-0.1,0.1l-0.5,0.3c-0.1,0-0.1,0-0.2,0l-0.1-0.1
					c-0.1-0.1-0.2-0.2-0.3-0.3c-0.2,0-0.4,0-0.6,0.1c-0.1,0.1-0.2,0.2-0.3,0.2c-0.1,0.1-0.2,0.2-0.3,0.3s-0.1,0.2-0.2,0.4
					c0,0.1-0.1,0.2-0.1,0.4c0,0.1,0,0.2,0.1,0.3s0.1,0.1,0.2,0.1c0.1,0,0.3,0,0.4-0.1l0.6-0.1c0.2-0.1,0.4-0.1,0.7-0.1
					c0.2,0,0.3,0.1,0.4,0.2c0.1,0.1,0.2,0.3,0.2,0.4c0.1,0.2,0.1,0.5,0.1,0.7c0,0.3,0,0.5-0.1,0.8s-0.2,0.5-0.3,0.8
					s-0.3,0.5-0.4,0.7c-0.2,0.2-0.4,0.4-0.6,0.6v0.7c0,0.1,0,0.2-0.1,0.2c0,0.1-0.1,0.1-0.1,0.1l-0.5,0.3h-0.1c0-0.1,0-0.1,0-0.2
					v-0.7c-0.2,0.1-0.4,0.1-0.6,0.1c-0.2,0-0.3-0.1-0.4-0.1c-0.1-0.1-0.2-0.2-0.3-0.4s-0.1-0.4-0.1-0.6c0-0.1,0-0.2,0.1-0.2
					c0-0.1,0.1-0.1,0.1-0.1l0.5-0.3c0.1,0,0.1,0,0.2,0s0.1,0.1,0.1,0.1c0,0.1,0.1,0.1,0.1,0.2c0,0.1,0.1,0.1,0.2,0.1
					c0.1,0,0.2,0,0.3,0s0.3-0.1,0.4-0.2c0.1-0.1,0.3-0.2,0.4-0.3c0.1-0.1,0.2-0.2,0.3-0.3s0.2-0.2,0.2-0.4c0.1-0.1,0.1-0.3,0.1-0.4
					c0-0.1,0-0.2-0.1-0.3s-0.2-0.1-0.3-0.1c-0.2,0-0.3,0-0.5,0.1s-0.4,0.1-0.6,0.1c-0.2,0-0.4,0-0.6,0c-0.1,0-0.3-0.1-0.4-0.2
					c-0.1-0.1-0.2-0.3-0.2-0.4c-0.1-0.5-0.1-1,0-1.5c0.1-0.3,0.2-0.5,0.3-0.8c0.1-0.2,0.3-0.5,0.4-0.7c0.2-0.2,0.3-0.4,0.5-0.6v-0.7
					c0-0.1,0-0.1,0-0.2c0-0.1,0.1-0.1,0.1-0.1l0.5-0.3h0.1l0,0c0,0,0.1,0.1,0.1,0.2L178.9,141.3z"/>
				<path class="st2" d="M183.5,138.6c0.2-0.1,0.4-0.1,0.6,0c0.2,0,0.3,0.1,0.4,0.2c0.1,0.1,0.2,0.2,0.2,0.4
					c0.1,0.1,0.1,0.3,0.1,0.5c0,0.1,0,0.2-0.1,0.2c0,0.1-0.1,0.1-0.1,0.1l-0.5,0.3c-0.1,0-0.1,0-0.2,0l-0.1-0.1
					c-0.1-0.1-0.2-0.2-0.3-0.3c-0.2,0-0.4,0-0.6,0.1c-0.1,0.1-0.2,0.2-0.3,0.2c-0.1,0.1-0.2,0.2-0.3,0.3s-0.1,0.2-0.2,0.4
					c0,0.1-0.1,0.3-0.1,0.4c0,0.1,0,0.2,0.1,0.3s0.1,0.1,0.2,0.1c0.1,0,0.3,0,0.4,0l0.6-0.1c0.2-0.1,0.4-0.1,0.7-0.1
					c0.2,0,0.3,0.1,0.4,0.2c0.1,0.1,0.2,0.3,0.2,0.4c0.1,0.2,0.1,0.5,0.1,0.7c0,0.3,0,0.5-0.1,0.8s-0.2,0.5-0.3,0.8
					c-0.3,0.5-0.6,1-1.1,1.3v0.7c0,0.1,0,0.1,0,0.2c0,0.1-0.1,0.1-0.1,0.1l-0.5,0.3c-0.1,0-0.1,0-0.1,0s-0.1-0.1-0.1-0.2v-0.7
					c-0.2,0.1-0.4,0.1-0.6,0.1c-0.2,0-0.3-0.1-0.4-0.1c-0.1-0.1-0.2-0.2-0.3-0.4s-0.1-0.4-0.1-0.6c0-0.1,0-0.2,0-0.2
					c0-0.1,0.1-0.1,0.1-0.1l0.4-0.3c0.1-0.1,0.1-0.1,0.2,0l0.1,0.1c0,0.1,0.1,0.1,0.1,0.2c0,0.1,0.1,0.1,0.2,0.1c0.1,0,0.2,0,0.3,0
					s0.3-0.1,0.4-0.2c0.1-0.1,0.3-0.2,0.4-0.3c0.1-0.1,0.2-0.2,0.3-0.3s0.2-0.3,0.2-0.4c0.1-0.1,0.1-0.3,0.1-0.4
					c0-0.1,0-0.2-0.1-0.3s-0.2-0.1-0.3-0.1c-0.2,0-0.3,0-0.5,0.1l-0.6,0.1c-0.2,0-0.4,0-0.6,0c-0.1,0-0.3-0.1-0.4-0.2
					c-0.1-0.1-0.2-0.3-0.2-0.4c-0.1-0.2-0.1-0.5-0.1-0.7c0-0.3,0-0.5,0.1-0.8s0.2-0.5,0.3-0.8c0.1-0.2,0.3-0.5,0.4-0.7
					c0.2-0.2,0.3-0.4,0.5-0.6v-0.7c0-0.1,0-0.2,0.1-0.2c0-0.1,0.1-0.1,0.1-0.1l0.5-0.3h0.1c0,0.1,0,0.1,0,0.2L183.5,138.6z"/>
				<path class="st10" d="M152.1,177.9c-0.2,0-0.4,0-0.6-0.1c-0.4-0.3-0.7-0.8-0.6-1.4c0.1-1.3,0.8-2.6,1.9-3.3
					c0.4-0.3,1-0.4,1.5-0.1c0.4,0.3,0.7,0.8,0.6,1.3c-0.1,1.3-0.8,2.6-1.9,3.3C152.7,177.8,152.4,177.9,152.1,177.9z M153.7,173.2
					c-0.3,0-0.5,0.1-0.7,0.2c-1,0.7-1.7,1.8-1.7,3c-0.1,0.5,0.2,1,0.7,1.1c0.3,0.1,0.6,0,0.8-0.2c1-0.7,1.7-1.8,1.7-3
					c0-0.4-0.1-0.8-0.4-1C153.9,173.2,153.8,173.2,153.7,173.2z"/>
				<path class="st4" d="M110.3,133.5l4.9,2.9c-0.3,0.5-0.5,1-0.5,1.6v62.4c0,0.9,0.6,1.5,1.6,0.9c-1,0.5-2.1,0.5-3.1,0.1l-2.1-1.2
					c-0.8-0.6-1.3-1.5-1.4-2.4v-62.6C109.9,134.5,110,134,110.3,133.5z"/>
			</g>
		</g>
		<g id="freepik--Table--inject-3">
			<polygon class="st10" points="266.9,364.4 266.9,240.1 207.1,205.5 207.1,329.9 			"/>
			<polygon class="st12" points="266.9,364.4 266.9,240.1 207.1,205.5 207.1,329.9 			"/>
			<polygon class="st10" points="266.9,364.4 278.9,357.5 278.9,233.1 266.9,240.1 			"/>
			<polygon class="st5" points="266.9,364.4 278.9,357.5 278.9,233.1 266.9,240.1 			"/>
			<polygon class="st13" points="135.3,440.4 135.3,316 75.5,281.5 75.5,405.8 			"/>
			<polygon class="st10" points="135.3,440.4 147.3,433.4 147.3,309.1 135.3,316 			"/>
			<polygon class="st5" points="135.3,440.4 147.3,433.4 147.3,309.1 135.3,316 			"/>
			<polygon class="st10" points="135.3,302.2 283.2,216.8 217.4,178.8 69.5,264.2 			"/>
			<polygon class="st13" points="135.3,302.2 283.2,216.8 217.4,178.8 69.5,264.2 			"/>
			<polygon class="st10" points="135.3,316 135.3,302.2 69.5,264.2 69.5,278 			"/>
			<polygon class="st14" points="135.3,316 135.3,302.2 69.5,264.2 69.5,278 			"/>
			<polygon class="st10" points="135.3,302.2 283.2,216.8 283.2,230.6 135.3,316 			"/>
			<polygon class="st15" points="135.3,302.2 283.2,216.8 283.2,230.6 135.3,316 			"/>
			<polygon class="st10" points="219.1,267.7 219.1,371.3 147.3,412.8 147.3,309.1 			"/>
			<polygon class="st16" points="219.1,267.7 219.1,371.3 147.3,412.8 147.3,309.1 			"/>
			<polygon class="st9" points="219.1,270 219.1,267.7 147.3,309.1 147.3,412.8 149.5,411.5 149.5,379.3 219.1,339.1 219.1,336.8 
				149.5,376.9 149.5,344.8 219.1,304.6 219.1,302.2 149.5,342.4 149.5,310.2 			"/>
			<path class="st3" d="M185.3,301l-4.3,2.5c-2.1,1.2-3.8,3.8-3.8,5.7s1.7,2.5,3.8,1.2l4.4-2.5c2.1-1.2,3.8-3.8,3.8-5.7
				S187.5,299.8,185.3,301z"/>
			<path class="st3" d="M185.3,335.5L181,338c-2.1,1.2-3.8,3.8-3.8,5.7s1.7,2.5,3.8,1.2l4.3-2.5c2.1-1.2,3.8-3.8,3.8-5.7
				S187.5,334.3,185.3,335.5z"/>
			<path class="st3" d="M185.3,370.1l-4.3,2.5c-2.1,1.2-3.8,3.8-3.8,5.7s1.7,2.5,3.8,1.2l4.3-2.5c2.1-1.2,3.8-3.8,3.8-5.7
				S187.5,368.9,185.3,370.1z"/>
			<path class="st10" d="M135.3,335.6l-59.8-34.5l-50,28.7c-1.1,0.5-1.9,1.6-2,2.8v5.2c0.1,1.2,0.9,2.3,2,2.8l50.3,29
				c3,1.5,6.6,1.5,9.7,0l49.9-28.8L135.3,335.6z"/>
			<path class="st14" d="M80.6,365.6v5.2c-1.7,0-3.3-0.4-4.8-1.2l-50.3-29c-1.1-0.5-1.9-1.6-2-2.8v-5.3c0.1,1.2,0.9,2.3,2,2.8
				l50.3,29C77.3,365.2,78.9,365.6,80.6,365.6z"/>
			<path class="st15" d="M135.3,335.6v5.2l-49.9,28.8c-1.5,0.8-3.1,1.2-4.8,1.2v-5.2c1.7,0,3.3-0.4,4.8-1.2L135.3,335.6z"/>
			<path class="st17" d="M75.5,301.1l-50,28.7c-1.5,0.6-2.3,2.3-1.7,3.9c0.3,0.8,0.9,1.4,1.7,1.7l50.3,29c3,1.5,6.6,1.5,9.7,0
				l49.9-28.8L75.5,301.1z"/>
			<polygon class="st4" points="190.2,210.9 226.1,231.6 172.3,262.7 136.4,242 			"/>
			<polygon class="st2" points="190.2,213 224.1,232.8 172.3,262.7 138.2,243 			"/>
			<path class="st10" d="M157.4,246.1c-0.1,0-0.2,0-0.3-0.1l-6.5-3.7c-0.2-0.1-0.3-0.3-0.3-0.5s0.1-0.4,0.3-0.5l6.9-4
				c0.3-0.2,0.6-0.1,0.8,0.2s0.1,0.6-0.2,0.8l0,0l-6.1,3.5l5.6,3.2c0.3,0.2,0.3,0.5,0.2,0.8C157.8,246,157.6,246.1,157.4,246.1z"/>
			<path class="st10" d="M182.7,224c-0.3,0-0.5-0.3-0.5-0.6c0-0.2,0.1-0.3,0.2-0.4l6.9-4c0.2-0.1,0.4-0.1,0.6,0l6.9,4
				c0.3,0.1,0.4,0.5,0.2,0.7l0,0c-0.2,0.3-0.5,0.4-0.8,0.2l-6.6-3.8l-6.6,3.8C182.9,224.1,182.8,224.1,182.7,224z"/>
			<path class="st10" d="M173.6,255.5c-0.1,0-0.2,0-0.3-0.1l-6.8-3.9c-0.3-0.1-0.4-0.5-0.2-0.7l0,0c0.2-0.3,0.5-0.4,0.8-0.2l6.5,3.8
				l6.6-3.8c0.3-0.2,0.6-0.1,0.8,0.2s0.1,0.6-0.2,0.8l-6.9,4C173.8,255.5,173.7,255.5,173.6,255.5z"/>
			<path class="st10" d="M205.4,237.1c-0.2,0-0.4-0.1-0.5-0.3c-0.2-0.3-0.1-0.6,0.2-0.8l6.1-3.5l-6.1-3.5c-0.3-0.2-0.4-0.5-0.2-0.8
				s0.5-0.4,0.8-0.2l0,0l6.9,4c0.2,0.1,0.3,0.3,0.3,0.5s-0.1,0.4-0.3,0.5l-6.9,4C205.6,237.1,205.5,237.1,205.4,237.1z"/>
			<polygon class="st3" points="190.2,213 190.2,210.9 226.1,231.6 224.1,232.8 			"/>
		</g>
		<g id="freepik--Terminal--inject-3">
			<path class="st9" d="M135,281.8l-30.2-17.4c-1.3-0.8-1.3-2,0-2.8l18-10.4c1.5-0.8,3.3-0.8,4.8,0l30.2,17.4c1.3,0.8,1.3,2,0,2.8
				l-18,10.4C138.3,282.5,136.5,282.5,135,281.8z"/>
			<g id="freepik--Device--inject-3">
				<path class="st4" d="M138.1,254.2L138.1,254.2H138l-0.4,0.2c-0.1,0.1-0.2,0.2-0.2,0.3v4.9l17.5,9.9l0.7-5.2L138.1,254.2z"/>
				<path class="st2" d="M155.6,264.3h-0.1l-0.4,0.2l-0.1,0.1l-17.5-10.1l0.1-0.1l0.4-0.2h0.1l0,0L155.6,264.3z"/>
				<path class="st3" d="M155.5,264.3l-0.4,0.2c-0.1,0.1-0.1,0.2-0.1,0.3v4.7l0.7,0.4v-5.5C155.6,264.3,155.6,264.3,155.5,264.3z"/>
				<polygon points="154.9,269.5 154.9,269.8 153.8,270.3 136.4,260.2 137.4,259.6 				"/>
				<path class="st3" d="M154.2,271l1.3-0.8c0.1-0.1,0.1-0.2,0.1-0.3l-0.7-0.4c0,0.1-0.1,0.2-0.2,0.3l-0.4,0.2c-0.1,0-0.1,0-0.1-0.1
					L154.2,271L154.2,271z"/>
				<path class="st4" d="M154.1,265.1l-1.7,0.9c0,0.1,0,0.1,0,0.2v5.5v0.1l-17.4-10l0,0c0,0,0,0,0-0.1v-5.5c0-0.1,0.1-0.2,0.1-0.3
					l1.5-0.9c0.1,0,0.1,0,0.1,0L154.1,265.1z"/>
				<path class="st18" d="M154.1,265.1l-16-9.2l-0.7-0.4l-0.8-0.4h-0.1L135,256l-0.1,0.1l17.5,10L154.1,265.1z"/>
				<path class="st3" d="M152.4,266.1c0,0.1,0,0.1,0,0.2v5.5c0,0.1,0.1,0.1,0.1,0.1l1.7-1v-5.7c0,0,0-0.1-0.1-0.1L152.4,266.1z"/>
				<path class="st4" d="M152.5,271.9L152.5,271.9l0.3-0.1c0.2-0.3,0.4-0.7,0.4-1.1V266c0-0.1,0-0.2,0-0.3l-0.1,0.1
					c0,0.1,0,0.2,0,0.2v4.7C153.1,271.1,152.9,271.6,152.5,271.9z"/>
				<path class="st2" d="M133,249.7c-0.7-0.5-1.5-1-2.3-1.5l-7-4c-0.5-0.2-1.1-0.2-1.6,0l-14.1,8.1c-0.5,0.3-0.7,0.8-0.8,1.3v8.6
					c0,0.5,0.3,1,0.8,1.3l28.7,16.6c0.5,0.2,1.1,0.2,1.6,0l14.1-8.2c0.5-0.3,0.7-0.8,0.8-1.3v-4.8c0-0.5-0.2-0.9-0.6-1.2
					C149.2,262.2,133.9,250.5,133,249.7z"/>
				<path class="st3" d="M153.1,270.7V266c0-0.1,0-0.2,0-0.3l-15.7,9c0,0.1,0,0.2,0,0.3v4.7c0,0.5-0.3,0.6-0.7,0.5l0,0h0.1h0.1h0.1
					h0.1h0.5h0.1h0.1h0.1h0.1l0.1-0.1l0,0l14.2-8.1l0.2-0.1C152.9,271.6,153.1,271.1,153.1,270.7z"/>
				<path class="st4" d="M117.3,258.8c2.7,2.1,16.5,12.6,19.5,14.9c0.4,0.3,0.6,0.7,0.6,1.2v4.8c0,0.5-0.4,0.7-0.8,0.4L108,263.6
					c-0.5-0.3-0.7-0.8-0.8-1.3v-8.6c0-0.5,0.3-0.7,0.8-0.4l7,4C115.8,257.7,116.5,258.2,117.3,258.8z"/>
				<path class="st1" d="M117.2,256c0.8,0.4,1.6,0.9,2.3,1.5c0.6,0.5,1.1,1,1.6,1.5c0.2,0.2,0.6,0.3,0.9,0.1l10.2-5.9
					c0.2-0.1,0.3-0.3,0.2-0.5c0-0.1-0.1-0.1-0.1-0.1c-0.5-0.5-1.1-1.1-1.6-1.5c-0.7-0.5-1.5-1-2.3-1.5l-3.9-2.3
					c-0.3-0.2-0.7-0.2-1,0l-10.2,5.9c-0.2,0.1-0.2,0.2-0.2,0.4c0,0.1,0.1,0.1,0.2,0.2L117.2,256z"/>
				<path class="st19" d="M123.5,247.8c0.3-0.2,0.7-0.2,1,0l3.9,2.3c0.8,0.4,1.6,0.9,2.3,1.5c0.6,0.5,1.1,1,1.6,1.5c0,0,0,0,0,0.1
					l-0.1,0.1l-10.2,5.9c-0.3,0.2-0.6,0.1-0.9-0.1c-0.5-0.5-1.1-1.1-1.6-1.5c-0.7-0.5-1.5-1-2.3-1.5l-3.9-2.3h-0.1h0.1L123.5,247.8z
					"/>
				<path class="st10" d="M132.8,255.7L132.8,255.7l0.1-0.4h0.4l1.2-0.7c0.6-0.3,1.3-0.3,1.8,0.1c0.1,0.1,0.1,0.2,0.2,0.3h0.1
					l-0.1,0.4l0,0c-0.1,0.3-0.3,0.5-0.6,0.7l-1.5,0.9c-0.3,0.1-0.6,0.1-0.8-0.1s-0.5-0.5-0.7-0.8C132.8,256,132.7,255.8,132.8,255.7
					z"/>
				<path class="st20" d="M132.8,255.7L132.8,255.7l0.1-0.4h0.4l1.2-0.7c0.6-0.3,1.3-0.3,1.8,0.1c0.1,0.1,0.1,0.2,0.2,0.3h0.1
					l-0.1,0.4l0,0c-0.1,0.3-0.3,0.5-0.6,0.7l-1.5,0.9c-0.3,0.1-0.6,0.1-0.8-0.1s-0.5-0.5-0.7-0.8C132.8,256,132.7,255.8,132.8,255.7
					z"/>
				<path class="st10" d="M134.4,256.6l1.5-0.9c0.6-0.4,0.8-1,0.4-1.4c-0.5-0.4-1.2-0.5-1.8-0.1l-1.5,0.9c-0.2,0.1-0.3,0.3-0.2,0.5
					c0,0,0,0.1,0.1,0.1c0.2,0.3,0.5,0.5,0.7,0.8C133.9,256.7,134.2,256.7,134.4,256.6z"/>
				<path class="st10" d="M124.1,260.9L124.1,260.9l0.1-0.4h0.1c0.1-0.1,0.2-0.2,0.4-0.3l1.5-0.9c0.3-0.1,0.6-0.1,0.8,0.1
					c0.2,0.3,0.5,0.5,0.7,0.8h0.2l-0.1,0.4l0,0c0,0.1-0.1,0.2-0.2,0.2l-1.5,0.9c-0.6,0.3-1.3,0.3-1.8-0.1
					C124.1,261.4,124,261.2,124.1,260.9z"/>
				<path class="st20" d="M124.1,260.9L124.1,260.9l0.1-0.4h0.1c0.1-0.1,0.2-0.2,0.4-0.3l1.5-0.9c0.3-0.1,0.6-0.1,0.8,0.1
					c0.2,0.3,0.5,0.5,0.7,0.8h0.2l-0.1,0.4l0,0c0,0.1-0.1,0.2-0.2,0.2l-1.5,0.9c-0.6,0.3-1.3,0.3-1.8-0.1
					C124.1,261.4,124,261.2,124.1,260.9z"/>
				<path class="st10" d="M126.2,261.4l1.5-0.9c0.2-0.1,0.3-0.3,0.2-0.5l-0.1-0.1c-0.2-0.2-0.5-0.5-0.7-0.8
					c-0.2-0.2-0.5-0.3-0.8-0.1l-1.5,0.9c-0.6,0.3-0.8,1-0.4,1.4C124.9,261.7,125.6,261.7,126.2,261.4z"/>
				<path class="st10" d="M128.1,258.3L128.1,258.3l0.1-0.4h0.3l2-1.2c0.4-0.2,0.8-0.1,1.1,0.2l0.6,0.7l0.1,0.1h0.2l-0.1,0.4l0,0
					c0,0.2-0.1,0.3-0.3,0.4l-2.1,1.2c-0.4,0.2-0.8,0.1-1.1-0.1c-0.2-0.2-0.4-0.5-0.6-0.7C128.2,258.7,128.1,258.5,128.1,258.3z"/>
				<path class="st20" d="M128.1,258.3L128.1,258.3l0.1-0.4h0.3l2-1.2c0.4-0.2,0.8-0.1,1.1,0.2l0.6,0.7l0.1,0.1h0.2l-0.1,0.4l0,0
					c0,0.2-0.1,0.3-0.3,0.4l-2.1,1.2c-0.4,0.2-0.8,0.1-1.1-0.1c-0.2-0.2-0.4-0.5-0.6-0.7C128.2,258.7,128.1,258.5,128.1,258.3z"/>
				<path class="st10" d="M128.4,258.4l0.6,0.7c0.3,0.3,0.7,0.3,1.1,0.1l2.2-1.2c0.3-0.1,0.4-0.4,0.2-0.7c0-0.1-0.1-0.1-0.1-0.2
					l-0.6-0.7c-0.3-0.3-0.7-0.4-1.1-0.2l-2.2,1.3c-0.3,0.1-0.4,0.5-0.2,0.7C128.3,258.3,128.3,258.3,128.4,258.4z"/>
				<path class="st10" d="M131.4,263.1H131l-1.1-0.9c-0.2-0.1-0.5-0.2-0.7,0l-1.7,1H127v0.4l0,0c0,0.1,0.1,0.2,0.1,0.2l1.4,1.1
					c0.2,0.1,0.5,0.1,0.7,0l2.1-1.2c0.1,0,0.2-0.1,0.1-0.2l0,0L131.4,263.1z"/>
				<path class="st20" d="M131.4,263.1H131l-1.1-0.9c-0.2-0.1-0.5-0.2-0.7,0l-1.7,1H127v0.4l0,0c0,0.1,0.1,0.2,0.1,0.2l1.4,1.1
					c0.2,0.1,0.5,0.1,0.7,0l2.1-1.2c0.1,0,0.2-0.1,0.1-0.2l0,0L131.4,263.1z"/>
				<path class="st10" d="M127.1,263l2.1-1.2c0.2-0.1,0.5-0.1,0.7,0l1.4,1.1c0.1,0.1,0.2,0.2,0.1,0.4l-0.1,0.1l-2.1,1.2
					c-0.2,0.1-0.5,0.1-0.7,0l-1.4-1.1c-0.1,0-0.3-0.1-0.3-0.2S127,263,127.1,263z"/>
				<path class="st10" d="M140.5,270.1h-0.4l-1.1-0.9c-0.2-0.1-0.5-0.2-0.7,0l-1.7,1h-0.5v0.4l0,0c0,0.1,0.1,0.2,0.1,0.2l1.4,1.1
					c0.2,0.1,0.5,0.1,0.7,0l2.1-1.2c0.1,0,0.1-0.1,0.1-0.2l0,0L140.5,270.1z"/>
				<path class="st20" d="M140.5,270.1h-0.4l-1.1-0.9c-0.2-0.1-0.5-0.2-0.7,0l-1.7,1h-0.5v0.4l0,0c0,0.1,0.1,0.2,0.1,0.2l1.4,1.1
					c0.2,0.1,0.5,0.1,0.7,0l2.1-1.2c0.1,0,0.1-0.1,0.1-0.2l0,0L140.5,270.1z"/>
				<path class="st10" d="M136.2,269.9l2.1-1.2c0.2-0.1,0.5-0.1,0.7,0l1.4,1.1c0.1,0.1,0.2,0.2,0.1,0.4l-0.1,0.1l-2.1,1.2
					c-0.2,0.1-0.5,0.1-0.7,0l-1.4-1.1c-0.1-0.1-0.2-0.2-0.1-0.3C136.1,270,136.2,270,136.2,269.9z"/>
				<path class="st10" d="M134.5,265.4h-0.4l-1.1-0.9c-0.2-0.1-0.5-0.2-0.7,0l-1.7,1H130v0.5l0,0c0,0.1,0.1,0.2,0.1,0.2l1.4,1.1
					c0.2,0.1,0.5,0.1,0.7,0l2.1-1.2c0.1,0,0.1-0.1,0.1-0.2l0,0L134.5,265.4z"/>
				<path class="st20" d="M134.5,265.4h-0.4l-1.1-0.9c-0.2-0.1-0.5-0.2-0.7,0l-1.7,1H130v0.5l0,0c0,0.1,0.1,0.2,0.1,0.2l1.4,1.1
					c0.2,0.1,0.5,0.1,0.7,0l2.1-1.2c0.1,0,0.1-0.1,0.1-0.2l0,0L134.5,265.4z"/>
				<path class="st10" d="M130.1,265.3l2.1-1.2c0.2-0.1,0.5-0.1,0.7,0l1.4,1.1c0.1,0.1,0.2,0.2,0.1,0.4l-0.1,0.1l-2.1,1.2
					c-0.2,0.1-0.5,0.1-0.7,0l-1.4-1.1c-0.1,0-0.3-0.1-0.3-0.2C129.9,265.4,130,265.3,130.1,265.3z"/>
				<path class="st10" d="M137.5,267.7h-0.4l-1.1-0.8c-0.2-0.1-0.5-0.1-0.7,0l-1.7,1h-0.5v0.4l0,0c0,0.1,0.1,0.2,0.1,0.2l1.4,1.1
					c0.2,0.1,0.5,0.1,0.7,0l2.1-1.2c0.1,0,0.1-0.1,0.1-0.2l0,0L137.5,267.7z"/>
				<path class="st20" d="M137.5,267.7h-0.4l-1.1-0.8c-0.2-0.1-0.5-0.1-0.7,0l-1.7,1h-0.5v0.4l0,0c0,0.1,0.1,0.2,0.1,0.2l1.4,1.1
					c0.2,0.1,0.5,0.1,0.7,0l2.1-1.2c0.1,0,0.1-0.1,0.1-0.2l0,0L137.5,267.7z"/>
				<path class="st10" d="M133.2,267.6l2.1-1.2c0.2-0.1,0.5-0.1,0.7,0l1.4,1.1c0.1,0.1,0.2,0.2,0.1,0.4l-0.1,0.1l-2.1,1.2
					c-0.2,0.1-0.5,0.1-0.7,0l-1.4-1.1C133.1,268,133.1,267.8,133.2,267.6C133.2,267.7,133.2,267.7,133.2,267.6z"/>
				<path class="st10" d="M136.1,260.4h-0.4l-1.1-0.9c-0.2-0.1-0.5-0.1-0.7,0l-1.7,1h-0.5v0.5l0,0c0,0.1,0.1,0.2,0.1,0.2l1.4,1.1
					c0.2,0.1,0.5,0.2,0.7,0l2.1-1.2c0.1,0,0.2-0.1,0.2-0.2l0,0L136.1,260.4z"/>
				<path class="st20" d="M136.1,260.4h-0.4l-1.1-0.9c-0.2-0.1-0.5-0.1-0.7,0l-1.7,1h-0.5v0.5l0,0c0,0.1,0.1,0.2,0.1,0.2l1.4,1.1
					c0.2,0.1,0.5,0.2,0.7,0l2.1-1.2c0.1,0,0.2-0.1,0.2-0.2l0,0L136.1,260.4z"/>
				<path class="st10" d="M131.8,260.3l2.1-1.2c0.2-0.1,0.5-0.1,0.7,0l1.4,1.1c0.1,0.1,0.2,0.2,0.1,0.3c0,0.1-0.1,0.1-0.1,0.1
					l-2.1,1.2c-0.2,0.1-0.5,0.1-0.7,0l-1.4-1.1C131.7,260.6,131.7,260.5,131.8,260.3L131.8,260.3z"/>
				<path class="st10" d="M145.2,267.4h-0.4l-1.1-0.9c-0.2-0.1-0.5-0.1-0.7,0l-1.7,1h-0.5v0.4l0,0c0,0.1,0.1,0.2,0.1,0.2l1.4,1.1
					c0.2,0.1,0.5,0.2,0.7,0l2.1-1.2c0.1,0,0.2-0.1,0.2-0.2l0,0L145.2,267.4z"/>
				<path class="st20" d="M145.2,267.4h-0.4l-1.1-0.9c-0.2-0.1-0.5-0.1-0.7,0l-1.7,1h-0.5v0.4l0,0c0,0.1,0.1,0.2,0.1,0.2l1.4,1.1
					c0.2,0.1,0.5,0.2,0.7,0l2.1-1.2c0.1,0,0.2-0.1,0.2-0.2l0,0L145.2,267.4z"/>
				<path class="st10" d="M140.9,267.2l2.1-1.2c0.2-0.1,0.5-0.1,0.7,0l1.4,1.1c0.1,0.1,0.2,0.2,0.1,0.3c0,0.1-0.1,0.1-0.1,0.1
					l-2.1,1.2c-0.2,0.1-0.5,0.1-0.7,0l-1.4-1.1C140.8,267.5,140.8,267.4,140.9,267.2C140.9,267.3,140.9,267.2,140.9,267.2z"/>
				<path class="st10" d="M139.1,262.7h-0.4l-1.1-0.9c-0.2-0.1-0.5-0.1-0.7,0l-1.7,1h-0.5v0.4l0,0c0,0.1,0.1,0.2,0.1,0.2l1.4,1.1
					c0.2,0.1,0.5,0.2,0.7,0l2.1-1.2c0.1,0,0.2-0.1,0.2-0.2l0,0L139.1,262.7z"/>
				<path class="st20" d="M139.1,262.7h-0.4l-1.1-0.9c-0.2-0.1-0.5-0.1-0.7,0l-1.7,1h-0.5v0.4l0,0c0,0.1,0.1,0.2,0.1,0.2l1.4,1.1
					c0.2,0.1,0.5,0.2,0.7,0l2.1-1.2c0.1,0,0.2-0.1,0.2-0.2l0,0L139.1,262.7z"/>
				<path class="st10" d="M134.8,262.6l2.1-1.2c0.2-0.1,0.5-0.1,0.7,0l1.4,1.1c0.1,0.1,0.2,0.2,0.1,0.3c0,0.1-0.1,0.1-0.1,0.1
					l-2.1,1.2c-0.2,0.1-0.5,0.1-0.7,0l-1.4-1.1C134.7,262.9,134.7,262.8,134.8,262.6L134.8,262.6z"/>
				<path class="st10" d="M142.2,265h-0.4l-1.1-0.9c-0.2-0.1-0.5-0.1-0.7,0l-1.7,1h-0.5v0.4l0,0c0,0.1,0.1,0.2,0.1,0.2l1.4,1.1
					c0.2,0.1,0.5,0.2,0.7,0l2.1-1.2c0.1,0,0.2-0.1,0.2-0.2l0,0L142.2,265z"/>
				<path class="st20" d="M142.2,265h-0.4l-1.1-0.9c-0.2-0.1-0.5-0.1-0.7,0l-1.7,1h-0.5v0.4l0,0c0,0.1,0.1,0.2,0.1,0.2l1.4,1.1
					c0.2,0.1,0.5,0.2,0.7,0l2.1-1.2c0.1,0,0.2-0.1,0.2-0.2l0,0L142.2,265z"/>
				<path class="st10" d="M137.9,264.9l2.1-1.2c0.2-0.1,0.5-0.1,0.7,0l1.4,1.1c0.1,0.1,0.2,0.2,0.1,0.3c0,0.1-0.1,0.1-0.1,0.1
					l-2.1,1.2c-0.2,0.1-0.5,0.1-0.7,0l-1.4-1.1C137.8,265.3,137.7,265.1,137.9,264.9C137.8,265,137.9,264.9,137.9,264.9z"/>
				<path class="st10" d="M140.8,257.7h-0.4l-1.1-0.9c-0.2-0.1-0.5-0.2-0.7,0l-1.7,1h-0.5v0.4l0,0c0,0.1,0.1,0.2,0.1,0.2l1.4,1.1
					c0.2,0.1,0.5,0.1,0.7,0l2.1-1.2c0.1,0,0.2-0.1,0.2-0.2l0,0L140.8,257.7z"/>
				<path class="st20" d="M140.8,257.7h-0.4l-1.1-0.9c-0.2-0.1-0.5-0.2-0.7,0l-1.7,1h-0.5v0.4l0,0c0,0.1,0.1,0.2,0.1,0.2l1.4,1.1
					c0.2,0.1,0.5,0.1,0.7,0l2.1-1.2c0.1,0,0.2-0.1,0.2-0.2l0,0L140.8,257.7z"/>
				<path class="st10" d="M136.5,257.6l2.1-1.2c0.2-0.1,0.5-0.1,0.7,0l1.4,1.1c0.1,0.1,0.2,0.2,0.1,0.3c0,0.1-0.1,0.1-0.1,0.1
					l-2.1,1.2c-0.2,0.1-0.5,0.1-0.7,0l-1.4-1.1c-0.1,0-0.2-0.2-0.2-0.3C136.3,257.7,136.4,257.6,136.5,257.6z"/>
				<path class="st10" d="M149.9,264.7h-0.4l-1.1-0.9c-0.2-0.1-0.5-0.2-0.7,0l-1.7,1h-0.5v0.4l0,0c0,0.1,0.1,0.2,0.1,0.2l1.4,1.1
					c0.2,0.1,0.5,0.1,0.7,0l2.1-1.2c0.1,0,0.2-0.1,0.2-0.2l0,0L149.9,264.7z"/>
				<path class="st20" d="M149.9,264.7h-0.4l-1.1-0.9c-0.2-0.1-0.5-0.2-0.7,0l-1.7,1h-0.5v0.4l0,0c0,0.1,0.1,0.2,0.1,0.2l1.4,1.1
					c0.2,0.1,0.5,0.1,0.7,0l2.1-1.2c0.1,0,0.2-0.1,0.2-0.2l0,0L149.9,264.7z"/>
				<path class="st10" d="M145.6,264.5l2.1-1.2c0.2-0.1,0.5-0.1,0.7,0l1.4,1.1c0.1,0.1,0.2,0.2,0.1,0.4l-0.1,0.1l-2.1,1.2
					c-0.2,0.1-0.5,0.1-0.7,0l-1.4-1.1c-0.1,0-0.2-0.2-0.2-0.3C145.4,264.6,145.5,264.6,145.6,264.5z"/>
				<path class="st10" d="M146.9,262.3h-0.4l-1.1-0.9c-0.2-0.1-0.5-0.2-0.7,0l-1.7,1h-0.5v0.4l0,0c0,0.1,0.1,0.2,0.1,0.2l1.4,1.1
					c0.2,0.1,0.5,0.1,0.7,0l2.1-1.2c0.1,0,0.2-0.1,0.2-0.2l0,0L146.9,262.3z"/>
				<path class="st20" d="M146.9,262.3h-0.4l-1.1-0.9c-0.2-0.1-0.5-0.2-0.7,0l-1.7,1h-0.5v0.4l0,0c0,0.1,0.1,0.2,0.1,0.2l1.4,1.1
					c0.2,0.1,0.5,0.1,0.7,0l2.1-1.2c0.1,0,0.2-0.1,0.2-0.2l0,0L146.9,262.3z"/>
				<path class="st10" d="M142.6,262.2l2.1-1.2c0.2-0.1,0.5-0.1,0.7,0l1.4,1.1c0.1,0.1,0.2,0.2,0.1,0.4l-0.1,0.1l-2.1,1.2
					c-0.2,0.1-0.5,0.1-0.7,0l-1.4-1.1c-0.1,0-0.2-0.2-0.2-0.3C142.4,262.3,142.5,262.2,142.6,262.2z"/>
				<path class="st10" d="M143.8,260h-0.4l-1.1-0.9c-0.2-0.1-0.5-0.2-0.7,0l-1.7,1h-0.5v0.4l0,0c0,0.1,0.1,0.2,0.1,0.2l1.4,1.1
					c0.2,0.1,0.5,0.1,0.7,0l2.1-1.2c0.1,0,0.2-0.1,0.2-0.2l0,0L143.8,260z"/>
				<path class="st20" d="M143.8,260h-0.4l-1.1-0.9c-0.2-0.1-0.5-0.2-0.7,0l-1.7,1h-0.5v0.4l0,0c0,0.1,0.1,0.2,0.1,0.2l1.4,1.1
					c0.2,0.1,0.5,0.1,0.7,0l2.1-1.2c0.1,0,0.2-0.1,0.2-0.2l0,0L143.8,260z"/>
				<path class="st10" d="M139.5,259.9l2.1-1.2c0.2-0.1,0.5-0.1,0.7,0l1.4,1.1c0.1,0.1,0.2,0.2,0.1,0.3c0,0.1-0.1,0.1-0.1,0.1
					l-2.1,1.2c-0.2,0.1-0.5,0.1-0.7,0l-1.4-1.1c-0.1,0-0.2-0.2-0.2-0.3C139.4,260,139.4,259.9,139.5,259.9z"/>
			</g>
		</g>
	</g>
</g>
<g id="freepik--shopping-basket--inject-3">
	<g id="freepik--Groceries--inject-3">
		<polygon class="st10" points="369,335.4 421.5,365.6 454.5,346.6 402.1,316.3 		"/>
		<polygon class="st21" points="369,335.4 421.5,365.6 454.5,346.6 402.1,316.3 		"/>
		<polygon class="st10" points="402.1,269.1 402.1,316.3 369,335.4 361.2,292.7 		"/>
		<polyline class="st21" points="361.2,292.7 402.1,269.1 402.1,316.3 369,335.4 361.2,292.7 		"/>
		<polygon class="st10" points="462.3,303.9 454.5,346.6 402.1,316.3 402.1,269.1 		"/>
		<polygon class="st22" points="462.3,303.9 454.5,346.6 402.1,316.3 402.1,269.1 		"/>
		<path class="st2" d="M465,303.9h-2.7l-60.2-34.8l-40.8,23.6l0.6,0.4l-3.3-0.4c0.1-0.5,0.4-1,0.9-1.2l40.6-23.4
			c1.3-0.7,2.8-0.7,4.1,0l60,34.6C464.3,302.9,465,303.4,465,303.9z"/>
		<path class="st10" d="M432,251.6l-1.4-2.6c1-0.5,2.2-0.5,3.2,0l0,0c0.9,0.6,1.4,1.7,1.1,2.8c-1.6,6.5-7,29.7-7.2,29.9l-2.4-1.4
			L432,251.6z"/>
		<path class="st23" d="M432,251.6l-1.4-2.6c1-0.5,2.2-0.5,3.2,0l0,0c0.9,0.6,1.4,1.7,1.1,2.8c-1.6,6.5-7,29.7-7.2,29.9l-2.4-1.4
			L432,251.6z"/>
		<path class="st10" d="M435.8,250.3c0.9,0.6,1.6,1.6,1.8,2.7l5.3,37.5l-2.7-1.5l-5.6-36.9l-2-1.8
			C433.7,249.8,434.8,249.8,435.8,250.3z"/>
		<g id="freepik--pear--inject-51_7_">
			<path class="st24" d="M413,303c-4.2,3.9-11.3,3.8-15.9,0.6c-3.7-2.5-6.1-8.6-3.8-13.5c0.1-0.2,0.2-0.4,0.3-0.6
				c0.8-1.4,1.2-2.9,1-4.5c0-0.2-0.1-0.4-0.1-0.6c-0.4-4.3,2.3-8.2,6.4-9.5c4.8-1.4,9.9,1.3,11.3,6.1c0.2,0.6,0.3,1.3,0.4,2
				c0.2,1.6,0.9,3.1,2,4.2l0,0C417.9,290.6,417.6,298.7,413,303z"/>
			<path class="st25" d="M416.3,290.4c1.2,4.5-0.1,9.3-3.4,12.6c-4.2,3.9-11.3,3.8-15.9,0.6c-1-0.7-1.9-1.6-2.6-2.7
				c4.7,3.3,10.8,3.7,15.9,1.1C415.8,299,416.5,291.5,416.3,290.4z"/>
			<g class="st26">
				<path class="st19" d="M400.8,282.3c-0.2,0.5-0.4,0.9-0.6,1.4c-0.6,1.1-0.9,2.4-0.9,3.7c0,0.2,0,0.3,0.1,0.5
					c0.1,0.3,0.2,0.7,0.3,1c0.2,0.7,0.2,1.3,0.3,2c-0.2,1.9-0.6,3.8-1.2,5.6c-1.2,4.5,2.1,7,1.7,7.4s-4.7-1.4-5.9-5.7
					c-0.8-2.4-0.8-4.9,0-7.2c0.4-0.9,0.8-1.8,1.1-2.7c0.5-2-0.2-3.8,0-5.8c0.2-2.3,1.6-4.3,3.6-5.3c0.2-0.1,0.3-0.1,0.5-0.1
					c0.1,0.1,0.2,0.3,0.2,0.4c0,0.2-0.1,0.3-0.2,0.4c-0.2,0.5-0.3,1.1-0.1,1.7c0.2,0.6,0.8,0.8,1.1,1.3
					C400.9,281.3,400.9,281.8,400.8,282.3z"/>
			</g>
			<g class="st26">
				<path class="st19" d="M398.9,282.9c-0.4,1-1.8,3.3-2.1,3.2c-0.2-0.1-0.5-0.8-0.5-1.9c0-1.3,0.6-2.6,1.5-3.5
					C399.1,279.8,399.4,281.5,398.9,282.9z"/>
			</g>
			<path class="st25" d="M403.9,279.2c0.9-0.2,1.7-0.8,2.2-1.6c0,0.6-0.6,1.9-2.6,2.5s-3.8-0.6-3.5-1.5c0.3-0.8,1-0.6,1.6,0
				C402.4,279.1,403.2,279.3,403.9,279.2z"/>
			<path class="st3" d="M402.7,279.8c0-2-1.7-5.2-3.5-6.8s-3.3-1.9-3.6-2.3c-0.3-0.4,0.9-1.1,1.9-1.1c0.7-0.1,1.5,0.1,2.2,0.3
				c1.4,1.2,2.4,2.8,3,4.5c0.6,1.8,0.9,3.6,1,5.4C403.3,279.9,403,280,402.7,279.8z"/>
			<path class="st2" d="M399.4,270.5c-0.9,0.3-1.8,0.4-2.7,0.3c-0.9-0.1-1.1-0.3-1.1-0.5c0.5-0.5,1.2-0.8,1.9-0.8c0.7,0,1.3,0,2,0.2
				l0,0l0.1,0C399.9,270,399.8,270.4,399.4,270.5z"/>
			<path class="st25" d="M403.4,278.1c0.1,1,0.1,1.7,0.1,1.7c-0.3,0.2-0.6,0.2-0.8,0c0-2-1.7-5.2-3.5-6.8c-0.6-0.5-1.2-1-1.9-1.4
				l0,0c1.7,0.8,4.1,2.7,4.9,5C403,278.7,403.4,279,403.4,278.1z"/>
			<path class="st27" d="M404,271c1-1,2.5-1.5,3.9-1.3c0.3,0.8,0.4,1.7,0.3,2.6c-0.5,2.4-2.8,3.9-5.1,3.5
				C402.6,274.1,402.9,272.3,404,271z"/>
			<path class="st20" d="M404,271c1-1,2.5-1.5,3.9-1.3c0.3,0.8,0.4,1.7,0.3,2.6c-0.5,2.4-2.8,3.9-5.1,3.5
				C402.6,274.1,402.9,272.3,404,271z"/>
			<path class="st27" d="M403.1,275.8c-0.5-1.7-0.1-3.4,1-4.8c1-1,2.5-1.5,3.9-1.3C407.9,269.8,404.1,272.2,403.1,275.8z"/>
		</g>
		<g id="freepik--pear--inject-51_3_">
			<path class="st28" d="M398.9,308.5c-4,4.1-11.1,4.4-15.9,1.4c-3.8-2.3-6.5-8.2-4.5-13.2c0.1-0.2,0.2-0.5,0.3-0.7
				c0.7-1.4,1-3,0.7-4.6c0-0.2-0.1-0.4-0.1-0.6c-0.6-4.3,1.9-8.3,5.9-9.8c4.7-1.7,9.9,0.7,11.6,5.5c0.2,0.6,0.4,1.3,0.5,2
				c0.2,1.6,1,3,2.2,4.1l0,0C403.1,295.9,403.2,304,398.9,308.5z"/>
			<path class="st25" d="M401.5,295.7c1.4,4.4,0.4,9.3-2.7,12.7c-4,4.1-11.1,4.4-15.9,1.4c-1.1-0.7-2-1.5-2.7-2.5
				c4.8,3,11,3.2,15.9,0.3C401.4,304.3,401.8,296.8,401.5,295.7z"/>
			<g class="st26">
				<path class="st19" d="M385.6,288.5c-0.1,0.5-0.3,1-0.5,1.4c-0.5,1.2-0.7,2.4-0.7,3.7c0,0.2,0,0.3,0.1,0.5c0.1,0.3,0.2,0.6,0.3,1
					c0.2,0.7,0.3,1.3,0.4,2c-0.1,1.9-0.4,3.8-0.9,5.6c-1,4.5,2.4,6.9,2.1,7.3s-4.8-1.2-6.2-5.4c-0.9-2.3-1-4.9-0.4-7.2
					c0.4-0.9,0.7-1.8,0.9-2.8c0.4-2-0.4-3.8-0.3-5.8c0.1-2.3,1.4-4.4,3.3-5.5c0.1-0.1,0.3-0.1,0.5-0.1c0.1,0.1,0.2,0.2,0.2,0.4
					c0,0.2-0.1,0.3-0.1,0.5c-0.2,0.5-0.2,1.1-0.1,1.7c0.2,0.6,0.8,0.7,1.2,1.3C385.6,287.5,385.7,288,385.6,288.5z"/>
			</g>
			<g class="st26">
				<path class="st19" d="M383.7,289.2c-0.3,1-1.6,3.4-1.9,3.3c-0.2-0.1-0.5-0.7-0.6-1.9c0-1.3,0.4-2.6,1.3-3.5
					C383.8,286.1,384.2,287.7,383.7,289.2z"/>
			</g>
			<path class="st29" d="M388.6,285.2c0.9-0.3,1.7-0.9,2.1-1.7c0.1,0.6-0.5,2-2.5,2.7c-2,0.7-3.8-0.4-3.5-1.3
				c0.3-0.8,0.9-0.6,1.6-0.1C387,285.2,387.8,285.4,388.6,285.2z"/>
			<path class="st3" d="M387.4,285.9c-0.1-2-2-5.1-3.9-6.6s-3.4-1.8-3.7-2.1c-0.3-0.4,0.8-1.1,1.8-1.2c0.7-0.1,1.5,0,2.2,0.2
				c1.4,1.1,2.5,2.6,3.2,4.3c0.7,1.7,1.1,3.5,1.2,5.4C388,286,387.7,286,387.4,285.9z"/>
			<path class="st2" d="M383.5,276.8c-0.8,0.4-1.8,0.5-2.7,0.4c-0.9-0.1-1.1-0.3-1.1-0.4c0.5-0.5,1.1-0.8,1.8-0.9
				c0.7-0.1,1.3,0,2,0.1l0,0l0.1,0C384,276.2,383.9,276.6,383.5,276.8z"/>
			<path class="st25" d="M388,284.1c0.2,1,0.2,1.7,0.2,1.7c-0.2,0.2-0.6,0.2-0.8,0.1c-0.1-2-2-5.1-3.9-6.6c-0.6-0.5-1.3-0.9-2-1.3
				l0,0c1.7,0.7,4.3,2.5,5.2,4.7C387.6,284.7,388,285,388,284.1z"/>
			<path class="st27" d="M388.2,277c1-1.1,2.4-1.6,3.8-1.5c0.4,0.8,0.5,1.7,0.4,2.5c-0.3,2.4-2.5,4.1-4.9,3.7
				C386.9,280.2,387.2,278.4,388.2,277z"/>
			<path class="st20" d="M388.2,277c1-1.1,2.4-1.6,3.8-1.5c0.4,0.8,0.5,1.7,0.4,2.5c-0.3,2.4-2.5,4.1-4.9,3.7
				C386.9,280.2,387.2,278.4,388.2,277z"/>
			<path class="st27" d="M387.5,281.8c-0.6-1.6-0.3-3.4,0.7-4.8c1-1.1,2.4-1.6,3.8-1.5C392,275.6,388.4,278.2,387.5,281.8z"/>
		</g>
		<g id="freepik--pear--inject-51_4_">
			<path class="st24" d="M438.9,320.1c-5.1,2.5-11.9,0.2-15.4-4.2c-2.7-3.5-3.3-10,0.4-14c0.2-0.2,0.3-0.4,0.5-0.5
				c1.2-1.1,2-2.5,2.3-4c0-0.2,0.1-0.4,0.1-0.6c0.9-4.2,4.7-7.2,8.9-7.1c5,0,9.1,4.1,9,9.2c0,0.7-0.1,1.3-0.2,2
				c-0.3,1.6-0.1,3.2,0.7,4.6l0,0C447.2,309.7,444.6,317.4,438.9,320.1z"/>
			<path class="st25" d="M445.9,309c-0.2,4.6-2.8,8.8-6.9,11c-5.1,2.5-11.9,0.2-15.4-4.2c-0.8-1-1.3-2.1-1.7-3.3
				c3.5,4.5,9.2,6.8,14.8,5.8C442.8,317.1,445.7,310.2,445.9,309z"/>
			<g class="st26">
				<path class="st19" d="M433.4,296.7c-0.3,0.4-0.6,0.8-1,1.2c-0.9,0.9-1.5,2-2,3.2c0,0.2-0.1,0.3-0.1,0.5c0,0.3,0,0.7,0,1
					c-0.1,0.7-0.2,1.4-0.3,2c-0.7,1.8-1.6,3.4-2.8,5c-2.5,3.9-0.1,7.3-0.6,7.6s-4.1-2.8-4-7.2c-0.1-2.5,0.7-4.9,2.2-6.9
					c0.6-0.7,1.3-1.5,1.8-2.3c1-1.7,0.9-3.7,1.8-5.5c0.9-2.1,2.8-3.6,5-4c0.2-0.1,0.4,0,0.5,0.1c0.1,0.1,0.1,0.3,0,0.4
					c-0.1,0.1-0.2,0.3-0.3,0.4c-0.4,0.4-0.6,1-0.6,1.6c0,0.7,0.5,1,0.6,1.6C433.8,295.8,433.7,296.3,433.4,296.7z"/>
			</g>
			<g class="st26">
				<path class="st19" d="M431.4,296.7c-0.7,0.8-2.7,2.7-2.9,2.4c-0.1-0.1-0.3-0.9,0.1-2c0.4-1.2,1.3-2.3,2.5-2.9
					C432.6,293.8,432.3,295.5,431.4,296.7z"/>
			</g>
			<path class="st25" d="M437.3,294.7c0.9,0.1,1.9-0.3,2.6-0.9c-0.1,0.6-1.2,1.7-3.2,1.7c-2.1,0-3.4-1.7-2.9-2.4
				c0.6-0.7,1.1-0.2,1.6,0.5C435.9,294.2,436.6,294.6,437.3,294.7z"/>
			<path class="st3" d="M436,294.9c0.6-1.9-0.1-5.5-1.4-7.6c-1.2-2.1-2.6-2.8-2.8-3.3c-0.2-0.5,1.2-0.8,2.1-0.5
				c0.7,0.2,1.4,0.5,2,0.9c1,1.6,1.5,3.3,1.5,5.2c0,1.8-0.2,3.7-0.7,5.5C436.5,295.2,436.2,295.1,436,294.9z"/>
			<path class="st2" d="M435.5,285c-0.9,0-1.8-0.1-2.6-0.5c-0.8-0.4-1-0.6-0.9-0.8c0.6-0.3,1.3-0.4,2-0.2c0.7,0.2,1.3,0.4,1.8,0.8
				l0,0l0.1,0C436.2,284.7,436,285,435.5,285z"/>
			<path class="st25" d="M437.2,293.5c-0.2,1-0.4,1.7-0.4,1.7c-0.3,0.1-0.6,0-0.8-0.2c0.6-1.9-0.1-5.5-1.4-7.6
				c-0.4-0.7-0.9-1.3-1.4-1.9l0,0c1.4,1.3,3.1,3.8,3.2,6.2C436.6,293.9,436.9,294.3,437.2,293.5z"/>
			<path class="st27" d="M439.8,286.9c1.3-0.7,2.8-0.7,4.1,0c0.1,0.9-0.1,1.7-0.5,2.5c-1.1,2.1-3.8,2.9-5.9,1.8
				C437.5,289.4,438.4,287.8,439.8,286.9z"/>
			<path class="st20" d="M439.8,286.9c1.3-0.7,2.8-0.7,4.1,0c0.1,0.9-0.1,1.7-0.5,2.5c-1.1,2.1-3.8,2.9-5.9,1.8
				C437.5,289.4,438.4,287.8,439.8,286.9z"/>
			<path class="st27" d="M437.5,291.2c0-1.7,0.9-3.3,2.3-4.3c1.3-0.7,2.8-0.7,4.1,0C443.9,286.8,439.6,288.1,437.5,291.2z"/>
		</g>
		<g id="freepik--Pear--inject-51_3_">
			<path class="st27" d="M429.3,296.9L429.3,296.9c-1.2-1.1-2-2.5-2.3-4.1c-0.1-0.7-0.2-1.3-0.5-2c-1.8-4.7-7-7.1-11.7-5.3
				c-4,1.5-6.4,5.5-5.8,9.8c0,0.2,0.1,0.4,0.1,0.6c0.3,1.6,0,3.2-0.7,4.6c-0.1,0.2-0.2,0.4-0.3,0.7c-2,5,0.7,10.9,4.5,13.2
				c4.8,2.9,11.9,2.6,15.9-1.5C432.9,308.2,432.7,300.2,429.3,296.9z"/>
			<path class="st30" d="M429.3,296.9L429.3,296.9c-1.2-1.1-2-2.5-2.3-4.1c-0.1-0.7-0.2-1.3-0.5-2c-1.8-4.7-7-7.1-11.7-5.3
				c-4,1.5-6.4,5.5-5.8,9.8c0,0.2,0.1,0.4,0.1,0.6c0.3,1.6,0,3.2-0.7,4.6c-0.1,0.2-0.2,0.4-0.3,0.7c-2,5,0.7,10.9,4.5,13.2
				c4.8,2.9,11.9,2.6,15.9-1.5C432.9,308.2,432.7,300.2,429.3,296.9z"/>
			<path class="st25" d="M425.8,312c-4.9,2.9-11.1,2.8-15.9-0.2c0.7,1,1.7,1.9,2.7,2.5c4.8,2.9,11.9,2.6,15.9-1.5
				c3.1-3.5,4.1-8.4,2.6-12.8C431.5,301.1,431.1,308.6,425.8,312z"/>
			<g class="st26">
				<path class="st19" d="M415,291.4c-0.3-0.5-0.9-0.6-1.2-1.3c-0.2-0.6-0.2-1.2,0.1-1.7c0.1-0.1,0.1-0.3,0.1-0.4
					c0-0.2-0.1-0.3-0.2-0.4c-0.2-0.1-0.4,0-0.5,0.1c-2,1.2-3.2,3.3-3.3,5.5c-0.2,2,0.6,3.8,0.3,5.8c-0.2,0.9-0.5,1.9-0.9,2.8
					c-0.7,2.4-0.5,4.9,0.4,7.2c1.4,4.2,5.9,5.8,6.2,5.3s-3.1-2.7-2.1-7.3c0.5-1.8,0.8-3.7,0.8-5.6c-0.1-0.7-0.2-1.4-0.4-2.1
					c-0.1-0.3-0.2-0.6-0.3-1c0-0.1-0.1-0.3-0.1-0.5c0-1.3,0.2-2.5,0.7-3.7c0.2-0.5,0.4-0.9,0.5-1.4
					C415.3,292.4,415.2,291.8,415,291.4z"/>
			</g>
			<g class="st26">
				<path class="st19" d="M412.1,291.4c-0.9,1-1.4,2.2-1.3,3.5c0.1,1.1,0.4,1.8,0.6,1.9c0.2,0.1,1.6-2.3,1.9-3.3
					C413.8,292.1,413.4,290.4,412.1,291.4z"/>
			</g>
			<path class="st27" d="M415.9,289.2c-0.7-0.5-1.4-0.7-1.6,0.1s1.6,2,3.5,1.3c1.9-0.7,2.5-2.1,2.5-2.7c-0.4,0.8-1.2,1.5-2.1,1.8
				C417.4,289.7,416.6,289.6,415.9,289.2z"/>
			<path class="st3" d="M417.8,290.2c-0.1-1.8-0.6-3.6-1.3-5.4c-0.7-1.7-1.8-3.2-3.2-4.3c-0.7-0.2-1.5-0.3-2.2-0.2
				c-1,0.1-2.2,0.8-1.8,1.2s1.8,0.6,3.8,2.1s3.8,4.6,3.9,6.5C417.3,290.3,417.6,290.3,417.8,290.2z"/>
			<path class="st2" d="M413.3,280.5l-0.1,0l0,0c-0.7-0.2-1.3-0.2-2-0.1c-0.7,0-1.3,0.4-1.8,0.9c0,0.2,0.2,0.3,1.1,0.4
				c0.9,0.1,1.8-0.1,2.7-0.4C413.5,281,413.6,280.6,413.3,280.5z"/>
			<path class="st25" d="M416.3,287c-1-2.2-3.5-4-5.2-4.7l0,0c0.7,0.3,1.4,0.8,2,1.3c1.9,1.5,3.8,4.6,3.9,6.5
				c0.3,0.1,0.6,0.1,0.8-0.1c0,0,0-0.7-0.2-1.7C417.6,289.4,417.2,289.1,416.3,287z"/>
			<path class="st27" d="M417.1,286.2c2.4,0.3,4.6-1.3,4.9-3.7c0.1-0.9,0-1.8-0.4-2.6c-1.5-0.1-2.9,0.4-3.8,1.5
				C416.8,282.8,416.5,284.6,417.1,286.2z"/>
			<path class="st20" d="M417.1,286.2c2.4,0.3,4.6-1.3,4.9-3.7c0.1-0.9,0-1.8-0.4-2.6c-1.5-0.1-2.9,0.4-3.8,1.5
				C416.8,282.8,416.5,284.6,417.1,286.2z"/>
			<path class="st27" d="M421.6,279.9c-1.5-0.1-2.9,0.4-3.8,1.5c-1,1.4-1.3,3.2-0.7,4.8C418,282.6,421.6,279.9,421.6,279.9z"/>
		</g>
		<g id="freepik--pear--inject-51_5_">
			<path class="st28" d="M431.2,329.3c-4.9,3-11.9,1.4-15.7-2.6c-3.1-3.2-4.2-9.6-1-13.9c0.2-0.2,0.3-0.4,0.4-0.6
				c1.1-1.2,1.7-2.7,1.9-4.2c0-0.2,0-0.4,0.1-0.6c0.5-4.3,3.9-7.6,8.2-8c5-0.4,9.4,3.2,9.9,8.2c0.1,0.7,0,1.3,0,2
				c-0.2,1.6,0.2,3.2,1.1,4.5l0,0C438.4,318.2,436.5,326,431.2,329.3z"/>
			<path class="st25" d="M437,317.6c0.3,4.6-2,9.1-5.8,11.6c-4.9,3-11.9,1.4-15.7-2.6c-0.9-0.9-1.5-2-2-3.1
				c3.9,4.2,9.8,5.8,15.3,4.3C434.7,326,437,318.8,437,317.6z"/>
			<g class="st26">
				<path class="st19" d="M423.3,306.6c-0.3,0.4-0.6,0.8-0.9,1.2c-0.8,1-1.3,2.2-1.6,3.4c0,0.2,0,0.3,0,0.5c0,0.3,0.1,0.7,0.1,1
					c0,0.7,0,1.4-0.1,2c-0.5,1.8-1.3,3.6-2.3,5.2c-2.1,4.1,0.6,7.3,0.2,7.6c-0.4,0.3-4.3-2.4-4.6-6.8c-0.3-2.5,0.2-5,1.5-7.1
					c0.6-0.8,1.1-1.6,1.6-2.4c0.8-1.8,0.5-3.8,1.2-5.7c0.7-2.2,2.4-3.9,4.6-4.5c0.2-0.1,0.4-0.1,0.5,0c0.1,0.1,0.1,0.3,0.1,0.4
					c-0.1,0.1-0.1,0.3-0.2,0.4c-0.3,0.5-0.5,1-0.5,1.6c0.1,0.7,0.6,0.9,0.8,1.5C423.7,305.6,423.6,306.2,423.3,306.6z"/>
			</g>
			<g class="st26">
				<path class="st19" d="M421.4,306.8c-0.6,0.9-2.4,2.9-2.7,2.7c-0.2-0.1-0.3-0.9-0.1-2c0.3-1.3,1.1-2.4,2.2-3.1
					C422.3,303.8,422.2,305.5,421.4,306.8z"/>
			</g>
			<path class="st29" d="M427.1,304.2c0.9,0,1.8-0.4,2.5-1.1c-0.1,0.6-1,1.8-3.1,2c-2.1,0.2-3.6-1.4-3.1-2.1
				c0.5-0.7,1.1-0.3,1.6,0.3C425.6,303.8,426.3,304.2,427.1,304.2z"/>
			<path class="st3" d="M425.8,304.6c0.4-1.9-0.7-5.4-2.1-7.4c-1.4-2-2.9-2.6-3.1-3c-0.2-0.4,1.1-0.9,2.1-0.7
				c0.7,0.1,1.4,0.3,2.1,0.7c1.1,1.5,1.8,3.2,2,5c0.2,1.8,0.2,3.7-0.2,5.5C426.3,304.8,426,304.7,425.8,304.6z"/>
			<path class="st2" d="M424.4,294.8c-0.9,0.1-1.8,0-2.7-0.3c-0.9-0.3-1-0.5-1-0.7c0.6-0.4,1.3-0.5,2-0.4c0.7,0.1,1.3,0.3,1.9,0.6
				l0,0l0.1,0C425,294.4,424.8,294.7,424.4,294.8z"/>
			<path class="st25" d="M426.8,303c-0.1,1-0.2,1.7-0.2,1.7c-0.3,0.1-0.6,0-0.8-0.2c0.4-1.9-0.7-5.4-2.1-7.4c-0.5-0.6-1-1.2-1.6-1.8
				l0,0c1.5,1.2,3.5,3.5,3.8,5.9C426.2,303.5,426.6,303.9,426.8,303z"/>
			<path class="st27" d="M428.8,296.2c1.2-0.8,2.7-1,4.1-0.4c0.2,0.9,0.1,1.7-0.2,2.6c-0.9,2.2-3.5,3.3-5.7,2.4
				C426.8,299,427.5,297.3,428.8,296.2z"/>
			<path class="st20" d="M428.8,296.2c1.2-0.8,2.7-1,4.1-0.4c0.2,0.9,0.1,1.7-0.2,2.6c-0.9,2.2-3.5,3.3-5.7,2.4
				C426.8,299,427.5,297.3,428.8,296.2z"/>
			<path class="st27" d="M426.9,300.7c-0.1-1.7,0.6-3.4,1.9-4.5c1.2-0.8,2.7-1,4.1-0.4C432.9,295.7,428.7,297.4,426.9,300.7z"/>
		</g>
		<g id="freepik--Pear--inject-51">
			<path class="st27" d="M386.5,300.6L386.5,300.6c-1.3-0.9-2.3-2.2-2.7-3.8c-0.2-0.7-0.4-1.3-0.7-1.9c-2.3-4.5-7.8-6.2-12.3-3.8
				c-3.8,2-5.7,6.3-4.6,10.4c0.1,0.2,0.1,0.4,0.2,0.6c0.5,1.5,0.4,3.1-0.1,4.6c-0.1,0.2-0.2,0.5-0.2,0.7c-1.4,5.2,2.1,10.7,6.1,12.6
				c5.1,2.3,12.2,1.1,15.6-3.5C391.5,311.4,390.3,303.4,386.5,300.6z"/>
			<path class="st15" d="M386.5,300.6L386.5,300.6c-1.3-0.9-2.3-2.2-2.7-3.8c-0.2-0.7-0.4-1.3-0.7-1.9c-2.3-4.5-7.8-6.2-12.3-3.8
				c-3.8,2-5.7,6.3-4.6,10.4c0.1,0.2,0.1,0.4,0.2,0.6c0.5,1.5,0.4,3.1-0.1,4.6c-0.1,0.2-0.2,0.5-0.2,0.7c-1.4,5.2,2.1,10.7,6.1,12.6
				c5.1,2.3,12.2,1.1,15.6-3.5C391.5,311.4,390.3,303.4,386.5,300.6z"/>
			<path class="st25" d="M385,316c-4.5,3.5-10.6,4.2-15.8,1.8c0.9,0.9,1.9,1.6,3,2.2c5.1,2.3,12.2,1.1,15.6-3.5c2.6-3.8,3-8.8,1-13
				C389.2,304.5,389.8,312,385,316z"/>
			<g class="st26">
				<path class="st19" d="M371.6,296.9c-0.4-0.5-1-0.5-1.3-1.1c-0.2-0.5-0.3-1.1-0.2-1.7c0-0.1,0.1-0.3,0.1-0.5
					c0-0.2-0.1-0.3-0.2-0.4c-0.2,0-0.4,0-0.5,0.1c-1.8,1.4-2.8,3.6-2.6,5.9c0.1,2,1.1,3.7,1,5.7c-0.1,1-0.3,1.9-0.5,2.9
					c-0.4,2.5,0.1,5,1.3,7.1c1.9,4,6.6,5,6.9,4.5c0.3-0.5-3.4-2.3-3-6.9c0.3-1.9,0.3-3.8,0.1-5.7c-0.2-0.7-0.4-1.4-0.6-2
					c-0.1-0.3-0.3-0.6-0.4-0.9c-0.1-0.1-0.1-0.3-0.1-0.4c-0.2-1.3-0.1-2.6,0.2-3.8c0.2-0.5,0.3-1,0.4-1.5
					C372.1,297.8,371.9,297.3,371.6,296.9z"/>
			</g>
			<g class="st26">
				<path class="st19" d="M368.8,297.3c-0.8,1.1-1.1,2.4-0.9,3.7c0.2,1.1,0.7,1.7,0.9,1.8c0.2,0,1.3-2.5,1.5-3.5
					C370.5,297.7,370,296.2,368.8,297.3z"/>
			</g>
			<path class="st27" d="M372.3,294.6c-0.8-0.4-1.4-0.5-1.6,0.3c-0.2,0.9,1.8,1.8,3.7,0.8c1.8-1,2.3-2.4,2.1-3c-0.3,0.9-1,1.6-1.9,2
				C373.9,294.9,373.1,294.9,372.3,294.6z"/>
			<path class="st3" d="M374.3,295.3c-0.4-1.8-1-3.5-1.9-5.2c-0.9-1.6-2.2-2.9-3.7-3.9c-0.7-0.1-1.5-0.1-2.2,0.1
				c-1,0.2-2.1,1.1-1.7,1.4c0.4,0.3,1.9,0.3,4,1.6c2.1,1.3,4.4,4.1,4.7,6C373.8,295.5,374.1,295.5,374.3,295.3z"/>
			<path class="st2" d="M368.6,286.3h-0.1l0,0c-0.7-0.1-1.3,0-2,0.1c-0.7,0.1-1.3,0.5-1.7,1.1c0,0.2,0.2,0.3,1.1,0.3
				c0.9,0,1.8-0.3,2.6-0.8C368.9,286.7,368.9,286.4,368.6,286.3z"/>
			<path class="st25" d="M372.4,292.4c-1.2-2.1-4-3.5-5.8-4l0,0c0.8,0.2,1.5,0.6,2.2,1c2.1,1.3,4.4,4.1,4.7,6c0.3,0.1,0.6,0,0.8-0.2
				c0,0-0.1-0.7-0.4-1.6C374,294.6,373.5,294.4,372.4,292.4z"/>
			<path class="st27" d="M373.1,291.5c2.4,0,4.4-1.9,4.4-4.3c0-0.9-0.2-1.8-0.7-2.5c-1.5,0-2.8,0.8-3.6,2
				C372.4,288.2,372.3,290,373.1,291.5z"/>
			<path class="st20" d="M373.1,291.5c2.4,0,4.4-1.9,4.4-4.3c0-0.9-0.2-1.8-0.7-2.5c-1.5,0-2.8,0.8-3.6,2
				C372.4,288.2,372.3,290,373.1,291.5z"/>
			<path class="st27" d="M376.8,284.7c-1.5,0-2.8,0.8-3.6,2c-0.8,1.5-0.9,3.3-0.1,4.9C373.5,287.8,376.8,284.7,376.8,284.7z"/>
		</g>
		<g id="freepik--pear--inject-51">
			<path class="st31" d="M439.7,311.7L439.7,311.7c1.3-0.9,2.3-2.2,2.8-3.7c0.2-0.6,0.4-1.3,0.8-1.9c2.4-4.4,7.9-6.1,12.3-3.7
				c3.8,2,5.6,6.4,4.5,10.5c-0.1,0.2-0.1,0.4-0.2,0.6c-0.5,1.5-0.5,3.1,0.1,4.6c0.1,0.2,0.1,0.5,0.2,0.7c1.3,5.2-2.2,10.7-6.3,12.4
				c-5.1,2.2-12.2,0.9-15.5-3.7C434.6,322.5,435.9,314.5,439.7,311.7z"/>
			<path class="st25" d="M441,327.2c4.5,3.5,10.6,4.3,15.8,2c-0.9,0.9-1.9,1.6-3.1,2.1c-5.1,2.2-12.2,0.9-15.5-3.7
				c-2.6-3.9-2.9-8.8-0.8-13C437,315.6,436.3,323.1,441,327.2z"/>
			<g class="st26">
				<path class="st19" d="M454.7,308.3c0.4-0.5,1-0.5,1.3-1.1c0.3-0.5,0.3-1.1,0.2-1.7c0-0.2-0.1-0.3-0.1-0.5c0-0.2,0.1-0.3,0.2-0.4
					c0.2,0,0.4,0,0.5,0.2c1.8,1.4,2.7,3.7,2.5,5.9c-0.1,2-1.2,3.7-1.1,5.7c0.1,1,0.3,1.9,0.5,2.9c0.3,2.5-0.2,5-1.4,7.1
					c-2,3.9-6.6,4.9-6.9,4.4s3.5-2.3,3.1-6.9c-0.3-1.9-0.3-3.8-0.1-5.7c0.2-0.7,0.4-1.3,0.7-1.9c0.1-0.3,0.3-0.6,0.4-0.9
					c0.1-0.1,0.1-0.3,0.2-0.4c0.2-1.3,0.2-2.5-0.2-3.8c-0.1-0.5-0.3-1-0.3-1.5C454.2,309.2,454.4,308.7,454.7,308.3z"/>
			</g>
			<g class="st26">
				<path class="st19" d="M457.5,308.7c0.8,1.1,1,2.4,0.8,3.7c-0.2,1.1-0.7,1.7-0.9,1.8c-0.3,0.1-1.2-2.5-1.4-3.5
					C455.8,309.2,456.4,307.6,457.5,308.7z"/>
			</g>
			<path class="st29" d="M454,306c0.8-0.4,1.5-0.5,1.6,0.3c0.2,0.9-1.9,1.7-3.7,0.8c-1.8-1-2.2-2.4-2.1-3c0.3,0.9,1,1.6,1.9,2
				C452.5,306.3,453.3,306.3,454,306z"/>
			<path class="st3" d="M452,306.7c0.4-1.8,1.1-3.5,2-5.1c0.9-1.6,2.2-2.9,3.8-3.8c0.7-0.1,1.5-0.1,2.2,0.1c1,0.2,2,1.1,1.6,1.5
				c-0.4,0.3-1.9,0.3-4,1.6c-2.1,1.3-4.4,4.1-4.8,6C452.6,307,452.2,306.9,452,306.7z"/>
			<path class="st2" d="M457.9,297.7h0.1l0,0c0.7-0.1,1.3,0,2,0.2c0.7,0.1,1.3,0.5,1.7,1.1c0,0.1-0.2,0.3-1.1,0.2
				c-0.9-0.1-1.8-0.3-2.6-0.8C457.6,298.2,457.5,297.8,457.9,297.7z"/>
			<path class="st25" d="M454,303.8c1.2-2.1,4-3.4,5.8-3.9l0,0c-0.8,0.2-1.5,0.6-2.2,1c-2.1,1.3-4.4,4.1-4.8,6
				c-0.3,0.1-0.6,0-0.8-0.2c0,0,0.1-0.7,0.5-1.6C452.3,306,452.8,305.7,454,303.8z"/>
			<path class="st27" d="M453.3,302.9c-2.4,0-4.4-2-4.4-4.4c0-0.9,0.3-1.7,0.8-2.4c1.4,0,2.8,0.8,3.6,2
				C454.1,299.5,454.1,301.3,453.3,302.9z"/>
			<path class="st20" d="M453.3,302.9c-2.4,0-4.4-2-4.4-4.4c0-0.9,0.3-1.7,0.8-2.4c1.4,0,2.8,0.8,3.6,2
				C454.1,299.5,454.1,301.3,453.3,302.9z"/>
			<path class="st27" d="M449.7,296c1.4,0,2.8,0.8,3.6,2c0.8,1.5,0.8,3.3,0,4.9C452.9,299.2,449.7,296,449.7,296z"/>
		</g>
		<g id="freepik--Pear--inject-51_2_">
			<path class="st27" d="M448.6,322.1L448.6,322.1c-1.2-1.1-2-2.5-2.3-4.1c-0.1-0.7-0.2-1.3-0.5-2c-1.8-4.7-7-7.1-11.7-5.3
				c-4,1.5-6.4,5.5-5.8,9.8c0,0.2,0.1,0.4,0.1,0.6c0.3,1.6,0,3.2-0.7,4.6c-0.1,0.2-0.2,0.4-0.3,0.7c-2,5,0.7,10.9,4.5,13.2
				c4.8,2.9,11.9,2.6,15.9-1.5C452.3,333.5,452.1,325.4,448.6,322.1z"/>
			<path class="st30" d="M448.6,322.1L448.6,322.1c-1.2-1.1-2-2.5-2.3-4.1c-0.1-0.7-0.2-1.3-0.5-2c-1.8-4.7-7-7.1-11.7-5.3
				c-4,1.5-6.4,5.5-5.8,9.8c0,0.2,0.1,0.4,0.1,0.6c0.3,1.6,0,3.2-0.7,4.6c-0.1,0.2-0.2,0.4-0.3,0.7c-2,5,0.7,10.9,4.5,13.2
				c4.8,2.9,11.9,2.6,15.9-1.5C452.3,333.5,452.1,325.4,448.6,322.1z"/>
			<path class="st25" d="M445.2,337.2c-4.9,2.9-11.1,2.8-15.9-0.2c0.7,1,1.7,1.9,2.7,2.5c4.8,2.9,11.9,2.6,15.9-1.5
				c3.1-3.5,4.1-8.4,2.6-12.8C450.8,326.3,450.4,333.9,445.2,337.2z"/>
			<g class="st26">
				<path class="st19" d="M434.3,316.7c-0.3-0.5-0.9-0.6-1.2-1.3c-0.2-0.6-0.2-1.2,0.1-1.7c0.1-0.1,0.1-0.3,0.1-0.4
					c0-0.2-0.1-0.3-0.2-0.4c-0.2-0.1-0.4,0-0.5,0.1c-2,1.2-3.2,3.3-3.3,5.5c-0.2,2,0.6,3.8,0.3,5.8c-0.2,0.9-0.5,1.9-0.9,2.8
					c-0.7,2.4-0.5,4.9,0.4,7.2c1.4,4.2,5.9,5.8,6.2,5.3c0.3-0.4-3.1-2.7-2.1-7.3c0.5-1.8,0.8-3.7,0.8-5.6c-0.1-0.7-0.2-1.4-0.4-2.1
					c-0.1-0.3-0.2-0.6-0.3-1c0-0.1-0.1-0.3-0.1-0.5c0-1.3,0.2-2.5,0.7-3.7c0.2-0.5,0.4-0.9,0.5-1.4
					C434.6,317.6,434.6,317.1,434.3,316.7z"/>
			</g>
			<g class="st26">
				<path class="st19" d="M431.4,316.7c-0.9,1-1.4,2.2-1.3,3.5c0.1,1.1,0.4,1.8,0.6,1.9c0.2,0.1,1.6-2.3,1.9-3.3
					C433.1,317.3,432.7,315.7,431.4,316.7z"/>
			</g>
			<path class="st27" d="M435.3,314.4c-0.7-0.5-1.4-0.7-1.6,0.1c-0.3,0.8,1.6,2,3.5,1.3c1.9-0.7,2.5-2.1,2.5-2.7
				c-0.4,0.8-1.2,1.5-2.1,1.8C436.7,315,435.9,314.8,435.3,314.4z"/>
			<path class="st3" d="M437.1,315.4c-0.1-1.8-0.6-3.6-1.3-5.4c-0.7-1.7-1.8-3.2-3.2-4.3c-0.7-0.2-1.5-0.3-2.2-0.2
				c-1,0.1-2.2,0.8-1.8,1.2s1.8,0.6,3.8,2.1c1.9,1.5,3.8,4.6,3.9,6.5C436.6,315.6,436.9,315.5,437.1,315.4z"/>
			<path class="st2" d="M432.6,305.7l-0.1,0l0,0c-0.7-0.2-1.3-0.2-2-0.1c-0.7,0-1.3,0.4-1.8,0.9c0,0.2,0.2,0.3,1.1,0.4
				c0.9,0.1,1.8-0.1,2.7-0.4C432.8,306.2,432.9,305.9,432.6,305.7z"/>
			<path class="st25" d="M435.6,312.3c-1-2.2-3.5-4-5.2-4.7l0,0c0.7,0.3,1.4,0.8,2,1.3c1.9,1.5,3.8,4.6,3.9,6.5
				c0.3,0.1,0.6,0.1,0.8-0.1c0,0,0-0.7-0.2-1.7C437,314.6,436.5,314.3,435.6,312.3z"/>
			<path class="st27" d="M436.4,311.4c2.4,0.3,4.6-1.3,4.9-3.7c0.1-0.9,0-1.8-0.4-2.6c-1.5-0.1-2.9,0.4-3.8,1.5
				C436.1,308.1,435.8,309.8,436.4,311.4z"/>
			<path class="st20" d="M436.4,311.4c2.4,0.3,4.6-1.3,4.9-3.7c0.1-0.9,0-1.8-0.4-2.6c-1.5-0.1-2.9,0.4-3.8,1.5
				C436.1,308.1,435.8,309.8,436.4,311.4z"/>
			<path class="st27" d="M440.9,305.1c-1.5-0.1-2.9,0.4-3.8,1.5c-1,1.4-1.3,3.2-0.7,4.8C437.3,307.8,440.9,305.1,440.9,305.1z"/>
		</g>
		<g id="freepik--pear--inject-51_2_">
			<path class="st24" d="M416.3,325.4c-4.2,3.9-11.3,3.8-15.9,0.6c-3.7-2.5-6.1-8.6-3.8-13.5c0.1-0.2,0.2-0.4,0.3-0.6
				c0.8-1.4,1.2-2.9,1-4.5c0-0.2-0.1-0.4-0.1-0.6c-0.4-4.3,2.3-8.2,6.4-9.5c4.8-1.4,9.9,1.3,11.3,6.1c0.2,0.6,0.3,1.3,0.4,2
				c0.2,1.6,0.9,3.1,2,4.2l0,0C421.1,313,420.9,321.1,416.3,325.4z"/>
			<path class="st25" d="M419.6,312.8c1.2,4.5-0.1,9.3-3.4,12.6c-4.2,3.9-11.3,3.8-15.9,0.6c-1-0.7-1.9-1.6-2.6-2.7
				c4.7,3.3,10.8,3.7,15.9,1.1C419,321.4,419.8,313.9,419.6,312.8z"/>
			<g class="st26">
				<path class="st19" d="M404,304.7c-0.2,0.5-0.4,0.9-0.6,1.4c-0.6,1.1-0.9,2.4-0.9,3.7c0,0.2,0,0.3,0.1,0.5c0.1,0.3,0.2,0.7,0.3,1
					c0.2,0.7,0.2,1.3,0.3,2c-0.2,1.9-0.6,3.8-1.2,5.6c-1.2,4.5,2.1,7,1.7,7.4c-0.4,0.4-4.7-1.4-5.9-5.7c-0.8-2.4-0.8-4.9,0-7.2
					c0.4-0.9,0.8-1.8,1.1-2.7c0.5-2-0.2-3.8,0-5.8c0.2-2.3,1.6-4.3,3.6-5.3c0.2-0.1,0.3-0.1,0.5-0.1c0.1,0.1,0.2,0.3,0.2,0.4
					c0,0.2-0.1,0.3-0.2,0.4c-0.2,0.5-0.3,1.1-0.1,1.7c0.2,0.6,0.8,0.8,1.1,1.3C404.1,303.7,404.2,304.2,404,304.7z"/>
			</g>
			<g class="st26">
				<path class="st19" d="M402.1,305.3c-0.4,1-1.8,3.3-2.1,3.2c-0.2-0.1-0.5-0.8-0.5-1.9c0-1.3,0.6-2.6,1.5-3.5
					C402.4,302.2,402.7,303.8,402.1,305.3z"/>
			</g>
			<path class="st25" d="M407.2,301.6c0.9-0.2,1.7-0.8,2.2-1.6c0,0.6-0.6,1.9-2.6,2.5c-2,0.6-3.8-0.6-3.5-1.5c0.3-0.8,1-0.6,1.6,0
				C405.7,301.5,406.4,301.7,407.2,301.6z"/>
			<path class="st3" d="M406,302.2c0-2-1.7-5.2-3.5-6.8c-1.8-1.6-3.3-1.9-3.6-2.3c-0.3-0.4,0.9-1.1,1.9-1.1c0.7-0.1,1.5,0.1,2.2,0.3
				c1.4,1.2,2.4,2.8,3,4.5c0.6,1.8,0.9,3.6,1,5.4C406.6,302.3,406.3,302.3,406,302.2z"/>
			<path class="st2" d="M402.6,292.9c-0.9,0.3-1.8,0.4-2.7,0.3c-0.9-0.1-1.1-0.3-1.1-0.5c0.5-0.5,1.2-0.8,1.9-0.8c0.7,0,1.3,0,2,0.2
				l0,0l0.1,0C403.2,292.4,403,292.7,402.6,292.9z"/>
			<path class="st25" d="M406.7,300.5c0.1,1,0.1,1.7,0.1,1.7c-0.3,0.2-0.6,0.2-0.8,0c0-2-1.7-5.2-3.5-6.8c-0.6-0.5-1.2-1-1.9-1.4
				l0,0c1.7,0.8,4.1,2.7,4.9,5C406.2,301.1,406.7,301.4,406.7,300.5z"/>
			<path class="st27" d="M407.3,293.4c1-1,2.5-1.5,3.9-1.3c0.3,0.8,0.4,1.7,0.3,2.6c-0.5,2.4-2.8,3.9-5.1,3.5
				C405.8,296.5,406.2,294.7,407.3,293.4z"/>
			<path class="st20" d="M407.3,293.4c1-1,2.5-1.5,3.9-1.3c0.3,0.8,0.4,1.7,0.3,2.6c-0.5,2.4-2.8,3.9-5.1,3.5
				C405.8,296.5,406.2,294.7,407.3,293.4z"/>
			<path class="st27" d="M406.3,298.2c-0.5-1.7-0.1-3.4,1-4.8c1-1,2.5-1.5,3.9-1.3C411.2,292.1,407.4,294.6,406.3,298.2z"/>
		</g>
		<g id="freepik--pear--inject-51_6_">
			<path class="st31" d="M381.2,314.2L381.2,314.2c0.9-1.3,1.3-2.9,1.2-4.5c-0.1-0.7-0.1-1.3,0-2c0.5-5,5-8.6,10-8.1
				c4.3,0.5,7.6,3.9,8.1,8.1c0,0.2,0,0.4,0,0.6c0.1,1.6,0.7,3.1,1.8,4.3c0.1,0.2,0.3,0.4,0.4,0.6c3.2,4.4,1.9,10.8-1.2,13.9
				c-3.9,4-11,5.4-15.8,2.3C380.4,326.1,378.7,318.2,381.2,314.2z"/>
			<path class="st25" d="M388.2,328c5.5,1.6,11.4,0.1,15.4-4c-0.5,1.2-1.2,2.2-2.1,3.1c-3.9,4-11,5.4-15.8,2.3
				c-3.8-2.6-6-7.1-5.6-11.7C380.1,318.8,382.3,326,388.2,328z"/>
			<g class="st26">
				<path class="st19" d="M393.8,305.4c0.2-0.6,0.7-0.8,0.8-1.5c0-0.6-0.1-1.2-0.5-1.6c-0.1-0.1-0.2-0.3-0.2-0.4
					c0-0.2,0-0.3,0.1-0.4c0.2-0.1,0.4-0.1,0.5,0c2.2,0.7,3.9,2.4,4.5,4.6c0.6,1.9,0.3,3.9,1.1,5.7c0.5,0.9,1,1.7,1.5,2.5
					c1.2,2.2,1.7,4.7,1.3,7.1c-0.4,4.4-4.3,7-4.8,6.7c-0.4-0.3,2.4-3.4,0.3-7.6c-0.9-1.6-1.7-3.4-2.2-5.2c-0.1-0.7-0.1-1.4-0.1-2
					c0-0.3,0.1-0.7,0.1-1c0-0.2,0-0.3,0-0.5c-0.3-1.2-0.8-2.4-1.6-3.4c-0.3-0.4-0.6-0.8-0.9-1.3
					C393.7,306.5,393.7,305.9,393.8,305.4z"/>
			</g>
			<g class="st26">
				<path class="st19" d="M396.6,304.8c1.1,0.7,1.9,1.8,2.1,3.1c0.2,1.1,0,1.8-0.2,1.9c-0.3,0.2-2.1-1.9-2.6-2.8
					C395.1,305.8,395.1,304.1,396.6,304.8z"/>
			</g>
			<path class="st29" d="M392.3,303.5c0.6-0.6,1.2-1,1.6-0.3c0.5,0.7-1.1,2.3-3.1,2.1c-2.1-0.2-2.9-1.4-3-2c0.6,0.7,1.5,1.1,2.5,1.2
				C391,304.4,391.8,304.1,392.3,303.5z"/>
			<path class="st3" d="M390.7,304.9c-0.3-1.8-0.3-3.7-0.1-5.5c0.2-1.8,1-3.5,2.1-5c0.6-0.4,1.3-0.6,2.1-0.7c1-0.2,2.3,0.3,2.1,0.7
				c-0.2,0.4-1.7,1-3.1,2.9s-2.6,5.4-2.2,7.4C391.3,305,391,305,390.7,304.9z"/>
			<path class="st2" d="M392.8,294.4L392.8,294.4L392.8,294.4c0.7-0.4,1.3-0.6,2-0.6c0.7-0.1,1.4,0,2,0.4c0.1,0.1-0.1,0.4-1,0.6
				c-0.9,0.3-1.8,0.4-2.7,0.2C392.8,295,392.5,294.6,392.8,294.4z"/>
			<path class="st25" d="M391.5,301.5c0.4-2.4,2.4-4.7,3.9-5.8l0,0c-0.6,0.5-1.2,1.1-1.6,1.7c-1.5,1.9-2.6,5.4-2.2,7.4
				c-0.2,0.2-0.5,0.2-0.8,0.1c0,0-0.1-0.7-0.2-1.7C390.8,304.1,391.1,303.7,391.5,301.5z"/>
			<path class="st27" d="M390.5,300.9c-2.3,0.9-4.8-0.2-5.7-2.5c-0.3-0.8-0.4-1.7-0.2-2.6c1.4-0.5,2.9-0.3,4.1,0.5
				C390,297.5,390.7,299.2,390.5,300.9z"/>
			<path class="st20" d="M390.5,300.9c-2.3,0.9-4.8-0.2-5.7-2.5c-0.3-0.8-0.4-1.7-0.2-2.6c1.4-0.5,2.9-0.3,4.1,0.5
				C390,297.5,390.7,299.2,390.5,300.9z"/>
			<path class="st27" d="M384.6,295.9c1.4-0.5,2.9-0.3,4.1,0.5c1.3,1.1,2,2.8,1.8,4.5C388.8,297.6,384.6,295.9,384.6,295.9z"/>
		</g>
		<g id="freepik--Pear--inject-51_1_">
			<path class="st27" d="M433.5,329.4L433.5,329.4c-1.2-1.1-2-2.5-2.3-4.1c-0.1-0.7-0.2-1.3-0.5-2c-1.8-4.7-7-7.1-11.7-5.3
				c-4,1.5-6.4,5.5-5.8,9.8c0,0.2,0.1,0.4,0.1,0.6c0.3,1.6,0,3.2-0.7,4.6c-0.1,0.2-0.2,0.4-0.3,0.7c-2,5,0.7,10.9,4.5,13.2
				c4.8,2.9,11.9,2.6,15.9-1.5C437.1,340.7,436.9,332.7,433.5,329.4z"/>
			<path class="st15" d="M433.5,329.4L433.5,329.4c-1.2-1.1-2-2.5-2.3-4.1c-0.1-0.7-0.2-1.3-0.5-2c-1.8-4.7-7-7.1-11.7-5.3
				c-4,1.5-6.4,5.5-5.8,9.8c0,0.2,0.1,0.4,0.1,0.6c0.3,1.6,0,3.2-0.7,4.6c-0.1,0.2-0.2,0.4-0.3,0.7c-2,5,0.7,10.9,4.5,13.2
				c4.8,2.9,11.9,2.6,15.9-1.5C437.1,340.7,436.9,332.7,433.5,329.4z"/>
			<path class="st25" d="M430.1,344.5c-4.9,2.9-11.1,2.8-15.9-0.2c0.7,1,1.7,1.9,2.7,2.5c4.8,2.9,11.9,2.6,15.9-1.5
				c3.1-3.5,4.1-8.4,2.6-12.8C435.7,333.6,435.3,341.1,430.1,344.5z"/>
			<g class="st26">
				<path class="st19" d="M419.2,323.9c-0.3-0.5-0.9-0.6-1.2-1.3c-0.2-0.6-0.2-1.2,0.1-1.7c0.1-0.1,0.1-0.3,0.1-0.4
					c0-0.2-0.1-0.3-0.2-0.4c-0.2-0.1-0.4,0-0.5,0.1c-2,1.2-3.2,3.3-3.3,5.5c-0.2,2,0.6,3.8,0.3,5.8c-0.2,0.9-0.5,1.9-0.9,2.8
					c-0.7,2.4-0.5,4.9,0.4,7.2c1.4,4.2,5.9,5.8,6.2,5.3c0.3-0.4-3.1-2.7-2.1-7.3c0.5-1.8,0.8-3.7,0.8-5.6c-0.1-0.7-0.2-1.4-0.4-2.1
					c-0.1-0.3-0.2-0.6-0.3-1c0-0.1-0.1-0.3-0.1-0.5c0-1.3,0.2-2.5,0.7-3.7c0.2-0.5,0.4-0.9,0.5-1.4
					C419.5,324.9,419.4,324.4,419.2,323.9z"/>
			</g>
			<g class="st26">
				<path class="st19" d="M416.3,324c-0.9,1-1.4,2.2-1.3,3.5c0.1,1.1,0.4,1.8,0.6,1.9s1.6-2.3,1.9-3.3
					C418,324.6,417.6,323,416.3,324z"/>
			</g>
			<path class="st27" d="M420.2,321.7c-0.7-0.5-1.4-0.7-1.6,0.1s1.6,2,3.5,1.3c1.9-0.7,2.5-2.1,2.5-2.7c-0.4,0.8-1.2,1.5-2.1,1.8
				C421.6,322.2,420.8,322.1,420.2,321.7z"/>
			<path class="st3" d="M422,322.7c-0.1-1.8-0.6-3.6-1.3-5.4c-0.7-1.7-1.8-3.2-3.2-4.3c-0.7-0.2-1.5-0.3-2.2-0.2
				c-1,0.1-2.2,0.8-1.8,1.2c0.4,0.4,1.8,0.6,3.8,2.1c1.9,1.5,3.8,4.6,3.9,6.5C421.5,322.8,421.8,322.8,422,322.7z"/>
			<path class="st2" d="M417.5,313l-0.1,0l0,0c-0.7-0.2-1.3-0.2-2-0.1c-0.7,0-1.3,0.4-1.8,0.9c0,0.2,0.2,0.3,1.1,0.4
				c0.9,0.1,1.8-0.1,2.7-0.4C417.7,313.5,417.8,313.1,417.5,313z"/>
			<path class="st25" d="M420.5,319.6c-1-2.2-3.5-4-5.2-4.7l0,0c0.7,0.3,1.4,0.8,2,1.3c1.9,1.5,3.8,4.6,3.9,6.5
				c0.3,0.1,0.6,0.1,0.8-0.1c0,0,0-0.7-0.2-1.7C421.8,321.9,421.4,321.6,420.5,319.6z"/>
			<path class="st27" d="M421.3,318.7c2.4,0.3,4.6-1.3,4.9-3.7c0.1-0.9,0-1.8-0.4-2.6c-1.5-0.1-2.9,0.4-3.8,1.5
				C421,315.3,420.7,317.1,421.3,318.7z"/>
			<path class="st20" d="M421.3,318.7c2.4,0.3,4.6-1.3,4.9-3.7c0.1-0.9,0-1.8-0.4-2.6c-1.5-0.1-2.9,0.4-3.8,1.5
				C421,315.3,420.7,317.1,421.3,318.7z"/>
			<path class="st27" d="M425.8,312.4c-1.5-0.1-2.9,0.4-3.8,1.5c-1,1.4-1.3,3.2-0.7,4.8C422.2,315.1,425.8,312.4,425.8,312.4z"/>
		</g>
		<g id="freepik--pear--inject-51_1_">
			<path class="st32" d="M414.8,339.9c-4,4.1-11.1,4.4-15.9,1.4c-3.8-2.3-6.5-8.2-4.5-13.2c0.1-0.2,0.2-0.5,0.3-0.7
				c0.7-1.4,1-3,0.7-4.6c0-0.2-0.1-0.4-0.1-0.6c-0.6-4.3,1.9-8.3,5.9-9.8c4.7-1.7,9.9,0.7,11.6,5.5c0.2,0.6,0.4,1.3,0.5,2
				c0.2,1.6,1,3,2.2,4.1l0,0C419,327.3,419.2,335.4,414.8,339.9z"/>
			<path class="st25" d="M417.5,327.2c1.4,4.4,0.4,9.3-2.7,12.7c-4,4.1-11.1,4.4-15.9,1.4c-1.1-0.7-2-1.5-2.7-2.5
				c4.8,3,11,3.2,15.9,0.3C417.4,335.8,417.8,328.2,417.5,327.2z"/>
			<g class="st26">
				<path class="st19" d="M401.5,319.9c-0.1,0.5-0.3,1-0.5,1.4c-0.5,1.2-0.7,2.4-0.7,3.7c0,0.2,0,0.3,0.1,0.5c0.1,0.3,0.2,0.6,0.3,1
					c0.2,0.7,0.3,1.3,0.4,2c-0.1,1.9-0.4,3.8-0.9,5.6c-1,4.5,2.4,6.9,2.1,7.3c-0.3,0.4-4.8-1.2-6.2-5.4c-0.9-2.3-1-4.9-0.4-7.2
					c0.4-0.9,0.7-1.8,0.9-2.8c0.4-2-0.4-3.8-0.3-5.8c0.1-2.3,1.4-4.4,3.3-5.5c0.1-0.1,0.3-0.1,0.5-0.1c0.1,0.1,0.2,0.2,0.2,0.4
					c0,0.2-0.1,0.3-0.1,0.5c-0.2,0.5-0.2,1.1-0.1,1.7c0.2,0.6,0.8,0.7,1.2,1.3C401.6,318.9,401.7,319.4,401.5,319.9z"/>
			</g>
			<g class="st26">
				<path class="st19" d="M399.7,320.6c-0.3,1-1.6,3.4-1.9,3.3c-0.2-0.1-0.5-0.7-0.6-1.9c0-1.3,0.4-2.6,1.3-3.5
					C399.8,317.5,400.1,319.2,399.7,320.6z"/>
			</g>
			<path class="st20" d="M404.6,316.7c0.9-0.3,1.7-0.9,2.1-1.7c0.1,0.6-0.5,2-2.5,2.7c-2,0.7-3.8-0.4-3.5-1.3s0.9-0.6,1.6-0.1
				C403,316.7,403.8,316.8,404.6,316.7z"/>
			<path class="st3" d="M403.4,317.3c-0.1-2-2-5.1-3.9-6.6s-3.4-1.8-3.7-2.1c-0.3-0.4,0.8-1.1,1.8-1.2c0.7-0.1,1.5,0,2.2,0.2
				c1.4,1.1,2.5,2.6,3.2,4.3c0.7,1.7,1.1,3.5,1.2,5.4C404,317.4,403.6,317.4,403.4,317.3z"/>
			<path class="st2" d="M399.5,308.2c-0.8,0.4-1.8,0.5-2.7,0.4c-0.9-0.1-1.1-0.3-1.1-0.4c0.5-0.5,1.1-0.8,1.8-0.9
				c0.7-0.1,1.3,0,2,0.1l0,0l0.1,0C400,307.7,399.9,308,399.5,308.2z"/>
			<path class="st25" d="M404,315.6c0.2,1,0.2,1.7,0.2,1.7c-0.2,0.2-0.6,0.2-0.8,0.1c-0.1-2-2-5.1-3.9-6.6c-0.6-0.5-1.3-0.9-2-1.3
				l0,0c1.7,0.7,4.3,2.5,5.2,4.7C403.5,316.2,404,316.5,404,315.6z"/>
			<path class="st27" d="M404.2,308.5c1-1.1,2.4-1.6,3.8-1.5c0.4,0.8,0.5,1.7,0.4,2.5c-0.3,2.4-2.5,4.1-4.9,3.7
				C402.9,311.7,403.2,309.9,404.2,308.5z"/>
			<path class="st20" d="M404.2,308.5c1-1.1,2.4-1.6,3.8-1.5c0.4,0.8,0.5,1.7,0.4,2.5c-0.3,2.4-2.5,4.1-4.9,3.7
				C402.9,311.7,403.2,309.9,404.2,308.5z"/>
			<path class="st27" d="M403.5,313.3c-0.6-1.6-0.3-3.4,0.7-4.8c1-1.1,2.4-1.6,3.8-1.5C408,307,404.4,309.7,403.5,313.3z"/>
		</g>
		<polygon class="st10" points="388.7,273.2 389.5,276.3 432,251.6 430.6,249 		"/>
		<polygon class="st23" points="388.7,273.2 389.5,276.3 432,251.6 430.6,249 		"/>
		<polygon class="st10" points="432.7,250.3 434.7,252.1 391.1,277.5 389.5,275 		"/>
		<path class="st10" d="M421.5,327.5l-60.2-34.8l3.5,37.9c0.4,2.9,2.1,5.5,4.5,7.2l48.1,27.8c2.4,1.2,5.1,1.3,7.6,0.3l0.2-0.1h0.1
			l0.4-0.2l28.6-16.5c2.5-1.6,4.1-4.2,4.5-7.2l3.5-37.9L421.5,327.5z M379.9,334.2c0,0.5-0.1,0.9-0.3,1.3c-0.5,0-0.9-0.2-1.3-0.4
			l-1.6-0.9c-1.8-1.2-3-3.2-3.1-5.4v-13.7c0-0.5,0.1-0.9,0.3-1.3c0.5,0,0.9,0.2,1.3,0.4l1.6,0.9c1.8,1.2,3,3.2,3.1,5.4V334.2z
			 M395.4,343.2c0.3,0.4,0.2,1-0.2,1.3s-1,0.2-1.3-0.2c0-0.1-0.1-0.1-0.1-0.2l-1.6-0.9c-1.8-1.2-3-3.2-3.1-5.4v-13.7
			c0-0.5,0.1-0.9,0.3-1.3c0.5,0,0.9,0.2,1.3,0.4l1.6,0.9c1.8,1.2,3,3.2,3.1,5.4L395.4,343.2L395.4,343.2z M411,352.2
			c0,0.5-0.1,0.9-0.3,1.3c-0.5,0-0.9-0.2-1.3-0.4l-1.6-0.9c-1.8-1.2-3-3.2-3.1-5.4v-13.7c0-0.5,0.1-0.9,0.3-1.3
			c0.5,0,0.9,0.2,1.3,0.4l1.6,0.9c1.8,1.2,3,3.2,3.1,5.4V352.2z M437.4,347.3c-0.1,2.2-1.3,4.2-3.1,5.4l-1.6,0.9
			c-0.4,0.2-0.8,0.4-1.3,0.4c-0.2-0.4-0.3-0.9-0.3-1.3V339c0.1-2.2,1.3-4.2,3.1-5.4l1.6-0.9c0.4-0.2,0.8-0.4,1.3-0.4
			c0.2,0.4,0.3,0.9,0.3,1.3V347.3z M451,339.4c-0.1,2.2-1.3,4.2-3.1,5.4l-1.5,0.9c-0.4,0.2-0.8,0.4-1.3,0.4
			c-0.2-0.4-0.3-0.9-0.3-1.3v-13.7c0.1-2.2,1.3-4.2,3.1-5.4l1.5-0.9c0.4-0.2,0.8-0.4,1.3-0.4c0.2,0.4,0.3,0.9,0.3,1.3V339.4z"/>
		<path class="st33" d="M421.5,327.5l-60.2-34.8l3.5,37.9c0.4,2.9,2.1,5.5,4.5,7.2l48.1,27.8c2.4,1.2,5.1,1.3,7.6,0.3l0.2-0.1h0.1
			l0.4-0.2l28.6-16.5c2.5-1.6,4.1-4.2,4.5-7.2l3.5-37.9L421.5,327.5z M379.9,334.2c0,0.5-0.1,0.9-0.3,1.3c-0.5,0-0.9-0.2-1.3-0.4
			l-1.6-0.9c-1.8-1.2-3-3.2-3.1-5.4v-13.7c0-0.5,0.1-0.9,0.3-1.3c0.5,0,0.9,0.2,1.3,0.4l1.6,0.9c1.8,1.2,3,3.2,3.1,5.4V334.2z
			 M395.4,343.2c0.3,0.4,0.2,1-0.2,1.3s-1,0.2-1.3-0.2c0-0.1-0.1-0.1-0.1-0.2l-1.6-0.9c-1.8-1.2-3-3.2-3.1-5.4v-13.7
			c0-0.5,0.1-0.9,0.3-1.3c0.5,0,0.9,0.2,1.3,0.4l1.6,0.9c1.8,1.2,3,3.2,3.1,5.4L395.4,343.2L395.4,343.2z M411,352.2
			c0,0.5-0.1,0.9-0.3,1.3c-0.5,0-0.9-0.2-1.3-0.4l-1.6-0.9c-1.8-1.2-3-3.2-3.1-5.4v-13.7c0-0.5,0.1-0.9,0.3-1.3
			c0.5,0,0.9,0.2,1.3,0.4l1.6,0.9c1.8,1.2,3,3.2,3.1,5.4V352.2z M437.4,347.3c-0.1,2.2-1.3,4.2-3.1,5.4l-1.6,0.9
			c-0.4,0.2-0.8,0.4-1.3,0.4c-0.2-0.4-0.3-0.9-0.3-1.3V339c0.1-2.2,1.3-4.2,3.1-5.4l1.6-0.9c0.4-0.2,0.8-0.4,1.3-0.4
			c0.2,0.4,0.3,0.9,0.3,1.3V347.3z M451,339.4c-0.1,2.2-1.3,4.2-3.1,5.4l-1.5,0.9c-0.4,0.2-0.8,0.4-1.3,0.4
			c-0.2-0.4-0.3-0.9-0.3-1.3v-13.7c0.1-2.2,1.3-4.2,3.1-5.4l1.5-0.9c0.4-0.2,0.8-0.4,1.3-0.4c0.2,0.4,0.3,0.9,0.3,1.3V339.4z"/>
		<path class="st7" d="M421.5,327.5v35.6c0,2.4,1.5,3.5,3.4,2.7l0.2-0.1h0.1l0.4-0.2l28.6-16.5c2.5-1.6,4.1-4.2,4.5-7.2l3.5-37.9
			L421.5,327.5z M437.5,347.2c-0.1,2.2-1.3,4.2-3.1,5.4l-1.6,0.9c-0.4,0.2-0.8,0.4-1.3,0.4c-0.2-0.4-0.3-0.9-0.3-1.3v-13.7
			c0.1-2.2,1.3-4.2,3.1-5.4l1.6-0.9c0.4-0.2,0.8-0.4,1.3-0.4c0.2,0.4,0.3,0.9,0.3,1.3V347.2z M451.1,339.4c-0.1,2.2-1.3,4.2-3.1,5.4
			l-1.5,0.9c-0.4,0.2-0.8,0.4-1.3,0.4c-0.2-0.4-0.3-0.9-0.3-1.3v-13.7c0.1-2.2,1.3-4.2,3.1-5.4l1.5-0.9c0.4-0.2,0.8-0.4,1.3-0.4
			c0.2,0.4,0.3,0.9,0.3,1.3V339.4z"/>
		<path class="st2" d="M439,334.4v13.7c-0.1,2.2-1.3,4.2-3.1,5.4l-1.6,0.9c-1.3,0.7-2.3,0.5-2.8-0.5c0.5,0,0.9-0.2,1.3-0.4l1.6-0.9
			c1.8-1.2,3-3.2,3.1-5.4v-13.7c0-0.5-0.1-0.9-0.3-1.3C438.2,332.2,439,333,439,334.4z"/>
		<path class="st2" d="M452.6,326.6v13.7c-0.1,2.2-1.3,4.2-3.1,5.4l-1.5,0.9c-1.3,0.7-2.3,0.5-2.8-0.5c0.5,0,0.9-0.2,1.3-0.4
			l1.5-0.9c1.8-1.2,3-3.2,3.1-5.4v-13.7c0-0.5-0.1-0.9-0.3-1.3C451.9,324.3,452.6,325.1,452.6,326.6z"/>
		<path class="st3" d="M465,303.9v4.5c0,0.5-0.4,1-0.9,1.2L423.6,333c-0.6,0.3-1.3,0.5-2.1,0.5V329c0.7,0,1.4-0.2,2.1-0.5l40.5-23.4
			C464.6,304.9,465,304.4,465,303.9C465,303.9,465,303.9,465,303.9z"/>
		<path class="st4" d="M421.5,329v4.5c-0.7,0-1.4-0.2-2.1-0.5l-60-34.6c-0.5-0.2-0.8-0.7-0.9-1.2c0-0.4,0-4.1,0-4.5v-0.1
			c0,0.6,0.3,1.1,0.9,1.3l60,34.6C420.1,328.8,420.8,329,421.5,329z"/>
		<path class="st2" d="M465,303.9c-0.1,0.5-0.4,1-0.9,1.2l-40.5,23.4c-1.3,0.7-2.8,0.7-4.1,0l-60-34.6c-0.5-0.2-0.8-0.7-0.9-1.2h2.7
			l40.8,23.6l19.4,11.2l40.8-23.6H465z"/>
		<path class="st3" d="M403.2,334v13.7c0.1,2.2,1.3,4.2,3.1,5.4l1.6,0.9c1.3,0.7,2.3,0.5,2.8-0.5c-0.5,0-0.9-0.2-1.3-0.4l-1.6-0.9
			c-1.8-1.2-3-3.2-3.1-5.4v-13.7c0-0.5,0.1-0.9,0.3-1.3C404,331.7,403.2,332.5,403.2,334z"/>
		<path class="st3" d="M387.7,325v13.7c0.1,2.2,1.3,4.2,3.1,5.4l1.6,0.9c1.3,0.7,2.3,0.5,2.8-0.5c-0.5,0-0.9-0.2-1.3-0.4l-1.6-0.9
			c-1.8-1.2-3-3.2-3.1-5.4v-13.7c0-0.5,0.1-0.9,0.3-1.3C388.4,322.8,387.7,323.6,387.7,325z"/>
		<path class="st3" d="M372.1,316v13.7c0.1,2.2,1.3,4.2,3.1,5.4l1.6,0.9c1.2,0.7,2.3,0.5,2.8-0.5c-0.5,0-0.9-0.2-1.3-0.4l-1.6-0.9
			c-1.8-1.2-3-3.2-3.1-5.4v-13.6c0-0.5,0.1-0.9,0.3-1.3C372.9,313.8,372.1,314.6,372.1,316z"/>
		<path class="st10" d="M378.5,304.9v0.4c-0.2,1.2,0.5,2.5,1.6,3l0,0c0.7,0.4,1.1-0.1,1.1-0.9v-1L378.5,304.9z"/>
		<path class="st23" d="M378.5,304.9v0.4c-0.2,1.2,0.5,2.5,1.6,3l0,0c0.7,0.4,1.1-0.1,1.1-0.9v-1L378.5,304.9z"/>
		<path class="st10" d="M386.6,276c0.3-1.1,1-2.1,2-2.7l0.9,3l-8.3,30.2l-2.7-1.5L386.6,276z"/>
		<path class="st23" d="M386.6,276c0.3-1.1,1-2.1,2-2.7l0.9,3l-8.3,30.2l-2.7-1.5L386.6,276z"/>
		<path class="st10" d="M389.6,275l1.5,2.5l5.6,37.9l-3.1-1.8l-5.4-35.9C388.1,276.7,388.6,275.6,389.6,275z"/>
		<path class="st10" d="M393.6,313.6v0.4c0,1.5,0.2,2.6,1.5,3.3l0,0c0.5,0.3,1.1,0.2,1.4-0.3c0.1-0.2,0.2-0.4,0.2-0.6v-1
			L393.6,313.6z"/>
	</g>
</g>
<g id="freepik--Bag--inject-3">
	<g id="freepik--bag--inject-3">
		<polygon class="st3" points="67.9,315.4 45.2,328.5 45.2,260.4 57.4,256.9 67.9,247.3 		"/>
		<polygon class="st4" points="57.4,256.9 57.4,321.4 45.2,328.5 45.2,260.4 		"/>
		<polygon class="st4" points="67.9,247.3 108.7,270.8 108.7,338.9 67.9,315.4 		"/>
		<g id="freepik--Apple--inject-3">
			<path class="st34" d="M61,262.9c-3.2,0.2-6,2.4-6.9,5.5c-1.9,5.2,1.1,11.1,5,13.3c5,2.8,12.2,2.2,16.1-2.1
				c4.3-4.8,3.8-13,0.2-16.2s-8.4-1.7-9.7-1C63.9,263.4,62.5,262.7,61,262.9z"/>
			<path class="st25" d="M70.9,278.1c-4.8,3.3-10.1,3.8-14.6,1.1c0.8,1,1.8,1.8,2.9,2.5c5,2.8,12.2,2.2,16.1-2.1
				c3-3.6,3.9-8.6,2.3-13.1C77.8,267.6,76.1,274.6,70.9,278.1z"/>
			<g class="st26">
				<path class="st19" d="M59.2,264.9c-1.3,0-3,1.3-3.8,3.1c-0.8,2.4-0.9,5-0.2,7.4c1.2,4.3,5.7,6.2,6,5.8s-3-3-1.7-7.5
					S61.3,264.8,59.2,264.9z"/>
			</g>
			<g class="st26">
				<path class="st19" d="M58.3,265.7c-1.2,0.6-2.5,2.8-2.7,4.2s0,2.4,0.3,2.6c0.4,0.3,2.7-2.5,3.4-3.7
					C60.3,267,60.3,264.8,58.3,265.7z"/>
			</g>
			<path class="st35" d="M66.7,265.8c0.7-0.5,1.4-0.7,1.7,0.2s-1.7,2-3.6,1.2s-2.5-2.2-2.4-2.8c0.4,0.9,1.2,1.5,2.1,1.8
				C65.2,266.3,66,266.1,66.7,265.8z"/>
			<path class="st3" d="M64.8,266.6c0.2-1.9,0.7-3.7,1.5-5.4c0.7-1.7,1.9-3.2,3.4-4.3c0.7-0.2,1.5-0.2,2.2-0.1
				c1,0.1,2.2,0.9,1.8,1.3s-1.9,0.5-3.9,2s-4,4.6-4.2,6.6C65.3,266.8,65,266.8,64.8,266.6z"/>
			<path class="st2" d="M69.7,256.9L69.7,256.9L69.7,256.9c0.8-0.1,1.4-0.2,2.1-0.1s1.4,0.4,1.8,0.9c0.1,0.2-0.2,0.3-1.1,0.4
				c-0.9,0-1.8-0.1-2.7-0.5C69.5,257.4,69.4,257,69.7,256.9z"/>
			<path class="st25" d="M66.4,263.5c1-2.2,3.7-3.9,5.5-4.6l0,0c-0.7,0.3-1.4,0.7-2.1,1.2c-2,1.5-4,4.6-4.2,6.6
				c-0.3,0.1-0.6,0.1-0.8-0.1c0,0,0.1-0.7,0.3-1.7C65,265.8,65.5,265.5,66.4,263.5z"/>
			<path class="st10" d="M65.7,262.6c-2.4,0.3-4.6-1.5-4.9-4c-0.1-0.9,0.1-1.8,0.5-2.6c1.5-0.1,2.9,0.5,3.8,1.6
				C66.1,259.1,66.3,261,65.7,262.6z"/>
			<path class="st20" d="M65.7,262.6c-2.4,0.3-4.6-1.5-4.9-4c-0.1-0.9,0.1-1.8,0.5-2.6c1.5-0.1,2.9,0.5,3.8,1.6
				C66.1,259.1,66.3,261,65.7,262.6z"/>
			<path class="st10" d="M61.3,256c1.5-0.1,2.9,0.5,3.8,1.6c1,1.5,1.2,3.3,0.5,4.9C64.9,258.9,61.3,256,61.3,256z"/>
		</g>
		<g id="freepik--apple--inject-3">
			<path class="st34" d="M83.5,268c-3.2,0.2-6,2.4-6.9,5.5c-1.9,5.2,1.1,11.1,5,13.3c5,2.8,12.2,2.2,16.1-2.1
				c4.3-4.8,3.8-13,0.2-16.2s-8.4-1.7-9.7-1C86.4,268.5,85,267.8,83.5,268z"/>
			<path class="st25" d="M94.9,284c-4.9,3.1-11.1,3.2-16.2,0.3c0.8,1,1.8,1.8,2.9,2.5c5,2.8,12.2,2.2,16.1-2.1
				c3-3.7,3.9-8.6,2.2-13.1C100.2,272.7,100.1,280.4,94.9,284z"/>
			<g class="st26">
				<path class="st19" d="M81.6,270c-1.3,0-3,1.3-3.7,3.1c-0.9,2.4-0.9,5-0.2,7.4c1.2,4.3,5.7,6.2,6,5.8s-3-3-1.7-7.5
					S83.7,270,81.6,270z"/>
			</g>
			<g class="st26">
				<path class="st19" d="M80.8,270.8c-1.2,0.6-2.5,2.8-2.7,4.2s0,2.4,0.3,2.6c0.4,0.3,2.7-2.5,3.4-3.7
					C82.7,272.1,82.7,269.9,80.8,270.8z"/>
			</g>
			<path class="st35" d="M85.9,271.6c-0.7-0.5-1.4-0.7-1.7,0.2s1.7,2,3.6,1.2s2.5-2.2,2.4-2.8c-0.4,0.9-1.2,1.5-2.1,1.8
				C87.4,272.1,86.6,272,85.9,271.6z"/>
			<path class="st3" d="M87.8,272.4c-0.2-1.9-0.7-3.7-1.5-5.4c-0.7-1.7-1.9-3.2-3.4-4.3c-0.7-0.2-1.5-0.2-2.2-0.1
				c-1,0.1-2.2,0.9-1.8,1.3s1.9,0.5,3.9,2s4,4.6,4.2,6.5C87.2,272.6,87.6,272.6,87.8,272.4z"/>
			<path class="st2" d="M82.8,262.7L82.8,262.7L82.8,262.7c-0.8-0.1-1.4-0.1-2.1,0s-1.4,0.4-1.8,0.9c-0.1,0.1,0.2,0.3,1.1,0.4
				c0.9,0,1.8-0.1,2.7-0.5C83.1,263.2,83.2,262.9,82.8,262.7z"/>
			<path class="st25" d="M86.1,269.3c-1-2.2-3.7-3.9-5.5-4.6l0,0c0.7,0.3,1.4,0.8,2.1,1.3c2,1.5,4,4.6,4.2,6.5
				c0.3,0.1,0.6,0.1,0.8-0.1c0,0-0.1-0.7-0.3-1.7C87.6,271.7,87.1,271.4,86.1,269.3z"/>
			<path class="st10" d="M86.9,268.4c2.5,0.2,4.6-1.5,4.9-4c0.1-0.9-0.1-1.8-0.5-2.6c-1.5-0.1-2.9,0.5-3.8,1.6
				C86.5,265,86.3,266.8,86.9,268.4z"/>
			<path class="st20" d="M86.9,268.4c2.5,0.2,4.6-1.5,4.9-4c0.1-0.9-0.1-1.8-0.5-2.6c-1.5-0.1-2.9,0.5-3.8,1.6
				C86.5,265,86.3,266.8,86.9,268.4z"/>
			<path class="st10" d="M91.3,261.9c-1.5-0.1-2.9,0.5-3.8,1.6c-1,1.5-1.2,3.3-0.5,4.9C87.7,264.7,91.3,261.9,91.3,261.9z"/>
		</g>
		<polygon class="st2" points="86,352 86,283.9 45.2,260.4 45.2,328.5 		"/>
		<polygon class="st3" points="108.7,338.9 86,352 86,283.9 97.4,273.5 108.7,270.8 		"/>
		<polygon class="st2" points="86,352 97.4,337.6 108.7,338.9 		"/>
		<polygon class="st4" points="97.4,337.6 97.4,273.5 86,283.9 86,352 		"/>
		<g id="freepik--apple--inject-3_1_">
			<path class="st34" d="M199.3,187.9c-3.2,0.2-6,2.4-6.9,5.5c-1.9,5.2,1.1,11.1,5,13.3c5,2.8,12.2,2.2,16.1-2.1
				c4.3-4.8,3.8-13,0.2-16.2s-8.4-1.7-9.7-1C202.2,188.3,200.9,187.7,199.3,187.9z"/>
			<path class="st25" d="M210.8,203.8c-4.9,3.1-11.1,3.2-16.2,0.3c0.8,1,1.8,1.8,2.9,2.5c5,2.8,12.2,2.2,16.1-2.1
				c3-3.7,3.9-8.6,2.2-13.1C216.1,192.6,216,200.2,210.8,203.8z"/>
			<g class="st26">
				<path class="st19" d="M197.5,189.8c-1.3,0-3,1.3-3.7,3.1c-0.9,2.4-0.9,5-0.2,7.4c1.2,4.3,5.7,6.2,6,5.8s-3-3-1.7-7.5
					C199.1,194.1,199.6,189.8,197.5,189.8z"/>
			</g>
			<g class="st26">
				<path class="st19" d="M196.6,190.6c-1.2,0.6-2.5,2.8-2.7,4.2s0,2.4,0.3,2.6c0.4,0.3,2.7-2.5,3.4-3.7
					C198.6,192,198.6,189.7,196.6,190.6z"/>
			</g>
			<path class="st35" d="M201.7,191.4c-0.7-0.5-1.4-0.7-1.7,0.2s1.7,2,3.6,1.2s2.5-2.2,2.4-2.8c-0.4,0.9-1.2,1.5-2.1,1.8
				C203.3,191.9,202.4,191.8,201.7,191.4z"/>
			<path class="st3" d="M203.7,192.3c-0.2-1.9-0.7-3.7-1.5-5.4c-0.7-1.7-1.9-3.2-3.4-4.3c-0.7-0.2-1.5-0.2-2.2-0.1
				c-1,0.1-2.2,0.9-1.8,1.3s1.9,0.5,3.9,2s4,4.6,4.2,6.5C203.1,192.4,203.4,192.4,203.7,192.3z"/>
			<path class="st2" d="M198.7,182.6h-0.1l0,0c-0.7-0.1-1.3-0.1-2,0s-1.4,0.4-1.8,0.9c-0.1,0.1,0.2,0.3,1.1,0.4
				c0.9,0,1.8-0.1,2.7-0.5C198.9,183.1,199.1,182.7,198.7,182.6z"/>
			<path class="st25" d="M202,189.1c-1-2.2-3.7-3.9-5.5-4.6l0,0c0.7,0.3,1.4,0.8,2.1,1.3c2,1.5,4,4.6,4.2,6.5
				c0.3,0.1,0.6,0.1,0.8-0.1c0,0-0.1-0.7-0.3-1.7C203.4,191.5,203,191.2,202,189.1z"/>
			<path class="st10" d="M202.8,188.3c2.5,0.2,4.6-1.5,4.9-4c0.1-0.9-0.1-1.8-0.5-2.6c-1.5-0.1-2.9,0.5-3.8,1.6
				C202.3,184.8,202.1,186.6,202.8,188.3z"/>
			<path class="st20" d="M202.8,188.3c2.5,0.2,4.6-1.5,4.9-4c0.1-0.9-0.1-1.8-0.5-2.6c-1.5-0.1-2.9,0.5-3.8,1.6
				C202.3,184.8,202.1,186.6,202.8,188.3z"/>
			<path class="st10" d="M207.1,181.7c-1.5-0.1-2.9,0.5-3.8,1.6c-1,1.5-1.2,3.3-0.5,4.9C203.6,184.6,207.1,181.7,207.1,181.7z"/>
		</g>
		<g id="freepik--apple--inject-3_2_">
			<path class="st34" d="M221.9,187.9c-3.2,0.2-6,2.4-6.9,5.5c-1.9,5.2,1.1,11.1,5,13.3c5,2.8,12.2,2.2,16.1-2.1
				c4.3-4.8,3.8-13,0.2-16.2s-8.4-1.7-9.7-1C224.8,188.3,223.4,187.7,221.9,187.9z"/>
			<path class="st25" d="M233.3,203.8c-4.9,3.1-11.1,3.2-16.2,0.3c0.8,1,1.8,1.8,2.9,2.5c5,2.8,12.2,2.2,16.1-2.1
				c3-3.7,3.9-8.6,2.2-13.1C238.6,192.6,238.5,200.2,233.3,203.8z"/>
			<g class="st26">
				<path class="st19" d="M220,189.8c-1.3,0-3,1.3-3.7,3.1c-0.9,2.4-0.9,5-0.2,7.4c1.2,4.3,5.7,6.2,6,5.8s-3-3-1.7-7.5
					C221.6,194.1,222.1,189.8,220,189.8z"/>
			</g>
			<g class="st26">
				<path class="st19" d="M219.1,190.6c-1.2,0.6-2.5,2.8-2.7,4.2s0,2.4,0.3,2.6c0.4,0.3,2.7-2.5,3.4-3.7
					C221.1,192,221.1,189.7,219.1,190.6z"/>
			</g>
			<path class="st35" d="M224.3,191.4c-0.7-0.5-1.4-0.7-1.7,0.2s1.7,2,3.6,1.2s2.5-2.2,2.4-2.8c-0.4,0.9-1.2,1.5-2.1,1.8
				C225.8,191.9,225,191.8,224.3,191.4z"/>
			<path class="st3" d="M226.2,192.3c-0.2-1.9-0.7-3.7-1.5-5.4c-0.7-1.7-1.9-3.2-3.4-4.3c-0.7-0.2-1.5-0.2-2.2-0.1
				c-1,0.1-2.2,0.9-1.8,1.3s1.9,0.5,3.9,2s4,4.6,4.2,6.5C225.6,192.4,225.9,192.4,226.2,192.3z"/>
			<path class="st2" d="M221.2,182.6h-0.1l0,0c-0.7-0.1-1.3-0.1-2,0s-1.4,0.4-1.8,0.9c-0.1,0.1,0.2,0.3,1.1,0.4
				c0.9,0,1.8-0.1,2.7-0.5C221.5,183.1,221.6,182.7,221.2,182.6z"/>
			<path class="st25" d="M224.5,189.1c-1-2.2-3.7-3.9-5.5-4.6l0,0c0.7,0.3,1.4,0.8,2.1,1.3c2,1.5,4,4.6,4.2,6.5
				c0.3,0.1,0.6,0.1,0.8-0.1c0,0-0.1-0.7-0.3-1.7C226,191.5,225.5,191.2,224.5,189.1z"/>
			<path class="st10" d="M225.3,188.3c2.5,0.2,4.6-1.5,4.9-4c0.1-0.9-0.1-1.8-0.5-2.6c-1.5-0.1-2.9,0.5-3.8,1.6
				C224.9,184.8,224.7,186.6,225.3,188.3z"/>
			<path class="st20" d="M225.3,188.3c2.5,0.2,4.6-1.5,4.9-4c0.1-0.9-0.1-1.8-0.5-2.6c-1.5-0.1-2.9,0.5-3.8,1.6
				C224.9,184.8,224.7,186.6,225.3,188.3z"/>
			<path class="st10" d="M229.7,181.7c-1.5-0.1-2.9,0.5-3.8,1.6c-1,1.5-1.2,3.3-0.5,4.9C226.1,184.6,229.7,181.7,229.7,181.7z"/>
		</g>
		<g id="freepik--apple--inject-3_3_">
			<path class="st34" d="M233.9,202.1c-2.6-1.9-6.1-1.9-8.8-0.1c-4.7,2.8-6.1,9.3-4.5,13.5c2.1,5.3,8.1,9.4,13.8,8.5
				c6.3-1,11.1-7.7,10.4-12.4c-0.7-4.8-5.5-6.6-6.9-6.9C235.9,204.2,235.2,202.8,233.9,202.1z"/>
			<path class="st25" d="M232.7,221.7c-5.8-0.7-10.7-4.5-12.8-9.9c0,1.3,0.2,2.5,0.7,3.7c2.1,5.3,8.1,9.4,13.8,8.5
				c4.6-0.9,8.5-4.3,10-8.7C243.9,216.3,239,222.2,232.7,221.7z"/>
			<g class="st26">
				<path class="st19" d="M231.2,202.4c-1-0.8-3.2-0.9-4.9,0.1c-2.2,1.3-3.8,3.3-4.8,5.6c-1.8,4.1,0.5,8.4,1,8.3
					c0.5-0.1-0.4-4.2,3.4-6.9C229.7,206.7,232.8,203.7,231.2,202.4z"/>
			</g>
			<g class="st26">
				<path class="st19" d="M230,202.5c-1.3-0.3-3.7,0.6-4.8,1.6s-1.5,1.9-1.4,2.2c0.1,0.4,3.7-0.2,5-0.7
					C230.7,204.8,232.1,203,230,202.5z"/>
			</g>
			<path class="st35" d="M233.5,206.3c-0.3-0.8-0.7-1.4-1.4-0.9s0.1,2.6,2.1,3.2c2,0.6,3.3-0.1,3.6-0.7c-0.9,0.4-1.9,0.4-2.8,0.1
				C234.4,207.7,233.8,207.1,233.5,206.3z"/>
			<path class="st3" d="M234.5,208.2c1-1.6,1.8-3.3,2.3-5.1s0.5-3.7,0-5.5c-0.4-0.6-1-1.1-1.7-1.5c-0.8-0.5-2.3-0.7-2.2-0.1
				c0.1,0.5,1.1,1.6,1.7,4c0.6,2.4,0.2,6.1-0.8,7.8C233.9,208,234.2,208.2,234.5,208.2z"/>
			<path class="st2" d="M236.7,197.5L236.7,197.5L236.7,197.5c-0.5-0.6-1-1-1.6-1.4s-1.3-0.5-2-0.4c-0.1,0.1-0.1,0.4,0.6,1
				c0.7,0.6,1.5,1.1,2.4,1.3C236.6,198.1,236.9,197.9,236.7,197.5z"/>
			<path class="st25" d="M235.2,204.7c0.6-2.4-0.4-5.4-1.4-7l0,0c0.4,0.7,0.6,1.5,0.8,2.3c0.6,2.4,0.2,6.1-0.8,7.8
				c0.1,0.3,0.4,0.4,0.7,0.5c0,0,0.4-0.6,0.9-1.5C234.8,207.4,234.6,206.9,235.2,204.7z"/>
			<path class="st10" d="M236.3,204.5c1.7,1.7,4.6,1.7,6.3,0c0.6-0.6,1-1.4,1.2-2.3c-1.1-1-2.6-1.4-4-1.1
				C238.2,201.6,236.8,202.9,236.3,204.5z"/>
			<path class="st20" d="M236.3,204.5c1.7,1.7,4.6,1.7,6.3,0c0.6-0.6,1-1.4,1.2-2.3c-1.1-1-2.6-1.4-4-1.1
				C238.2,201.6,236.8,202.9,236.3,204.5z"/>
			<path class="st10" d="M243.8,202.2c-1.1-1-2.6-1.4-4-1.1c-1.7,0.5-3,1.8-3.5,3.5C239.3,202.1,243.8,202.2,243.8,202.2z"/>
		</g>
	</g>
</g>
<g id="freepik--Character--inject-3">
	<g id="freepik--character--inject-3">
		<g id="freepik--Bottom--inject-3">
			<path class="st4" d="M263.7,396.8c-0.4,1.5-0.5,3-0.1,4.5c0.4,0.9,3.1,3.9,8.7,5s13.2,0,16.4-0.2s13.6,1.1,16.9,1.5
				c5.1,0.7,9.1-0.4,11-2.3c0.6-0.8,0.9-1.7,0.8-2.7c0-1.2-0.2-2.5-0.5-3.7L263.7,396.8z"/>
			<path class="st36" d="M315.9,393.5c0.1,0.4,0.2,0.9,0.3,1.3c0.5,2.2,0.7,4.4,0.5,6.7c-0.7,1.6-2.5,2.5-4,3
				c-3.9,1.2-6.8,1-11.1,0.2c-4.3-0.6-8.7-0.9-13-0.8c-3.4,0.2-8,0.9-11.4,0.6c-2.9-0.1-5.7-0.7-8.4-1.7c-2.2-1-4.5-2.2-5.1-4.5
				c-0.7-4.9,1.4-7,3.7-8.4s5.6-1.3,9.1-1.5c3.2-0.2,5.5-0.2,8.3-0.4c2.4-0.2,4.8-0.7,7.2-1.4c2.1-0.7,2.5-3.2,4.5-3.2
				c1.2,0,15-0.1,16.3,0c1.6,0.1,2,5,2.2,6c0.1,0.8,0.2,1.7,0.4,2.5C315.7,392.5,315.8,393,315.9,393.5z"/>
			<path class="st35" d="M320.8,325.5c-0.2,3.1-0.6,6.2-1,9.3c-0.6,5.2-1.3,10.4-2,15.6c-0.7,5.7-1.5,11.3-2.3,17
				c-0.6,4.5-1.2,9-1.9,13.5c-0.2,1.3-0.4,2.6-0.6,3.9c-0.4,2.2-2,4.1-4.1,4.7c-1.2,0.4-2.3,0.6-3.5,0.9c-1.9,0.4-3.8,1.2-5.4,2.4
				c-0.3,0.3-0.8,0.5-1.3,0.5c0.1-1.5,1-2.9,1.4-4.4c0.1-0.4,0.1-0.9,0-1.3c-0.3-0.4-0.7-0.7-1.2-0.9c-0.3-0.2-0.6-0.3-0.9-0.5
				c-0.6-0.5-1.3-0.9-1.4-1.7c0-0.4,0-0.7-0.1-1.1c-0.1-1.4-0.2-2.8-0.3-4.1c-0.4-5-0.7-9.9-1.1-14.9c-0.5-6.8-0.9-13.7-1.4-20.5
				c-0.5-7.5-0.9-15.1-1.4-22.6C295.8,319.6,320.8,325.5,320.8,325.5z"/>
			<path class="st4" d="M320.5,354.8c-0.2,2.4-0.5,4.6,0.5,7.2c1.4,3.8,4.4,5.5,6.1,7c1.8,1.8,3.6,3.8,5.1,5.9
				c1.7,2.1,2.1,3.4,4.8,5.6c1.7,1.4,6.3,2.5,9.2,1.3c2.2-1,3-1.7,2.9-5.1s-11-4.6-11-4.6L320.5,354.8z"/>
			<path class="st36" d="M347.5,366.5c0.9,0.3,1.2,2,1.3,5.4c0.1,2.5,1.2,6.3-2.5,7.9c-3,1.3-7.7,0.4-9.7-2c-2.5-3-4.2-5.6-7.8-9.3
				c-3.1-3.2-7.4-4.7-8.7-11c-0.6-2.9,0.6-5.7,3.7-6.5c4.2-1,6.4,0.2,13.3,4.5C339.5,356.9,346.6,366.1,347.5,366.5z"/>
			<path class="st35" d="M352.1,309.6c0.5,20.2-2.7,40.6-4.2,58.1c-0.3,1.7-11,3.4-13.9-1.7c-0.2-0.4-7.1-55.3-7.1-55.3L352.1,309.6
				z"/>
			<path class="st3" d="M352.2,284.1c0,0-0.3-20,0-35.2c0.2-9.6,0.4-15,0.5-21.7c0.1-8.8-0.4-15.6-1.2-19.9l-60.1,7.4
				c-0.8,22.8-0.4,72.8-0.1,78.7c0.5,13.9-0.1,19.7,1,35.2c8.4,2.1,22.8,1,29.5-1.4c0.2-6.4,0.4-10,0.4-10l1.5-33
				c0,0,0.5,6,1.2,14.1c0.5,6.8,1.4,13.5,2.8,20.2c5.3,2.5,21.1,2.3,25.3-2.3C352.6,304.1,352.2,284.1,352.2,284.1z"/>
			<path class="st4" d="M291,256.2c7.5,1.8,22.7,1.5,22.7,1.5s-0.2,32.9-1.5,36.4s-19.2,2.7-21.1-0.2
				C289.5,276.8,291,256.2,291,256.2z"/>
			<path class="st4" d="M342.9,234.2c0,0-3.2,9.2-15.3,13.1l-4.2,36.8l1.2-25.8l0.9-13.9C332.1,242.9,338.2,239.3,342.9,234.2z"/>
		</g>
		<g id="freepik--Top--inject-3">
			<path class="st35" d="M338.6,130c9-0.6,14.7-0.1,20.4,9.6c6.3,10.8,18.6,36.3,19.5,38.1s2.4,5.5-0.5,8.9
				c-7.6,8.9-27.7,22.1-27.7,22.1l-9.2-10.8l15.6-18.4l-9.8-17.1L338.6,130z"/>
			<path class="st37" d="M356.7,179.4c1.6,2.7,3.7,5.1,6.2,7.1c0,0-4.1,0-7.4-5.7L356.7,179.4z"/>
			<path class="st38" d="M336.5,130c0,0,8.1-2.4,13.6-0.1c4.4,1.8,6.5,4.1,10.4,11s10.9,22,10.9,22s-4.1,7.9-17.2,12.5l-15.1-20.5
				L336.5,130z"/>
			<polygon class="st35" points="312.4,123.3 315.3,142.8 335.1,140.3 332.3,119 			"/>
			<path class="st2" d="M355,143.8c-1.2-7.7-5-14.1-12.1-14.3c-1.6,0-9.1,0.5-9.1,0.5c-0.8,3.3-11.3,4.6-20,2.6
				c-2.6,0.7-9.9,2.2-9.9,2.2c-6.2,2.1-11.3,9-12.8,29.7l-0.9,60.9c11,5.8,24.7,5.8,36.8,4.7c20.3-1.8,26.1-7,26.1-7l-1.3-21.1
				c0,0,2-21.1,2.7-30.5C355.7,157.3,355.6,147.6,355,143.8z"/>
			<path class="st37" d="M299.3,98.9c0,0-5.7,8.7-5.1,9.5s4.9,1.6,4.9,1.6L299.3,98.9z"/>
			<path class="st35" d="M312.2,79.5c-9.4,2-12.1,6.1-13,21.1c-0.9,15.7,0.7,20.6,2.7,22.7c1.4,1.4,9.1,1.7,13,0.6
				c4.9-1.3,15.9-5.2,21-13.1c6.1-9.3,7.7-21.8,1.2-27C327.9,76.6,316,78.7,312.2,79.5z"/>
			<path class="st37" d="M312.5,124.3l-0.5-3c-2.5,0.8-5,1.3-7.6,1.6c-1.1,0.1-2.2,0-3.2-0.4c0.2,0.3,0.4,0.5,0.6,0.8
				C303,124.5,308.5,124.8,312.5,124.3z"/>
			<g id="freepik--Dreadlocks--inject-3">
				<path class="st3" d="M302.3,83.4c0.1,0.4,0.3,0.8,0.6,1.2l0.6-0.5c0.2-0.1,0.4-0.3,0.7-0.3c0.6-0.2,1.2-0.3,1.8-0.3
					c0.6-0.1,1.2,0.1,1.6,0.6c0.2,0.4,0.3,0.8,0.4,1.2c0.2,0.9,0.9,1.6,1.7,2c0.4,0.1,0.8,0.3,1.1,0.5c0.4,0.2,0.6,0.7,0.4,1.1
					c-0.2,0.6-0.3,1.2-0.5,1.8c-0.3,1.2-0.7,2.5-0.9,3.7c-0.3,2-0.4,4.1-0.3,6.1c0,2.6,1.7,4.6,2.5,1.1c0,0,1.5-5.8,6.4-5.1
					s5.4,6.1,3.3,10.5c-1.2,2.6-4.5,3.2-5.9,2c0,1.7,0.4,11.4,0.4,14.1c0.1,6.6-0.1,9,0.6,14.9c0.1,1.2,1,1.6,1.5,1.5
					c0.7-0.1,1.2-0.8,1.2-1.5c0.2-3.1,0.2-5.1,0.3-7.8c0.1-3,0.2-5.4,0.3-8.4c0.5,3.8,0.8,7.1,1.6,13.2s2.1,14.7,2.6,16
					c0.2,0.6,0.5,1.2,0.9,1.7c0.5,0.7,1.5,0.9,2.3,0.4c0.3-0.2,0.5-0.5,0.6-0.8c0.2-0.5,0.3-1,0.3-1.5c0.2-2.6,0.3-5.2,0.2-7.7
					c0.4,2.5,0.7,4.4,1.8,5.6c0.6,0.7,1.7,0.8,2.5,0.3c0.6-0.6,1-1.4,1.1-2.3c0.3-4.5,0.4-9,0.2-13.5c0.4,3.9,1.6,16.4,2.2,19.8
					c0.2,1.3,0.8,4.2,2.9,3.8c0.7-0.2,1.2-0.9,1.2-1.6c0.3-4.8-0.2-9.4-0.1-14.4c0.1,1.4,0.7,2.8,1.6,3.9c0.3,0.4,0.8,0.6,1.2,0.6
					c0.6-0.1,1.2-0.5,1.4-1.1c0.2-0.6,0.2-1.2,0.2-1.8c-0.1-3.2-0.2-6.4-0.3-9.6c0.1,1.8,0.5,3.6,1,5.4c0.3,1,1.1,1.7,2.2,1.7
					c2.2,0.1,1.9-3.8,1.8-5.1c-0.2-3-0.6-6.6-0.8-9.6c-0.3-4.1-0.9-8.1-1-12.2l0.7,2.3c0.3,1.3,0.9,2.5,1.7,3.6
					c0.3,0.5,0.9,0.8,1.5,0.7c0.4-0.2,0.8-0.5,0.8-1c0.1-0.4,0.1-0.9,0-1.3c-0.5-3.1-1.3-6.1-2.1-9.1c-1.3-5.7-1.9-11.4-1.9-17.2
					c0-2,0-5-0.9-6.8c-0.7-1.7-2.1-3-3.7-3.7c0.2-3.6-2.5-6.8-6.3-8.5c-5.1-2.4-10.8-3.4-16.5-2.7c-4.5,0.3-8.9,1.6-12.8,3.9
					c-2.1,1-3.8,2.5-5.1,4.5C301.8,79.5,301.6,81.5,302.3,83.4z"/>
				<path class="st3" d="M349.3,96.1c0.1,0.6,0.4,1.1,0.9,1.5c0.9,0.4,2.1,0,2.5-0.9c0-0.1,0-0.1,0.1-0.2c0.3-1,0.3-2.1,0-3.2
					c1.1,0.7,2.8,1.1,3.7,0.1c0.3-0.4,0.5-0.9,0.5-1.4c0.2-2-1-3.8-2.1-5.6c1.2-0.2,2.4-0.1,3.6,0.1c0.9,0.1,2,0.1,2.4-0.8
					s-0.5-1.7-1.4-2.1c-1.6-0.8-3.3-1.2-5.1-1.3c0.9-1.1,1.7-2.3,2.5-3.5c0.5-0.8,1.1-2.1,0-2.8c-0.5-0.2-1-0.3-1.5-0.1
					c-0.5,0.2-0.9,0.5-1.3,0.8c-1.2,0.9-2.3,1.9-3.3,3c0-0.7-0.2-1.3-0.6-1.9s-1.1-1-1.9-1s-1.5,0.3-2,0.9c-1.1-1.7-3.1-1.7-4.8-1.1
					c-1.7,0.8-3.1,2.2-3.9,3.9c-0.9,2.1-1.3,4.3-1.4,6.6c-0.1,1.4-0.1,2.8,0.2,4.2c0.3,1.1,0.7,2.2,1.3,3.2c0.6,1.1,1.3,2.1,2.3,3
					c1.4,1.1,3.2,1.7,5,1.7c1-0.1,1.9-0.5,2.7-1.1C348.1,98,349.5,96.7,349.3,96.1z"/>
				<path class="st4" d="M323,103c0,0,11.6,2.5,20.3-4.3c-2.3,3.1-5.7,5.2-9.5,6C330.1,105.6,326.2,105,323,103z"/>
				<path class="st4" d="M314.2,91.1c0,0,12.8,7.9,25.7,4.8c0,0-4.2,2.9-13.1,1.3S314.2,91.1,314.2,91.1z"/>
				<path class="st4" d="M336.9,90c0,0-15.7,1.2-26.7-6.2c0,0,2.9,4.5,12.1,6.4S336.9,90,336.9,90z"/>
				<path class="st4" d="M348.5,97.6c-3.5,0.6-6.9-1.5-7.9-4.9c0,0-0.1,3.6,2.7,5.3C344.9,99,347,98.9,348.5,97.6z"/>
				<path class="st4" d="M340.9,77c-3.8-3.3-8.7-5.3-13.8-5.5C331.9,72.7,336.6,74.6,340.9,77z"/>
				<path class="st4" d="M317.1,75.9c0,0,11.9-3,22.1,4C339.2,79.9,328.6,75,317.1,75.9z"/>
				<path class="st4" d="M330.4,145.6c-1.4-3.2-3.4-28.1-3.4-28.1l1.6,25.8c0.4,2.5,0.7,4.4,1.8,5.6c0.6,0.7,1.7,0.8,2.5,0.3
					c0.4-0.4,0.8-0.9,0.9-1.4C333.1,148.8,331.9,148.8,330.4,145.6z"/>
				<path class="st4" d="M338,155c-1.2-1.9-1.2-7.4-1.9-14.1s-3-34-3-34l1.1,26.4c0.4,3.9,1.6,16.4,2.2,19.8
					c0.2,1.3,0.8,4.2,2.9,3.8c0.7-0.2,1.2-0.9,1.2-1.6C340.5,155.3,339.3,156.9,338,155z"/>
				<path class="st4" d="M346.8,137.7c-1.8-2-3.5-26.3-3.5-26.3l1.2,21.6c0,0.2,0,0.4,0,0.7c0.1,1.6,0.5,3.2,0.9,4.7
					c0.3,1,1.1,1.7,2.2,1.7c1.2,0.1,1.6-1.1,1.8-2.4C349.4,137.7,348.6,139.7,346.8,137.7z"/>
				<path class="st4" d="M352.3,118.8c-0.8,1-2.1-0.2-2.9-3s-2.1-13.6-2.1-13.6l0.2,10.9l0.7,2.3c0.3,1.3,0.9,2.5,1.7,3.6
					c0.3,0.5,0.9,0.8,1.5,0.7C351.9,119.6,352.2,119.2,352.3,118.8z"/>
				<path class="st4" d="M326.3,152.2c-1.4-0.9-1.8-4-2.9-14.7s-2.8-24.8-2.8-24.8l-0.4,9.3c0.5,3.8,0.8,7.1,1.6,13.2
					s2.1,14.7,2.6,16c0.2,0.6,0.5,1.2,0.9,1.7c0.5,0.7,1.5,0.9,2.3,0.4c0.3-0.2,0.5-0.5,0.6-0.8c0.2-0.5,0.3-1,0.3-1.5
					C328.4,151,327.7,153.1,326.3,152.2z"/>
				<path class="st4" d="M345.2,81.6c0,0-2,6.5,2.1,11.1c0,0-2.8-1.1-3.3-5.2S345.2,81.6,345.2,81.6z"/>
			</g>
			<path class="st35" d="M253.3,186.5c-7.5-5.2-11.6-10-16.1-14.2c-3.5-3.3-7.2-6.8-10.9-10c-1.8-1.7-3.9-3.1-6.2-4.2
				c-2.1-0.8-4.2-1.7-6.1-2.8c-1.3-0.6-2.5-1.4-3.7-2.3c-1.3-1-2.5-2.1-3.6-3.2c-1-0.9-1.7-1.9-2.2-3.1c-0.2-0.8-0.3-1.7-0.2-2.5
				c0-0.8,0.1-1.6,0.4-2.4c0.5-1.2,1.8-1.6,2.4-2.6s0.2-2.2,1-3.1c0.5-0.5,1.1-0.8,1.7-1c1.2-0.5,1.4-1.2,0.9-2.3s-1.1-2.1-1.7-3.2
				c-1.8-3.2-2.4-5.7-0.9-6.6c2.2-1.2,4.1,2.1,6.6,5.9s4.7,7.6,8.3,10.6l0.8-6.1c0-0.8,0.3-1.6,0.7-2.3c0.5-0.7,1.3-1,2.1-0.6
				c0.6,0.4,0.9,1.1,1,1.8c0.4,2,0.9,3.9,1.3,5.9c0.4,2.3,1.2,4.6,2.2,6.8c1.6,2.9,4.2,5.1,6.8,7.1c7.4,5.8,21.9,14.6,21.9,14.6
				s19-17.1,24.3-22s9.2-7.8,17-8.5c0,0,6.6,15.8-2.2,26.8c0,0-27.9,23-33.4,25.4C260.8,190.5,258.4,190.1,253.3,186.5z"/>
			<path class="st38" d="M303.4,134.9c-5.1,0.2-10.1,1.7-14.5,4.5c-3.2,2.1-22,20.2-22,20.2s1.9,14.4,12.8,20.5l22.3-17.4
				C302,162.8,312,148.4,303.4,134.9z"/>
		</g>
	</g>
</g>
</svg>
